<svg fill="none" height="35" viewBox="0 0 37 35" width="37" xmlns="http://www.w3.org/2000/svg" xmlns:xlink="http://www.w3.org/1999/xlink"><clipPath id="a"><path d="m6.64551 6.20264h29.6832v28.7971h-29.6832z"/></clipPath><clipPath id="b"><path d="m0 0h34.9996v30.5693h-34.9996z"/></clipPath><g clip-path="url(#a)"><path d="m18.682 6.20264c7.8767 0 17.6467 7.12036 17.6467 15.07246s-7.5441 13.7237-15.4207 13.7237c-7.8767 0-14.26249-6.446-14.26249-14.3981s4.15989-14.39806 12.03649-14.39806z" fill="#22d172"/></g><g clip-path="url(#b)"><path d="m28.024 9.23785s.8904-1.71347 1.3109-.34766.2226 13.70771.1237 15.47091c-.099 1.7631-18.3532 1.0926-18.6005.6456-.2474-.447 17.1659-15.57019 17.1659-15.57019" fill="#1a2e44"/><path d="m8.18703 8.71613c.02474-1.16715.44523-2.1108.98939-2.13563 5.51588-.19866 15.38498-.32283 18.50158-.37249.5936 0 1.0883.86915 1.1378 2.01146.1731 3.62563.0742 9.08883.1731 13.01243.0495 1.7383-.6925 3.2034-1.583 3.2034-5.1943-.0993-14.915.4967-18.13054.6954-.5689.0248-1.03886-.7947-1.08833-1.9122-.17314-2.9303-.0742-10.7278 0-14.50237z" fill="#fff"/><path d="m8.45887 8.69151c.04947-.91882.14841-1.71347 1.212-1.8873.54413-.0745 1.13783-.02483 1.68193-.04967 1.2615-.02483 2.523-.0745 3.7597-.09933 2.4487-.04966 4.8975-.09933 7.3709-.12416 1.0142-.02484 2.0283-.02484 3.0424-.04967 1.0883-.02483 2.4488-.34766 2.8198 1.01815.3215 1.11748.1731 2.45845.1978 3.62557.0248 1.4652.0248 2.9303.0495 4.3954 0 1.3162 0 2.6572.0248 3.9733.0247 1.2417.4452 4.3209-1.212 4.6686-.8905.1987-2.0036-.0248-2.9187 0-1.2368.0248-2.4735.0497-3.7102.0993-2.3746.0745-4.7738.1987-7.1484.3228-.9152.0497-1.8303.0994-2.7455.149-.3463.0249-.7173.0994-1.08835.0745-1.0636-.0745-1.28621-.7698-1.36041-1.7134-.17314-2.2846-.07421-4.6189-.04947-6.9284.02473-2.5081.04947-5.0162.0742-7.54919 0-.32283-.5689-.12416-.59363.17383-.04947 2.70676-.0742 5.38876-.0742 8.09556v4.0229c0 1.0926-.14841 2.4336.27208 3.4766.32155.7946.76677.9933 1.55828.9436 1.0636-.0496 2.1025-.1241 3.166-.1986 2.8693-.1739 5.7138-.298 8.583-.3974 1.3604-.0496 2.7455-.0745 4.1059-.0745.841 0 1.9541.2484 2.6714-.3228.8904-.7201 1.0636-2.1356 1.0636-3.2034 0-1.5893-.0495-3.1786-.0495-4.7928 0-1.7383 0-3.4766-.0495-5.2149-.0247-1.31611.1732-2.97992-.3215-4.22156-.371-.91882-.9399-.96848-1.8304-.96848-1.0636.02483-2.1024.02483-3.166.04966-3.2897.04967-6.5547.09934-9.8444.17383-1.5336.02484-3.1413-.07449-4.65015.12417-1.16253.149-1.38514 1.39064-1.45934 2.40879.02473.39732.61836.29799.61836 0z" fill="#1a2e44"/><path d="m12.0215 9.03927c.2721-.2235 1.311-.2235 1.3852.39732.0494.64561 1.6572 8.98951 1.4593 9.26271-.1979.2483-11.9221 2.0363-12.24366 1.5644-.09893-.1241-1.2862-.9188-.22261-2.2349 2.72082-3.278 9.62177-8.98953 9.62177-8.98953z" fill="#1a2e44"/><path d="m.667896 10.5293c3.660734-.62084 7.346204-1.21683 11.006904-1.83766.1979-.02483.4205-.04966.5689.04967.1979.12417.2474.37249.2969.59599.5194 2.9303 1.0635 5.8357 1.583 8.766-3.9576.4222-7.8904 1.0927-11.77374 2.0363-.19788.0497-.42049.0745-.5689-.0497-.07421-.0745-.12368-.1986-.14841-.298-.692573-2.8309-1.162532-5.7115-1.335675-8.5921" fill="#fff"/><path d="m.618688 10.7777c3.339182-.5464 6.703102-1.11751 10.042312-1.66383.4947-.0745.8162-.24833 1.2615.0745.4452.32283.3957.72015.4946 1.21683.1485.8195.2969 1.6141.4453 2.4336.3215 1.788.6431 3.5759.9646 5.3639.1237-.1242.2226-.2235.3463-.3477-3.3639.3725-6.67836.894-9.99281 1.6142-1.03886.2235-2.00351.6208-2.47347-.6705-.29682-.8195-.39576-1.8376-.54417-2.682-.296815-1.6638-.469958-3.3276-.593631-4.9914-.024735-.3228-.5936331-.1241-.5936331.1739.1484081 1.9866.3710211 3.9484.7667761 5.9102.173143.8443.247347 1.9369.618368 2.7068.17314.3725.24735.4718.6431.5215.66784.0993 1.58302-.3477 2.25086-.4967 1.212-.2732 2.44874-.5215 3.68547-.7202 2.05298-.3476 4.10594-.6456 6.15894-.8691.1484-.0248.371-.149.3463-.3477-.371-2.0363-.7421-4.0477-1.1131-6.084-.1484-.8692-.1484-2.23497-.5689-3.00479-.1978-.3725-.2721-.39733-.6678-.49666-.6184-.149-1.6325.24833-2.2756.34766-.96465.149-1.90457.32283-2.86923.47182-2.07771.34766-4.15543.69532-6.208408 1.04297-.346286.0497-.519429.5712-.123674.4967z" fill="#1a2e44"/><path d="m.296787 11.2496c1.459343.6953 2.943433 1.3906 4.402773 2.0859.84098.3973 2.25086 1.4403 3.21551 1.3907.93992-.0497 2.02825-1.4652 2.62193-2.1108.8904-.9933 1.6077-2.086 2.2013-3.27797.1237-.24833-.2473-.74499-.3957-.42216-.4947.99331-1.0636 1.91213-1.7809 2.75643-.59365.745-2.02826 2.5578-3.09185 2.384-.51943-.0994-1.16253-.5463-1.65723-.7698-.59363-.2732-1.16253-.5464-1.75616-.8444-1.23673-.596-2.4982-1.1919-3.734939-1.7631-.2720813-.1738-.2720813.447-.024734.5712z" fill="#1a2e44"/><path d="m12.5407 9.70982s-2.67131 4.32088-3.14127 4.76788-1.58302-.0496-1.58302-.0496 1.80563-1.2665 2.20139-1.6887c.3957-.447 2.3498-3.25307 2.3498-3.25307z" fill="#1a2e44"/><path d="m33.7869 2.18517c.3215-.14899 1.3357.17383 1.1873.79466-.1237.62082-1.0389 9.08887-1.311 9.28747-.2473.1987-11.9963-1.5644-12.1695-2.1108-.0494-.149-.9646-1.26645.4453-2.18527 3.5865-2.35912 11.8479-5.78606 11.8479-5.78606z" fill="#1a2e44"/><path d="m22.5081.248291c3.6855.496658 7.371.993319 11.0564 1.489969.1979.02484.4205.0745.5442.2235.1484.17383.1237.42216.0989.64565-.3463 2.95512-.6925 5.8854-1.0388 8.84049-3.9081-.7698-7.8657-1.2665-11.8479-1.51479-.1979 0-.4205-.04966-.5195-.22349-.0494-.09933-.0494-.2235-.0494-.34766.1484-2.90545.5441-5.78606 1.212-8.592179" fill="#fff"/><path d="m22.4093.496481c3.364.446992 6.7279.918819 10.0918 1.365809.5194.0745.8657 0 1.1873.44699.3215.44699.1731.79465.1236 1.29131-.0989.81948-.1978 1.63897-.2968 2.45845-.2226 1.8128-.4205 3.60077-.6431 5.41356.1237-.0993.2721-.1738.3958-.2732-3.3639-.6456-6.7526-1.1174-10.1907-1.41542-.371-.02484-.841 0-1.1873-.09934-.1484 0-.3215-.02483-.47-.02483-.2968-.32283-.4204-.67049-.3462-1.04298-.0742-.84432.1484-1.8128.2473-2.65712.2226-1.7383.5442-3.4766.9399-5.190067.0742-.34766-.5194-.248329-.5936.049666-.47 2.036291-.841 4.097421-1.0389 6.183381-.0989.89399-.7173 2.83095.4205 3.15381.8905.2483 2.0777.149 3.0177.2483.9646.0993 1.9045.1987 2.8445.3228 2.0529.2484 4.1059.596 6.1342.9933.1484.0249.3957-.0993.3957-.2731.2474-2.03632.4947-4.09745.7173-6.13374.099-.86915.4947-2.16046.3216-3.05444-.0742-.39733-.1484-.47183-.47-.67049-.5441-.32283-1.6325-.24833-2.2756-.34766-.9646-.12417-1.9293-.248331-2.8939-.397329-2.053-.273161-4.1307-.571156-6.2085-.84431721-.2968-.04966579-.6183.44699121-.2226.49665721z" fill="#1a2e44"/><path d="m21.9397.769804c1.1873 1.092646 2.3993 2.185296 3.5866 3.302776.5936.54632 1.1872 1.09264 1.8056 1.63897.2473.22349.5442.59599.8904.67048.8658.2235 2.152-.67048 2.8693-1.06781 1.2614-.72015 2.3745-1.61414 3.3886-2.65712.1979-.22349-.0742-.76982-.3215-.52149-.7668.79465-1.5831 1.51481-2.4982 2.1108-.7173.47182-2.5972 1.83763-3.5618 1.46514-.5195-.19867-1.1626-1.04299-1.5583-1.41548-.47-.44699-.9647-.86915-1.4346-1.31614-.9647-.86915-1.9293-1.76313-2.8693-2.632285-.3215-.2731616-.5441.198663-.2968.422159z" fill="#1a2e44"/><path d="m34.1085 2.97995s-3.8091 3.32761-4.378 3.6256-1.5088-.52149-1.5088-.52149 2.1024-.67049 2.5971-.96848c.5195-.298 3.1908-2.40879 3.1908-2.40879z" fill="#1a2e44"/><path d="m31.9573 20.4867c.2969-.1738 1.3357.0249 1.2862.6457-.0494.6456 0 9.1633-.2473 9.362-.2226.2235-12.0953-.1738-12.3179-.6953-.0742-.149-1.113-1.1423.1979-2.235 3.265-2.7316 11.0811-7.0774 11.0811-7.0774z" fill="#1a2e44"/><path d="m20.5298 19.866c3.7102.0745 7.4451.149 11.1554.2235.1978 0 .4204.0248.5688.149.1732.149.1732.3973.1732.6456 0 2.98-.0247 5.9351-.0247 8.915-3.9823-.3228-7.9646-.3725-11.9469-.149-.1979 0-.4205 0-.5442-.149-.0742-.0993-.0742-.2235-.0742-.3228-.1979-2.9055-.0989-5.8109.2226-8.6915" fill="#fff"/><g fill="#1a2e44"><path d="m20.4803 20.1145c3.3145.0745 6.6289.1241 9.9434.1986.6184 0 1.3357-.0993 1.7067.6457.1484.2732 0 .9436 0 1.2416v2.4833c0 1.7383-.0247 3.4518-.0247 5.1901.1484-.0993.272-.2235.4204-.3228-3.2897-.2484-6.5794-.3477-9.8691-.2484-.7668.0249-2.2261.3229-2.5477-.4718-.2721-.6953-.0742-1.9121-.0742-2.6571 0-1.9121.1237-3.8243.3216-5.7116.0494-.3476-.5442-.2483-.5937.0497-.2226 1.937-.3462 3.8988-.3215 5.8606 0 .8939-.1237 2.0114.0989 2.9054.1237.447.1732.5463.6431.6457.7915.149 1.8057-.0745 2.6219-.0745.9647-.0249 1.9046-.0249 2.8692-.0249 2.2014.0249 4.4028.0994 6.6289.2732.1979.0248.3958-.1242.4205-.3228 0-2.0612.0248-4.1223.0248-6.1834 0-.9685.5441-3.1786-.5937-3.6505-.6183-.2483-1.6572-.0496-2.325-.0745-.9647-.0248-1.9293-.0496-2.9187-.0496-2.1025-.0497-4.2049-.0745-6.3074-.1242-.3463-.0993-.5194.3973-.1237.4222z"/><path d="m20.0347 20.462c1.311.9437 2.6219 1.9122 3.9576 2.8558.6678.4718 1.3109.9437 1.9788 1.4403.371.2483.6431.5463 1.0883.5215.9399-.0248 2.1766-1.0678 2.8445-1.6141 1.0636-.8195 1.954-1.7632 2.7703-2.831.1731-.2235-.1732-.7201-.3958-.4221-.742.9684-1.5583 1.8376-2.5229 2.6074-.9152.7202-2.2509 1.9121-3.4381 1.341-1.0389-.4967-2.0283-1.4651-2.9682-2.1356-1.0636-.7699-2.1025-1.5148-3.1661-2.2847-.272-.2235-.371.3477-.1484.5215z"/><path d="m32.3528 21.2321s-3.4134 3.7498-3.9576 4.0975c-.5442.3476-1.5583-.3477-1.5583-.3477s2.0035-.9188 2.4735-1.2665c.4699-.3476 2.8939-2.7564 2.8939-2.7564z"/><path d="m17.1163 17.855c-.0248-.0248-.0495-.0745-.0495-.1241v-.8443c-.0495-.0497-.1732-.0745-.3216-.0994-.1484-.0248-.2968-.0496-.4452-.0496-.0495.0993-.0742.1986-.0989.3228l-.0248.1241c0 .0249-.0247.0994-.0494.1987-.0248.0993-.0495.1987-.0742.2732-.0248.0745-.0495.1241-.0742.1738-.1732 0-.2721-.0497-.2969-.1242.0495-.0745.099-.2731.1732-.6208l.2226-1.192c.0989-.5711.1731-1.0429.2721-1.4403.0742-.3973.1731-.745.2473-1.0181.099-.298.1979-.447.2968-.447.099 0 .1484.0248.1979.0497 0 .1738.0495.5959.1237 1.2664.0989.6457.1237 1.0927.1237 1.341 0 .2235.0247.5712.0742.9933.0494.447.0742.7947.0742 1.043 0 .149-.0742.2235-.2226.2235-.0742 0-.1237-.0248-.1484-.0497zm-.0495-1.3906c-.0248-.1987-.0248-.4222-.0742-.7202-.099-.9933-.1484-1.5893-.1484-1.8128v-.0248c-.0495.0497-.099.2483-.1732.596s-.1484.7202-.2226 1.1175-.0989.6705-.0989.7946c.1731.0497.371.0745.5689.0745.0494 0 .0989 0 .1484-.0248z"/><path d="m18.3782 17.8797c-.0247-.0497-.0494-.0994-.0494-.149l.0247-1.0927c.0247-.5215.0247-.9436.0247-1.2416 0-1.0182-.0494-1.788-.1731-2.3343.0742-.0993.1484-.149.2473-.149.1484 0 .2968.0248.4452.0993.1237.0745.2474.1738.3216.298.1731.2483.2473.5463.2473.8443 0 .3229-.0742.6209-.1978.8692-.1484.2483-.3463.447-.5937.596l.0248.6705.0247.3476v.3228c.0247.298.0247.5215.0247.7202 0 .0745-.0247.149-.0494.1987-.0248.0496-.099.0745-.1732.0745-.0989-.0249-.1236-.0497-.1484-.0745zm.6184-3.0793c.0742-.1738.1237-.3725.1237-.596 0-.0993 0-.2235-.0248-.3725-.0247-.0497-.0247-.0993-.0742-.149-.0494-.0497-.0494-.0745-.0494-.0993-.0248-.0497-.099-.0994-.2474-.1987l-.1731-.149c0 .2235.0247.5712.0494 1.043l.0495 1.043c.1484-.1739.2721-.3477.3463-.5215z"/><path d="m19.9857 17.706c0-.0993.0742-.149.1979-.149h.0742.0494c.0248 0 .0495 0 .0742-.0248.0248-.0248.0248-.0497.0248-.1242 0-.3724-.0248-.8691-.0742-1.5148-.0495-.6704-.0495-1.1671-.0495-1.5148 0-.1241 0-.2235 0-.3228v-.3228c0-.149 0-.2732-.0247-.3477-.0495.0249-.099.0249-.1485.0249-.0989 0-.1484-.0497-.1484-.149 0-.0497.0248-.0994.099-.149.0742-.0497.1484-.0745.2473-.0745.1732-.0249.3463-.0497.47-.0497.0495 0 .0989.0248.1237.0497.0247.0248.0494.0745.0494.1241 0 .0497-.0247.0994-.0494.1242-.0248.0248-.0742.0497-.099.0497-.0247 0-.0495 0-.0742 0h-.0495c-.0494 0-.0742 0-.0989.0248s-.0247.0497-.0247.0993c0 .4718.0247 1.0927.0742 1.9121.0494.8444.0742 1.49.0742 1.9122v.2483h.1237c.1731 0 .272.0745.272.2235v.0497l-.0989.0745s-.0247 0-.0495 0c-.0247 0-.0742 0-.1236 0-.1485 0-.2474.0248-.2721.0248-.371 0-.5689-.0745-.5689-.1987z"/></g></g></svg>