<svg fill="none" height="35" viewBox="0 0 37 35" width="37" xmlns="http://www.w3.org/2000/svg"><path d="m15.7175.969727c9.3084 0 20.8542 8.414573 20.8542 17.812073s-8.9153 16.2182-18.2237 16.2182c-9.30834 0-16.85484-7.6176-16.85484-17.0151 0-9.39753 4.916-17.015173 14.22434-17.015173z" fill="#22d172"/><path d="m26.9887 9.68068s1.1678-2.16765 1.7174-.4403c.5495 1.72732.2748 17.27342.1717 19.50882-.1374 2.2354-24.11243 1.3886-24.42157.8129-.30913-.5419 22.53247-19.64433 22.53247-19.64433" fill="#1a2e44"/><path d="m.54057 8.66518c.034348-1.49026.58392-2.67569 1.27088-2.70956 7.24748-.23709 20.19675-.40644 24.28415-.47417.7901 0 1.4083 1.08382 1.477 2.54021.2061 4.57234.1031 11.44784.2061 16.39284.0344 2.2015-.893 4.0643-2.0609 4.0305-6.8009-.1355-19.57847.6096-23.8033.8806-.75566.0338-1.37393-1.0161-1.442627-2.4048-.137393-3.6579 0-13.5139.068697-18.25562z" fill="#fff"/><path d="m.952807 8.63144c.068693-1.25317.274783-2.13378 1.614363-2.337.68697-.1016 1.44263-.03387 2.12959-.06774 1.58002-.03386 3.16004-.06773 4.70571-.1016 3.16003-.06774 6.32003-.13548 9.48013-.16935 1.3052-.03387 2.6104-.03387 3.9157-.06774.893 0 2.1296-.27096 3.0226-.03387 1.8892.4403 1.4083 3.75951 1.4426 5.18206.0344 1.8289.0344 3.6579.0687 5.453 0 1.6596 0 3.3192.0344 5.0126 0 1.7274.6526 5.4192-1.1679 6.4014-1.0304.5419-2.8852.2032-4.053.2032-1.5801.0339-3.1601.0677-4.7401.1016-3.1944.1016-6.3888.271-9.58315.4403-1.16784.0677-2.33568.1355-3.50352.2032-1.68306.1016-3.09134.3726-3.366123-1.7951-.343482-2.845-.103044-5.8594-.103044-8.7383.034348-3.2515.068696-6.5368.103044-9.78827 0-.4403-.790009-.16935-.824357.23709-.0343481 3.48858-.0686963 7.01098-.1030445 10.49958v5.2159c0 1.2531-.1717415 2.8111.3778305 4.0304.480875 1.0838 1.133494 1.1855 2.232634 1.1177 1.40828-.0677 2.81655-.1693 4.19048-.2371 3.81265-.2032 7.59095-.4064 11.40365-.508 1.8204-.0677 3.6752-.1016 5.4957-.1016 1.0991 0 2.3357.2709 3.2287-.5419 1.2022-1.0839 1.2709-2.9128 1.2365-4.4031-.0343-2.1337-.0343-4.3014-.0687-6.4352 0-2.2015 0-4.403-.0687-6.6045-.0343-1.52414.3092-3.82727-.8243-5.08044-.5839-.64352-1.2709-.54191-2.0953-.54191-1.5456.03387-3.0913.03387-4.637.06774-4.3278.06774-8.6557.13548-12.98358.23709-1.78611.03387-3.95005-.20322-5.66746.13547-1.408276.30483-1.683062 1.86283-1.7517581 3.08213.0343481.47417.8243571.30482.8587051-.06774z" fill="#1a2e44"/><path d="m8.75016 14.4211c-1.54567.9823-3.09134 1.9645-4.63701 2.9467-.0687.0339-.1374.1016-.17174.1693 0 .0678.03434.1355.06869.2033.24044.4403.65262.7451.9961 1.0499 1.20219.9822 2.40438 1.9983 3.60656 2.9805" fill="#fff"/><path d="m8.54381 14.151c-1.23653.779-2.47307 1.558-3.70961 2.3369-.37783.2371-1.20218.5758-1.27088 1.1177-.0687.5758.82436 1.1516 1.20219 1.4903 1.16784 1.0161 2.40437 1.9983 3.60656 2.9805.30913.271.89305-.3387.54957-.6435-.75566-.6097-4.39657-3.0483-4.19048-3.8611.13739-.6435 1.37393-1.1177 1.9235-1.4564.75566-.4742 1.54567-.9822 2.30133-1.4564.44653-.271.03435-.779-.41218-.508z" fill="#1a2e44"/><path d="m16.0317 13.0347c-1.6487 2.6079-2.9539 5.453-3.8813 8.4673z" fill="#fff"/><path d="m15.7568 12.7629c-1.6831 2.6757-2.954 5.5546-3.9157 8.569-.1374.4064.4809.8467.6182.3048.9274-2.9466 2.1983-5.7578 3.847-8.3658.2405-.3387-.2747-.9483-.5495-.508z" fill="#1a2e44"/><path d="m17.7147 14.7964c.5153.0339.9961.3048 1.4427.5758 1.0991.6435 2.1639 1.287 3.2631 1.9305-1.5114 1.0161-3.0227 2.0661-4.6714 2.7773-.5152.2032-1.0304.4065-1.4083.8129" fill="#fff"/><path d="m17.5432 15.1343c1.58.271 3.2287 1.6596 4.6026 2.4725 0-.1693 0-.3387.0344-.5419-1.1679.779-2.3357 1.5919-3.5722 2.2354-.8587.4403-1.7861.7112-2.5418 1.3548-.4122.3725.103.779.4809.4403.8587-.7452 2.1296-1.0839 3.1257-1.6596 1.0304-.5758 1.9922-1.2532 2.9883-1.8967.2061-.1355.2404-.4065.0343-.5419-1.4426-.8468-3.0913-2.2354-4.8087-2.5064-.4122-.1016-.8587.5419-.3435.6435z" fill="#1a2e44"/><path d="m21.0463 7.31038c-.4122 2.37086.6183 4.70782 2.1639 5.99492 1.5457 1.287 3.5379 1.6596 5.4614 1.6596 1.1335 0 2.267-.1355 3.3661-.6435 1.0992-.5081 2.0609-1.4903 2.5762-2.7435.8243-2.06601.1717-4.47074-.8931-6.19808-.6526-1.04996-1.4083-1.93057-2.3013-2.67569-1.4083-1.15157-7.9345-3.590169-10.0641 2.84503" fill="#1a2e44"/><path d="m20.3598 6.32747c-.4122 2.37086.6183 4.70783 2.1639 5.99493 1.5457 1.287 3.5379 1.6596 5.4614 1.6596 1.1335 0 2.267-.1355 3.3661-.6436 1.0648-.508 2.0609-1.4902 2.5761-2.7434.79-2.06602.1374-4.47075-.9274-6.1981-.6526-1.04995-1.4082-1.93056-2.3013-2.67568-1.4083-1.151567-7.9344-3.59017-10.064 2.84503" fill="#fff"/><path d="m19.9131 6.26002c-.6527 5.01268 3.3317 8.09478 8.1061 8.06098 4.9118-.0339 7.9001-3.9628 6.0797-8.60289-1.1679-2.94664-3.5722-5.148159-6.7666-5.6223317-3.4348-.5419113-5.9766 1.2531717-7.1101 4.4369017-.1374.37256.687.54191.8587.13548.9618-2.67569 3.0226-4.369165 6.0109-3.9966 2.3014.304825 3.9844 1.49026 5.2553 3.38695 2.3357 3.45469 1.9579 8.60289-2.8509 9.51729-4.74.8806-9.377-2.0999-8.7244-7.14643.0687-.4403-.79-.57578-.8587-.16935z" fill="#1a2e44"/><path d="m24.2754 7.14117c.5839.67739 1.1678 1.35478 1.7517 2.06604.0344.03387.0687.06774.1031.10161.103.03386.2404-.10161.3091-.20322.8587-1.42252 1.7861-2.81117 2.8509-4.06434" fill="#fff"/><path d="m24.035 7.47989c.3435.40644.6526.779.9961 1.18543.2404.27096.5152.74513.8243.94835.2748.13548.4122.13548.6527-.06774.5152-.40643.893-1.42252 1.2708-1.96443.5153-.779 1.0992-1.52413 1.7175-2.23538.2747-.3387-.1031-.98222-.4466-.54192-.79.94835-1.5113 1.96443-2.1983 2.98052-.1374.23708-.2747.57578-.4808.74513-.3092.30482-.1718.33869-.4809-.06774-.4465-.54191-.9274-1.08383-1.3739-1.62574-.3092-.40643-.7557.30483-.4809.64352z" fill="#1a2e44"/></svg>