<svg fill="none" height="35" viewBox="0 0 38 35" width="38" xmlns="http://www.w3.org/2000/svg" xmlns:xlink="http://www.w3.org/1999/xlink"><clipPath id="a"><path d="m5.83301 3.40283h32.0833v31.5972h-32.0833z"/></clipPath><clipPath id="b"><path d="m0 0h35v31.1111h-35z"/></clipPath><g clip-path="url(#a)"><path d="m18.8428 3.40283c8.5136 0 19.0735 7.81267 19.0735 16.53797 0 8.7254-8.1541 15.0582-16.6676 15.0582-8.5136 0-15.41569-7.0728-15.41569-15.7981s4.49619-15.79807 13.00979-15.79807z" fill="#f9c273"/></g><g clip-path="url(#b)"><path d="m35.0002 30.0086c0 .5776-7.8398 1.0502-17.5133 1.0502-4.6241 0-10.6302.1838-13.76611 0-3.42825-.1838-3.7471572-.7351-3.7471572-1.0502 0-.5776 14.9885672-.9451 24.6620672-.9451s10.3645.3675 10.3645.9451z" fill="#1a2e44"/><path d="m27.745 10.3702s1.2225-.97138 1.7806-.1838c.5847.7614.7707 6.9574.6378 7.955-.1329.9714-2.3652 1.2602-2.6841.9977-.3189-.2363.2392-8.6376.2392-8.6376" fill="#1a2e44"/><path d="m28.1971 19.3232c.6378-.2363 2.2855-.0263 2.2323.7351-.0531.6038-.3721 5.8546-.2392 8.375.0266.6564-.5846 1.1815-1.3553 1.1815-5.5277.0262-24.26351.5513-24.74187.0262-.15945-.1838-2.55125-1.3127.21261-2.6779 6.96276-3.413 23.89146-7.6399 23.89146-7.6399z" fill="#1a2e44"/><path d="m.770401 20.662c.026576-.6564.611239-1.1815 1.328779-1.1815 7.4943-.105 20.88842-.1837 25.11392-.21.7972 0 1.4616.4726 1.5414 1.1289.2126 2.0216.1063 5.0933.2391 7.2724.0532.9714-.9301 1.7853-2.126 1.7853-7.0425-.0525-20.25058.2625-24.63554.3938-.77069.0263-1.408508-.4463-1.488234-1.0764-.159454-1.6278-.053152-6.0122.026575-8.1125z" fill="#fff"/><path d="m1.08959 20.6358c.23918-1.3127 2.76386-.9189 3.69401-.9451 1.19589-.0263 2.39179-.0263 3.58769-.0263 2.49811-.0262 4.99621-.0525 7.46771-.0525 2.2324-.0262 4.4647-.0262 6.6705-.0525.8504 0 1.7008 0 2.5512-.0263.7442 0 2.0198-.2362 2.6842.1051 1.1427.5776.8238 3.1242.8238 4.2006 0 .6301 0 1.2865.0266 1.9166 0 .3413 0 .6826.0266 1.0239.0265.8401.1328 1.1026-.5316 1.759-.6909.6826-1.1958.6301-2.0994.6301-.5315 0-1.0365 0-1.568 0-1.1693 0-2.312 0-3.4814.0263-4.6507.0525-9.2748.1312-13.92556.2625-1.03645.0262-2.07289.0525-3.10934.0788-1.22247.0262-2.73728.2888-2.923308-1.2865-.265756-2.4941.026578-5.1458.106298-7.6137.02658-.3675-.611234-.2625-.637809.0525-.079727 2.5467-.292331 5.1721-.079727 7.7187.186029 2.1791 2.604406 1.654 4.225516 1.6278 5.66063-.1313 11.32113-.2626 16.98173-.3151 1.2491 0 2.4716-.0262 3.7206-.0262 1.1693 0 2.4715.1575 3.4017-.7351.7441-.7351.5846-1.6278.5581-2.5729-.0532-1.6803 0-3.3606-.1063-5.0146-.0532-1.1026-.1595-2.074-1.4351-2.3366-.7973-.1575-1.754-.0262-2.5778-.0262-2.5779.0262-5.1557.0262-7.7069.0525-3.4283.0262-6.8565.0525-10.28478.0787-1.46166.0263-2.92331.0263-4.38497.0525-1.11617.0263-2.072889.2888-2.285494 1.4965-.079726.3676.558084.2626.611234-.0525z" fill="#1a2e44"/><path d="m.770401 10.0814c.026576-.65634.611239-1.18142 1.328779-1.18142 7.4943-.10502 20.88842-.18378 25.11392-.21004.7972 0 1.4616.47258 1.5414 1.12893.2126 2.02153.1063 5.09333.2391 7.27243.0532.9714-.9301 1.7852-2.126 1.7852-7.0425-.0525-20.25058.2626-24.63554.3938-.77069.0263-1.408508-.4463-1.488234-1.0764-.159454-1.6277-.053152-5.9859.026575-8.1125z" fill="#fff"/><g fill="#1a2e44"><path d="m1.08932 10.0551c.23918-1.31268 2.76385-.91887 3.694-.94513 1.1959-.02625 2.3918-.02625 3.5877-.02625 2.49808-.02625 4.99618-.05251 7.46768-.05251 2.2324-.02625 4.4647-.02625 6.6705-.05251.8504 0 1.7008 0 2.5513-.02625.7441 0 2.0197-.23629 2.6841.10502 1.1427.57759.8238 3.12423.8238 4.20063 0 .6301 0 1.2865.0266 1.9166 0 .3413 0 .6826.0266 1.0239.0266.8401.1329 1.1027-.5315 1.759-.691.6826-1.1959.6301-2.0995.6301-.5315 0-1.0364 0-1.5679 0-1.1694 0-2.3121 0-3.4814.0263-4.6508.0525-9.2749.1312-13.92564.2625-1.03644.0263-2.07289.0525-3.10934.0788-1.22247.0262-2.73728.2888-2.923307-1.2865-.265756-2.4679.026577-5.1195.106307-7.6137.02657-.36754-.611242-.26252-.637818.0525-.079727 2.5467-.292331 5.1721-.053151 7.745.186029 2.1791 2.604409 1.654 4.225509 1.6277 5.66064-.1312 11.32124-.2625 16.98174-.315 1.2491 0 2.4716-.0263 3.7206-.0263 1.1693 0 2.4715.1576 3.4017-.7351.7441-.7351.5847-1.6277.5581-2.5729-.0532-1.6802 0-3.3605-.1063-5.0145-.0532-1.10268-.1595-2.07408-1.4351-2.33662-.7973-.15753-1.754-.02626-2.5778-.02626-2.5779.02626-5.1557.02626-7.7069.05251-3.4283.02625-6.8565.05251-10.28478.07876-1.46166.02626-2.94989.02626-4.41154.05251-1.11618.02625-2.072898.28879-2.285503 1.4965-.079726.3413.558083.2363.611243-.0788z"/><path d="m5.58078 24.2064c0 .4726-.50493.7351-.98329.7351s-.85042-.3676-.85042-.8401c0-.4726.37206-.8402.85042-.8402s.98329.4726.98329.9452z"/><path d="m5.58078 14.0723c0 .4726-.50493.7352-.98329.7352s-.85042-.3676-.85042-.8402c0-.4725.37206-.8401.85042-.8401s.98329.4726.98329.9451z"/><path d="m8.4509 24.2064c0 .4726-.50494.7351-.9833.7351-.47835 0-.85041-.3676-.85041-.8401 0-.4726.37206-.8402.85041-.8402.47836 0 .9833.4726.9833.9452z"/></g><path d="m11.6931 24.2064c0 .4726-.5049.7351-.9833.7351s-.85042-.3676-.85042-.8401c0-.4726.37202-.8402.85042-.8402s.9833.4726.9833.9452z" fill="#fff" stroke="#1a2e44" stroke-linecap="square"/><path d="m32.6885.919258c.4252-.288795 1.9931-.078762 1.94.866382-.0266.94515.6378 13.36336.2923 13.70466-.3189.3413-17.9385.5776-18.3105-.1575-.1063-.2101-1.7274-1.5753.1328-3.2555 4.6508-4.30572 15.9454-11.158042 15.9454-11.158042z" fill="#1a2e44"/><path d="m15.6799.787872c5.5277-.157524 11.0288-.315049 16.5566-.446319.2923 0 .6112 0 .8504.183778.2657.210033.2923.577589.2923.918889.186 4.33193.3986 8.66388.5847 12.99578-5.9264-.1838-11.8527.0263-17.7259.6038-.2923.0263-.6378.0263-.8239-.1837-.1063-.1313-.1328-.3151-.1594-.4726-.4784-4.2007-.5847-8.45382-.2658-12.68073" fill="#fff"/><path d="m15.6265 1.05035c5.1025-.157526 10.1785-.288796 15.281-.420067.7175-.026254 1.7274-.262541 2.1526.551337.2392.44632.0797 1.41772.1063 1.8903.0532 1.20768.1063 2.41537.1595 3.64932.1063 2.59915.2391 5.19826.3454 7.79746.1329-.1313.2392-.2363.3721-.3676-5.1291-.1575-10.2847-.0262-15.3872.3939-.5847.0525-1.2491.21-1.8072.1575-1.1162-.0788-1.2225-.3938-1.3288-1.444-.1063-1.1814-.2126-2.3629-.2657-3.5443-.1329-2.67792-.0797-5.38209.1063-8.06001.0266-.36755-.6113-.26254-.6378.05251-.1861 2.80919-.2392 5.64463-.0798 8.4538.0798 1.3915.0532 2.9405.3455 4.3057.1329.5776.3455.7876.9302.8401 1.3287.1313 2.8701-.2625 4.1989-.3413 1.4882-.105 2.9499-.1838 4.4381-.2363 3.1359-.1312 6.2719-.1312 9.4078-.0262.186 0 .372-.1838.372-.3676-.1328-2.9404-.2657-5.88089-.3986-8.84761-.0532-1.41772 0-2.9142-.2126-4.33192-.1063-.656357-.3455-.997661-1.0365-1.102677-1.0896-.157525-2.3652.052508-3.4813.078762-1.4617.052509-2.9234.078763-4.385.131271-3.0562.078762-6.0858.157525-9.0889.262541-.3454 0-.5315.525083-.1063.525083z" fill="#1a2e44"/><path d="m15.0153 1.60187c2.0463 1.31271 4.1192 2.65167 6.1655 3.96437 1.0365.65635 2.0463 1.33896 3.0828 1.99531.5049.31505.9301.68261 1.568.60385.6112-.07877 1.2756-.6301 1.8071-.94515.8238-.52508 1.6211-1.12893 2.3652-1.75903 1.4085-1.20768 2.631-2.59915 3.6674-4.12189.1861-.26254-.2126-.761369-.4252-.44632-.9567 1.36521-2.0197 2.62541-3.2688 3.75434-1.0364.94514-3.1093 2.9142-4.5444 2.75668-.9833-.13127-1.9134-.94515-2.7373-1.47023-.7972-.52508-1.6211-1.05017-2.4183-1.54899-1.7009-1.15518-3.4017-2.2316-5.076-3.33428-.3455-.210028-.4518.39382-.186.55134z" fill="#1a2e44"/><path d="m33.3256 1.96925s-4.7836 5.69714-5.5543 6.24848c-.7707.55133-2.3387-.39381-2.3387-.39381s2.8968-1.47023 3.5877-2.02157c.691-.55134 4.0927-4.22691 4.0927-4.22691z" fill="#1a2e44"/></g></svg>