<svg fill="none" height="35" viewBox="0 0 40 35" width="40" xmlns="http://www.w3.org/2000/svg" xmlns:xlink="http://www.w3.org/1999/xlink"><clipPath id="a"><path d="m0 0h39.4681v35h-39.4681z"/></clipPath><path d="m16.9562 1.65283c8.7188 0 19.5334 7.88162 19.5334 16.68387 0 8.8023-8.3507 15.191-17.0695 15.191s-15.78729-7.1351-15.78729-15.9374 4.60463-15.93747 13.32339-15.93747z" fill="#22d172"/><g clip-path="url(#a)"><path d="m21.3539 26.3192-.3136-.1042c-.3831-.1388-.5922-.4861-.5922-.9027.0349-.5903 0-1.1806-.0696-1.7361-.0697-.382.1742-.7639.5225-.9375l.3135-.1389c.4529-.2084.6619-.7292.4529-1.1806l-.8361-1.8055c-.209-.4514-.7315-.6598-1.1844-.4514l-.3135.1389c-.3483.1736-.7663.0694-1.045-.2084-.3832-.4166-.8012-.8333-1.2889-1.1805-.3135-.2431-.4529-.6598-.3135-1.0417l.1045-.3125c.1741-.4514-.0697-.9722-.5226-1.1458l-1.881-.6945c-.4529-.1736-.9754.0695-1.1496.5209l-.1045.3125c-.1393.3819-.4877.5902-.9057.5902-.5922-.0347-1.1844 0-1.7418.0695-.3832.0694-.76634-.1736-.94052-.5209l-.13934-.3125c-.20901-.4513-.73153-.6597-1.18439-.4513l-1.81142.8333c-.45286.2083-.66187.7292-.45286 1.1805l.13934.3125c.17418.3473.06967.7639-.20901 1.0417-.41802.382-.83604.7986-1.18439 1.2847-.24384.3125-.66186.4514-1.04505.3125l-.31351-.1041c-.45286-.1736-.97538.0694-1.14956.5208l-.6967 1.875c-.17417.4514.06967.9722.52253 1.1458l.31351.1042c.38319.1389.5922.4861.5922.9028-.03484.5903 0 1.1805.06967 1.7361.06967.3819-.17418.7639-.52253.9375l-.31351.1736c-.45286.2083-.66187.7292-.45286 1.1806l.83604 1.8055c.20901.4514.73154.6597 1.18439.4514l.31352-.1389c.34835-.1736.76637-.0694 1.04505.2083.38318.4167.8012.8334 1.28889 1.1806.31352.2431.45286.6597.31352 1.0417l-.1045.3125c-.17418.4514.06967.9722.52252 1.1458l1.88109.6944c.45286.1737.97538-.0694 1.14958-.5208l.1045-.3125c.1393-.3819.4877-.5903.9057-.5903.5922.0348 1.1844 0 1.7417-.0694.3832-.0695.7664.1736.9406.5208l.1393.3125c.209.4514.7316.6597 1.1844.4514l1.8114-.8333c.4529-.2084.6619-.7292.4529-1.1806l-.1393-.3125c-.1742-.3472-.0697-.7639.209-1.0416.418-.382.836-.7987 1.1844-1.2848.2438-.3125.6618-.4514 1.045-.3125l.3135.1042c.4529.1736.9754-.0694 1.1496-.5208l.6967-1.875c.1742-.4861-.0697-1.007-.5225-1.1806zm-11.1124 2.3264c-2.15979-.7986-3.23967-3.1597-2.4733-5.3125.8012-2.1528 3.17-3.2292 5.3298-2.4653 2.1597.7986 3.2396 3.1597 2.4732 5.3125-.8012 2.1528-3.1699 3.2639-5.3297 2.4653z" fill="#1a2e44"/><path d="m20.2386 25.3822-.3135-.1042c-.3832-.1389-.5922-.4861-.5922-.9027.0348-.5903 0-1.1806-.0697-1.7362-.0696-.3819.1742-.7638.5226-.9375l.3135-.1388c.4528-.2084.6618-.7292.4528-1.1806l-.836-1.8056c-.209-.4513-.7315-.6597-1.1844-.4513l-.3135.1388c-.3484.1737-.7664.0695-1.0451-.2083-.3831-.4167-.8012-.8333-1.2889-1.1805-.3135-.2431-.4528-.6598-.3135-1.0417l.1045-.3125c.1742-.4514-.0696-.9722-.5225-1.1458l-1.8811-.6945c-.4528-.1736-.9754.0695-1.1495.5208l-.1045.3125c-.1394.382-.4877.5903-.9058.5903-.5922-.0347-1.18435 0-1.74171.0695-.38318.0694-.76637-.1736-.94054-.5209l-.13934-.3125c-.20901-.4514-.73154-.6597-1.18439-.4514l-1.81142.8334c-.45286.2083-.66187.7291-.45286 1.1805l.13934.3125c.17418.3473.06967.7639-.20901 1.0417-.41802.3819-.83604.7986-1.18439 1.2847-.24385.3125-.66187.4514-1.04505.3125l-.31352-.1041c-.45285-.1737-.97538.0694-1.14955.5208l-.696703 1.875c-.174175.4514.06967.9722.522525 1.1458l.313518.1042c.38318.1389.59219.4861.59219.9028-.03483.5902 0 1.1805.06967 1.7361.06967.4166-.13934.7986-.48769.9722l-.31351.1389c-.452858.2083-.661868.7292-.452858 1.1805l.836038 1.8056c.20901.4514.73154.6597 1.18439.4514l.31352-.1389c.34835-.1736.76637-.0694 1.04505.2083.38319.4167.80121.8334 1.2889 1.1806.31351.243.45285.6597.31351 1.0417l-.1045.3125c-.17418.4513.06967.9722.52252 1.1458l1.88109.6944c.45286.1736.97538-.0694 1.14956-.5208l.1045-.3125c.13934-.3819.48769-.5903.90572-.5903.5922.0347 1.1844 0 1.7417-.0694.3832-.0695.7664.1736.9406.5208l.1393.2778c.209.4514.7316.6597 1.1844.4514l1.8114-.8334c.4529-.2083.6619-.7291.4529-1.1805l-.1393-.3125c-.1742-.3472-.0697-.7639.209-1.0417.418-.3819.836-.7986 1.1844-1.2847.2438-.3125.6618-.4514 1.045-.3125l.3135.1042c.4529.1736.9754-.0695 1.1496-.5209l.6967-1.875c.1742-.4514-.0697-.9722-.5574-1.1458zm-11.07752 2.3611c-2.15977-.7986-3.23965-3.1597-2.47328-5.3125.8012-2.1528 3.16998-3.2292 5.3298-2.4653 2.1597.7986 3.2396 3.1598 2.4732 5.3125-.8012 2.1528-3.1699 3.2292-5.32972 2.4653z" fill="#fff"/><path d="m20.4128 25.0001c-1.1496-.4167-.7664-2.3959-.2439-3.0556.3136-.3819.6967-.4861.8012-1.0416.1045-.7639-.5225-2.0139-.9405-2.6042-.3135-.4167-.627-.6597-1.1844-.5903-.209 0-.4528.2431-.6619.2431-.836 0-2.1249-1.3889-2.2294-2.1181-.0697-.5208.3135-.8333-.1045-1.3889-.2787-.3819-.7664-.4861-1.1844-.625-1.2889-.4861-1.8811-.7291-2.8216.2778-.3135.3472-.4529.5903-.9754.6944-.5574.1042-1.35858.1042-1.81143-.1736-.52253-.3125-.62704-.9375-1.2889-1.0764-.73154-.1388-2.02043.5556-2.61263.9375-.41802.2778-.73153.6598-.76637 1.2153 0 .1736.10451.382.10451.5556 0 .0694.1045.1736.1045.243 0 .5209-.45285 1.0764-.83604 1.4584-.90571.8333-1.04505.3125-1.98559.4861-.52253.1041-.836045.4861-1.045055.9028-.383185.7291-1.079886 2.2222-.55736 3.0208.452855.6597 1.079885.5555 1.288895 1.493.13934.5556-.06967 1.4584-.41802 1.9098-.104505.1389-.383185.2083-.48769.3819-.766371.8681-.06967 1.9097.34835 2.7778.20901.4167.34835.868.83604 1.0764.55736.243.76637-.1389 1.25406-.1389s1.25406.625 1.60241 1.0069c.17418.2084.55736.9723.5922 1.2153 0 .1389-.10451.2431-.06967.4167.13934.625.1045.868.6967 1.2847.6967.4514 2.22944 1.0069 2.96098.5556.41802-.2778.52252-.7987.9057-1.0764.38321-.2431 1.56761-.4167 2.02041-.2778.5226.1389.6271.5903.9406.868.9754.8681 2.1597.1737 3.17-.4166 1.463-.8334.3483-1.9445 1.1495-3.0903.3832-.5208 1.0102-.9722 1.6024-1.0069.2439 0 .5226.1388.7664.1041.5922-.1041.8709-.5555 1.0799-1.0416.5225-1.0764 1.1844-2.5.0348-3.2987-.3483-.243-.836.4514-.4877.7292.6619.4861.2787 1.5278-.0696 2.0833-.5226.7987-.7664.5209-1.5676.5209-.4529 0-.6619.2083-1.0102.4861-.4529.3472-1.3238 1.1805-1.5328 1.7708-.209.5556.0349.6597.0697 1.1806.0348.9028-.3832.9028-1.0799 1.2153-.627.2777-1.0102.4861-1.6721-.0695-.3483-.3125-.3483-.6597-.9057-.8333-.5225-.1736-2.0552-.1042-2.57778.1041-.52252.2084-.48768.4514-.83603.8334-.55737.5903-.66187.4861-1.2889.3819-1.01022-.1736-1.46307-.5555-1.63725-1.5278-.06967-.4861.17418-.5902-.06967-1.1111-.24384-.4861-1.14955-1.25-1.60241-1.5277-.55736-.382-.6967-.2084-1.28889-.2431-1.07989-.0347-1.18439-.2431-1.63725-1.1806-.62703-1.3888.38319-1.2152.83604-2.2569.48769-1.1458.17418-2.7431-.66186-3.5417-.487695-.4861-.696705-.625-.5922-1.3194.06967-.6597.45286-1.5625 1.18439-1.5972.48769-.0348.73154.2777 1.25406.0694.62703-.2778 1.25406-1.0764 1.63725-1.6319.66186-.8681-.06967-1.9445.55736-2.5348.20901-.2083 1.18439-.6597 1.53274-.6944.76637-.0694.90571.625 1.35856 1.0069.55736.4514 1.39341.2084 2.02044.1737.627-.0348 1.0799.0694 1.5327-.382.3832-.3819.4529-1.0069 1.1148-1.0417.3135-.0347 1.3934.4167 1.6372.5903.9057.6945.2787 1.007.418 1.7709.1394.7291 1.1147 1.5277 1.6721 1.9097.5922.4166.7315.2778 1.3586.3125 1.0799.0347 1.1844.243 1.6372 1.1805.6619 1.4584-.5573 1.2848-.9057 2.4306-.1742.5903-.1393 2.1528.1045 2.6736.209.4861.5922.6597 1.0451.8333.4877.0695.8708-.6944.418-.868z" fill="#1a2e44"/><path d="m9.30073 27.3264c-1.8811-.7986-3.03065-2.8472-2.29912-4.8264.6967-1.9097 2.96098-2.8472 4.84209-2.118 1.8114.6597 2.8216 2.6041 2.3688 4.4791-.5226 2.2222-2.8565 3.125-4.91177 2.4653-.38319-.1389-.76638.6597-.31352.7986 2.36879.7292 4.91169-.3819 5.81749-2.7778.8708-2.2916-.2787-4.9305-2.6127-5.7986-2.33391-.8333-4.94654.4861-5.81742 2.7778-.90571 2.3958.34835 4.8264 2.61263 5.7986.38319.1736.76637-.5903.31352-.7986z" fill="#1a2e44"/><path d="m30.5501 8.2984c.5922-.38195 2.6474-.10417 2.6126 1.18055-.0349 1.28475.836 18.02085.3832 18.47225-.4529.4514-24.00136.7986-24.48905-.2431-.13934-.2778-2.29911-2.118.17417-4.4097 6.20068-5.7292 21.31908-15 21.31908-15z" fill="#1a2e44"/><path d="m7.80343 8.125c7.38507-.20833 14.77007-.41667 22.12027-.625.3832 0 .836 0 1.1147.24306.3483.27777.3832.79861.418 1.21527.2439 5.83337.5225 11.70137.7664 17.53477-7.9076-.2431-15.85.0347-23.72267.8333-.38319.0347-.83604.0694-1.07989-.2431-.13934-.1736-.17417-.4166-.20901-.625-.66186-5.6597-.76637-11.4236-.34835-17.11802" fill="#fff"/><g fill="#1a2e44"><path d="m7.76846 8.47224c6.93214-.20834 13.82954-.38195 20.76164-.59028 1.1496-.03472 2.2295-.13889 2.5778 1.21528.1394.55555.0697 1.45836.1045 2.01386.0697 1.8056.1742 3.6111.2439 5.382.1393 3.368.3135 6.7361.4528 10.1041.1742-.1736.3135-.3125.4877-.4861-6.7928-.2083-13.5508-.0347-20.3436.5209-.8709.0694-1.8463.3125-2.71717.243-.45285.2084-.83604.1042-1.14955-.243-.48769-.1736-.66187-.4861-.55736-1.007-.48769-1.6319-.34835-3.7847-.41802-5.4514-.17418-3.6111-.10451-7.2569.13934-10.86803.03483-.48611-.80121-.34722-.83604.06945-.24385 3.78468-.31352 7.60418-.10451 11.38888.10451 1.8403-.06967 4.2361.52253 5.9722.24384.7639.62703.9375 1.42823.9723 1.84625.0347 3.76215-.3473 5.60845-.4862 2.0204-.1388 4.0757-.243 6.0961-.3125 4.0757-.1388 8.1514-.1388 12.1923-.0347.2438 0 .4877-.243.4877-.4861-.1742-3.8194-.3484-7.6389-.5226-11.4583-.0696-1.9097-.1393-3.8195-.2438-5.72919-.0697-.97223-.1393-1.77084-1.2192-2.01389-1.4631-.3125-3.3442.03472-4.8421.06944-1.9508.06944-3.9364.10417-5.8871.17361-4.0409.10417-8.0817.20833-12.08777.34722-.52252.03473-.76637.72917-.17417.69445z"/><path d="m6.93197 9.23619c2.61263 1.70141 5.26013 3.40281 7.87273 5.10421 1.3237.868 2.6126 1.7014 3.9363 2.5694.7664.4861 1.6025 1.2847 2.5778 1.1458.8361-.1041 1.7766-.8333 2.4385-1.2847 1.1147-.7292 2.1598-1.493 3.17-2.3611 1.8811-1.6319 3.5183-3.5069 4.9117-5.55555.2439-.34722-.2787-1.00695-.5573-.59028-1.3238 1.90973-2.8217 3.68053-4.5983 5.24303-1.4979 1.3542-4.4589 4.2361-6.6186 3.4375-1.0451-.3819-2.125-1.3889-3.1003-2.0139-1.0451-.6597-2.0553-1.3541-3.1004-2.0139-2.2642-1.4583-4.49368-2.9166-6.75795-4.37495-.38319-.3125-.52253.48611-.17418.69444z"/><path d="m31.387 9.75716s-6.4096 7.70834-7.4198 8.43754c-1.0451.7291-3.1352-.5209-3.1352-.5209s3.8667-1.9791 4.8073-2.743c.9057-.7639 5.4691-5.69447 5.4691-5.69447z"/><path d="m25.3601 7.50006c-.418 2.43055.627 4.82634 2.1946 6.14584 1.5676 1.3194 3.588 1.7014 5.5388 1.7014 1.1495 0 2.2991-.1389 3.4138-.6597 1.1147-.5209 2.0901-1.5278 2.6126-2.8125.8361-2.1181.1742-4.58338-.9057-6.35421-.6618-1.07639-1.4282-1.97917-2.3339-2.74306-1.4283-1.18055-8.0469-3.680551-10.2067 2.91667"/></g><path d="m24.6287 6.49322c-.4181 2.43056.627 4.82638 2.1946 6.14588 1.5675 1.3194 3.588 1.7013 5.5387 1.7013 1.1496 0 2.2991-.1388 3.4139-.6597 1.0799-.5208 2.0901-1.5278 2.6126-2.8125.836-2.11804.1742-4.58331-.9057-6.35415-.6619-1.07638-1.4283-1.97916-2.334-2.74305-1.4282-1.180557-8.0469-3.68056-10.2066 2.91666" fill="#fff"/><path d="m24.2104 6.42355c-.627 5.10415 3.379 8.29865 8.1862 8.26385 4.9814-.0347 8.0469-4.0277 6.1658-8.81941-1.1844-3.02083-3.6228-5.277776-6.8625-5.7986088-3.4835-.5555552-6.0613 1.2847188-7.2108 4.5486088-.1394.41667.6967.59028.836.17361 1.0102-2.70833 3.0655-4.444441 6.0265-4.097219 2.1946.243056 3.8667 1.319449 5.1904 3.090279 2.5778 3.50694 2.4733 9.13194-2.6126 10.10414-4.7724.9375-9.51-2.118-8.8481-7.29164.0348-.41667-.8012-.59028-.8709-.17361z" fill="#1a2e44"/><path d="m28.6348 7.32661c.5922.69444 1.1844 1.38889 1.7766 2.11805.0348.03472.0696.06945.1045.10417.1045.03472.2438-.10417.3135-.20833.8708-1.45834 1.8114-2.88195 2.8913-4.16667" fill="#fff"/><path d="m28.3909 7.67357c.3483.41666.6618.79861 1.0102 1.21527.2438.27778.5225.76389.836.97223.2787.13889.418.13889.6619-.06945.5225-.41666.9057-1.45833 1.2889-2.01389.5225-.79861 1.1147-1.5625 1.7417-2.29166.2787-.34722-.1045-1.00695-.4528-.55556-.8012.97222-1.5328 2.01389-2.2295 3.05556-.1393.24305-.2787.59028-.4877.76389-.3135.3125-.1741.34722-.4877-.06945-.4528-.55555-.9405-1.11111-1.3934-1.66666-.3483-.38195-.7663.34722-.4876.65972z" fill="#1a2e44"/></g></svg>