<?xml version="1.0" encoding="utf-8"?>
<!-- Generator: Adobe Illustrator 24.2.1, SVG Export Plug-In . SVG Version: 6.00 Build 0)  -->
<svg version="1.1" id="Слой_1" xmlns="http://www.w3.org/2000/svg" xmlns:xlink="http://www.w3.org/1999/xlink" x="0px" y="0px"
	 viewBox="0 0 38 35" style="enable-background:new 0 0 38 35;" xml:space="preserve">
<style type="text/css">
	.st0{fill:#22D172;}
	.st1{clip-path:url(#SVGID_2_);}
	.st2{fill:#F9C273;}
	.st3{clip-path:url(#SVGID_4_);}
	.st4{clip-path:url(#SVGID_6_);}
	.st5{fill:#1A2E44;}
	.st6{fill:#FFFFFF;}
	.st7{clip-path:url(#SVGID_8_);}
	.st8{clip-path:url(#SVGID_10_);}
	.st9{fill:#FEFEFE;stroke:#1A2E44;stroke-width:0.7362;stroke-linecap:round;stroke-linejoin:round;stroke-miterlimit:10;}
	.st10{fill:#FEFEFE;stroke:#1A2E44;stroke-width:0.8683;stroke-linecap:round;stroke-linejoin:round;stroke-miterlimit:10;}
	.st11{fill:#1A2E44;stroke:#1A2E44;stroke-width:0.9488;stroke-linecap:round;stroke-linejoin:round;stroke-miterlimit:10;}
	.st12{fill:#FEFEFE;stroke:#1A2E44;stroke-width:0.9488;stroke-linecap:round;stroke-linejoin:round;stroke-miterlimit:10;}
	.st13{fill:none;stroke:#1A2E44;stroke-width:0.5291;stroke-linecap:round;stroke-linejoin:round;stroke-miterlimit:10;}
	.st14{fill:#FFFFFF;stroke:#1A2E44;stroke-width:0.5291;stroke-linecap:round;stroke-linejoin:round;stroke-miterlimit:10;}
	.st15{opacity:0.46;fill:#FFFFFF;}
	.st16{fill:#1A2E44;stroke:#1A2E44;stroke-width:0.6118;stroke-linecap:round;stroke-linejoin:round;stroke-miterlimit:10;}
	.st17{fill:#FEFEFE;stroke:#1A2E44;stroke-width:0.6118;stroke-linecap:round;stroke-linejoin:round;stroke-miterlimit:10;}
	.st18{fill:#1A2E44;stroke:#1A2E44;stroke-width:0.8062;stroke-linecap:round;stroke-linejoin:round;stroke-miterlimit:10;}
	.st19{fill:#FEFEFE;stroke:#1A2E44;stroke-width:0.8062;stroke-linecap:round;stroke-linejoin:round;stroke-miterlimit:10;}
	.st20{clip-path:url(#SVGID_12_);}
	.st21{fill:#010101;}
	.st22{fill:#B8CDFB;}
	.st23{fill:#FB5151;}
	.st24{fill:none;stroke:#050505;stroke-width:0.5;stroke-linecap:round;stroke-linejoin:round;stroke-miterlimit:10;}
	.st25{fill:none;stroke:#050505;stroke-width:0.4456;stroke-linecap:round;stroke-linejoin:round;stroke-miterlimit:10;}
	.st26{fill:#1F3248;}
</style>
<path class="st22" d="M26.2,26.2c-7.5,6.4-16.6,7.8-21.6,2.1C0,23.1,1.6,14.6,10,7.3c7.4-6.5,18-7.9,21.6-2.1
	C36.3,12.7,33.6,19.9,26.2,26.2z"/>
<g>
	<path class="st23" d="M19,5.8c-8,0-12.1,5.4-12.1,12.1S12.3,30.1,19,30.1c7.9,0,12.1-5.4,12.1-12.1S25.7,5.8,19,5.8z M27,17.9
		c-0.4,4.4-3.6,7.9-7.9,7.9c-5.3,0-8-3.6-8-7.9s3.6-7.9,8-7.9C24.6,10,27.3,13.8,27,17.9z"/>
	<g>
		<path class="st5" d="M31.7,17.9c0,0.4,0,0.8-0.1,1.2c-0.1,0.4-0.2,0.8-0.2,1.2l-0.3,1.2l-0.4,1.2c-0.6,1.5-1.5,3-2.6,4.1
			c-1.2,1.2-2.6,2.1-4.1,2.7c-1.5,0.6-3.2,0.9-4.8,1c-3.3,0.1-6.7-1.2-9.1-3.5c-2.4-2.4-3.8-5.7-3.8-9.1c0-3.3,1.1-6.8,3.6-9.2
			c1.2-1.2,2.7-2.1,4.2-2.6c0.8-0.3,1.6-0.5,2.4-0.7c0.4-0.1,0.8-0.2,1.2-0.3c0.4-0.1,0.8-0.1,1.2-0.1c0.8,0,1.7,0.2,2.5,0.5
			c0.8,0.2,1.6,0.4,2.4,0.8c1.5,0.7,2.9,1.6,4.1,2.7C30.1,11.3,31.7,14.6,31.7,17.9z M30.5,17.9c0-3-1.1-6.2-3.3-8.4
			c-1.1-1.1-2.4-2-3.9-2.5c-0.7-0.3-1.5-0.5-2.2-0.6c-0.8-0.1-1.5,0.1-2.3,0.1c-0.4,0-0.8,0-1.1,0c-0.4,0-0.8,0-1.2,0
			c-0.8,0.1-1.5,0.2-2.2,0.5c-1.4,0.5-2.7,1.4-3.8,2.5c-1,1.1-1.8,2.4-2.3,3.9c-0.5,1.4-0.7,3-0.7,4.5c0,3,1.2,6,3.4,8.1
			c2.1,2.1,5.1,3.4,8.2,3.4c1.5,0,3.1-0.2,4.6-0.6c1.5-0.5,2.8-1.3,3.9-2.4C29.8,24.2,30.8,21,30.5,17.9z"/>
	</g>
	<g>
		<path class="st5" d="M27.5,18c-0.3,2.2-1.2,4.3-2.8,5.8c-1.6,1.5-3.8,2.4-5.9,2.3c-2.1,0-4.3-0.7-5.9-2.3c-1.6-1.6-2.2-3.8-2.2-6
			c0-2.2,0.9-4.4,2.5-5.9c1.6-1.5,3.8-2.4,6-2.3c2.2,0,4.5,0.7,6.1,2.3C26.9,13.4,27.7,15.8,27.5,18z M26.4,17.9
			c0.2-2-0.4-4-1.8-5.4c-1.4-1.4-3.4-2.1-5.4-2.1c-2-0.1-4,0.7-5.4,2.1c-1.4,1.4-2.3,3.3-2.3,5.3c-0.1,2,0.5,4.1,1.8,5.6
			c0.7,0.7,1.5,1.3,2.5,1.7c1,0.4,2,0.5,3,0.6c2.1,0.1,4.1-0.8,5.4-2.3C25.6,21.9,26.3,19.9,26.4,17.9z"/>
	</g>
	<g>
		<path class="st6" d="M19,11L19,11c-1,0-1.4-0.7-1.5-1.6c-0.3-1.5-0.3-3.5-0.3-3.5c0.1-1,0.8-1.5,1.8-1.5h0c1,0,1.8,0.7,1.8,1.5
			c0,0.9,0,2.4-0.2,3.5C20.5,10.2,20,11,19,11z"/>
		<path class="st5" d="M19,11.3c-0.6,0-1.3-0.3-1.6-0.8C17.1,10,17,9.4,16.9,8.9c-0.1-1-0.2-2-0.2-3l0,0l0,0
			c0.1-0.5,0.3-1.1,0.8-1.5c0.5-0.4,1.1-0.5,1.7-0.4c0.6,0,1.2,0.3,1.6,0.7c0.2,0.2,0.4,0.5,0.4,0.8c0,0.2,0.1,0.3,0,0.5l0,0.4
			c0,0.9-0.1,1.9-0.2,2.9c-0.1,0.5-0.2,1-0.6,1.5C20.1,11.1,19.5,11.3,19,11.3z M19,10.6c0.8,0,1.3-0.7,1.3-1.6
			c0.1-0.9,0.1-1.8,0-2.8l0-0.4c0-0.1,0-0.2,0-0.2c0-0.1-0.1-0.3-0.2-0.4c-0.2-0.2-0.6-0.4-0.9-0.4c-0.8-0.1-1.4,0.3-1.5,1.1l0-0.1
			c0,1,0.1,2,0.2,2.9c0.1,0.5,0.1,0.9,0.3,1.3C18.2,10.4,18.5,10.7,19,10.6z"/>
	</g>
	<g>
		<path class="st6" d="M12.2,18.1L12.2,18.1c0,0.9-0.7,1.3-1.6,1.5c-1.6,0.3-3.6,0.3-3.6,0.3c-1-0.1-1.6-0.7-1.6-1.7v0
			c0-0.9,0.7-1.7,1.6-1.7c0.9,0,2.5-0.1,3.6,0.1C11.4,16.7,12.2,17.2,12.2,18.1z"/>
		<path class="st5" d="M12.5,18.1c0,0.3-0.1,0.6-0.2,0.9c-0.2,0.3-0.4,0.5-0.7,0.6c-0.5,0.3-1.1,0.3-1.6,0.4c-1,0.1-2,0.2-3.1,0.3
			l0,0l0,0c-0.5-0.1-1.1-0.2-1.5-0.7c-0.4-0.5-0.5-1.1-0.5-1.7c0.1-0.6,0.4-1.2,0.9-1.5c0.2-0.2,0.5-0.3,0.8-0.3c0.3,0,0.5,0,0.8,0
			c0.9,0,1.9,0,2.9,0.1c0.5,0,1,0.2,1.5,0.5C12.2,16.9,12.5,17.5,12.5,18.1z M11.9,18.1c0-0.8-0.8-1.1-1.7-1.2c-0.9-0.1-1.8,0-2.8,0
			c-0.5,0-0.8,0-1.1,0.2C6,17.4,5.9,17.7,5.8,18c-0.1,0.8,0.4,1.3,1.2,1.4l-0.1,0c1,0,2-0.1,3-0.2c0.5-0.1,1-0.1,1.3-0.3
			C11.6,18.8,11.9,18.5,11.9,18.1z"/>
	</g>
	<g>
		<path class="st6" d="M19.3,25.1L19.3,25.1c0.9,0,1.3,0.7,1.5,1.5c0.3,1.4,0.4,3.4,0.4,3.4c-0.1,1-0.7,1.5-1.6,1.5h0
			c-0.9,0-1.7-0.6-1.7-1.4c0-0.8-0.1-2.3,0-3.4C17.9,25.8,18.3,25.1,19.3,25.1z"/>
		<path class="st5" d="M19.3,24.8c0.5-0.1,1.2,0.3,1.5,0.8c0.3,0.5,0.4,1,0.5,1.5c0.2,1,0.3,1.9,0.3,2.9l0,0l0,0
			c0,0.5-0.2,1.1-0.7,1.5c-0.5,0.4-1,0.5-1.6,0.5c-0.5,0-1.1-0.3-1.5-0.7c-0.2-0.2-0.3-0.5-0.4-0.8c-0.1-0.3,0-0.5-0.1-0.8
			c0-0.9,0-1.8,0.1-2.7c0-0.4,0.1-1,0.5-1.4C18.2,25.1,18.7,24.8,19.3,24.8z M19.3,25.4c-0.8,0-1.1,0.8-1.1,1.6c0,0.9,0,1.7,0.1,2.6
			c0,0.5,0.1,0.7,0.3,1c0.2,0.2,0.5,0.4,0.9,0.4c0.7,0.1,1.3-0.4,1.4-1.1l0,0.1c0-0.9-0.1-1.9-0.3-2.8c-0.1-0.5-0.2-0.9-0.3-1.2
			C20,25.6,19.7,25.4,19.3,25.4z"/>
	</g>
	<g>
		<path class="st6" d="M25.9,17.6L25.9,17.6c-0.1-1,0.6-1.3,1.4-1.5c1.5-0.3,3.4-0.5,3.4-0.5c1,0.1,1.5,0.7,1.6,1.6v0
			c0.1,1-0.6,1.8-1.4,1.8c-0.9,0.1-2.4,0.2-3.4,0C26.7,19,25.9,18.6,25.9,17.6z"/>
		<path class="st5" d="M25.6,17.6c-0.1-0.6,0.2-1.2,0.7-1.6c0.5-0.3,1-0.4,1.5-0.5c1-0.2,1.9-0.3,2.9-0.4l0,0l0,0
			c0.5,0,1.1,0.2,1.5,0.7c0.4,0.5,0.5,1,0.5,1.6c0,0.6-0.2,1.1-0.7,1.5c-0.2,0.2-0.5,0.4-0.8,0.5c-0.1,0-0.3,0.1-0.4,0.1l-0.3,0
			c-0.9,0-1.8,0-2.8,0c-0.5,0-1-0.1-1.5-0.5C25.9,18.8,25.6,18.2,25.6,17.6z M26.2,17.6c0,0.8,0.8,1.2,1.6,1.1c0.9,0,1.8,0,2.7-0.1
			l0.3,0c0.1,0,0.2,0,0.2,0c0.1,0,0.3-0.1,0.4-0.2c0.2-0.2,0.4-0.5,0.4-0.9c0-0.8-0.4-1.3-1.2-1.4l0.1,0c-0.9,0.1-1.9,0.2-2.8,0.3
			c-0.5,0.1-0.9,0.2-1.2,0.4C26.4,16.9,26.2,17.2,26.2,17.6z"/>
	</g>
</g>
</svg>
