<?xml version="1.0" encoding="utf-8"?>
<!-- Generator: Adobe Illustrator 24.2.1, SVG Export Plug-In . SVG Version: 6.00 Build 0)  -->
<svg version="1.1" id="Слой_1" xmlns="http://www.w3.org/2000/svg" xmlns:xlink="http://www.w3.org/1999/xlink" x="0px" y="0px"
	 viewBox="0 0 38 35" style="enable-background:new 0 0 38 35;" xml:space="preserve">
<style type="text/css">
	.st0{fill:#22D172;}
	.st1{fill:#B8CDFB;}
	.st2{clip-path:url(#SVGID_2_);}
	.st3{fill:#F9C273;}
	.st4{clip-path:url(#SVGID_4_);}
	.st5{clip-path:url(#SVGID_6_);}
	.st6{fill:#1A2E44;}
	.st7{fill:#FFFFFF;}
	.st8{clip-path:url(#SVGID_8_);}
	.st9{clip-path:url(#SVGID_10_);}
	.st10{fill:#FEFEFE;stroke:#1A2E44;stroke-width:0.7362;stroke-linecap:round;stroke-linejoin:round;stroke-miterlimit:10;}
	.st11{fill:#FEFEFE;stroke:#1A2E44;stroke-width:0.8683;stroke-linecap:round;stroke-linejoin:round;stroke-miterlimit:10;}
	.st12{fill:#1A2E44;stroke:#1A2E44;stroke-width:0.9488;stroke-linecap:round;stroke-linejoin:round;stroke-miterlimit:10;}
	.st13{fill:#FEFEFE;stroke:#1A2E44;stroke-width:0.9488;stroke-linecap:round;stroke-linejoin:round;stroke-miterlimit:10;}
	.st14{fill:none;stroke:#1A2E44;stroke-width:0.5291;stroke-linecap:round;stroke-linejoin:round;stroke-miterlimit:10;}
	.st15{fill:#FFFFFF;stroke:#1A2E44;stroke-width:0.5291;stroke-linecap:round;stroke-linejoin:round;stroke-miterlimit:10;}
	.st16{opacity:0.46;fill:#FFFFFF;}
	.st17{fill:#1A2E44;stroke:#1A2E44;stroke-width:0.6118;stroke-linecap:round;stroke-linejoin:round;stroke-miterlimit:10;}
	.st18{fill:#FEFEFE;stroke:#1A2E44;stroke-width:0.6118;stroke-linecap:round;stroke-linejoin:round;stroke-miterlimit:10;}
	.st19{fill:#1A2E44;stroke:#1A2E44;stroke-width:0.8062;stroke-linecap:round;stroke-linejoin:round;stroke-miterlimit:10;}
	.st20{fill:#FEFEFE;stroke:#1A2E44;stroke-width:0.8062;stroke-linecap:round;stroke-linejoin:round;stroke-miterlimit:10;}
	.st21{clip-path:url(#SVGID_12_);}
	.st22{fill:#010101;}
	.st23{fill:#FB5151;}
	.st24{fill:none;stroke:#050505;stroke-width:0.5;stroke-linecap:round;stroke-linejoin:round;stroke-miterlimit:10;}
	.st25{fill:none;stroke:#050505;stroke-width:0.4456;stroke-linecap:round;stroke-linejoin:round;stroke-miterlimit:10;}
	.st26{fill:#1F3248;}
	.st27{fill:#22D172;stroke:#1F3248;stroke-linecap:round;stroke-linejoin:round;stroke-miterlimit:10;}
	.st28{fill:#F9C273;stroke:#1F3248;stroke-linecap:round;stroke-linejoin:round;stroke-miterlimit:10;}
	.st29{fill:#B8CDFB;stroke:#1F3248;stroke-width:0.4659;stroke-linecap:round;stroke-linejoin:round;stroke-miterlimit:10;}
	.st30{fill:#F9C273;stroke:#1F3248;stroke-width:0.4659;stroke-linecap:round;stroke-linejoin:round;stroke-miterlimit:10;}
	.st31{fill:#22D172;stroke:#1F3248;stroke-width:0.4659;stroke-linecap:round;stroke-linejoin:round;stroke-miterlimit:10;}
</style>
<g>
	<path class="st0" d="M14.7,2.9c7.7-1.2,18.5,4,20.1,12.4c1.5,8.4-2.6,16.6-10.8,17.4C15.7,33.4,6.3,29,4.8,20.6S5.5,4.4,14.7,2.9z"
		/>
</g>
<g>
	<path class="st7" d="M4.7,11.9C4.5,8.3,4,6.9,8.2,6.6s17.7,0.2,20.4,0c2.7-0.2,3.4,1.8,3.4,4.9s-0.1,8.1,0,11.3
		c0.1,3.1-1.3,3.9-5,3.9s-14,0.2-18.4,0.4c-4.4,0.3-4-1.6-4-3.5S4.9,14.1,4.7,11.9z"/>
	<path class="st3" d="M5.2,9.3c0,0,9.3,0.1,15.8-0.3s10.3-0.3,10.3-0.3s0-1.8-2-2.1c-2-0.3-7.8,0.2-18.2-0.1c0,0-2,0-3.8,0.2
		C5.3,6.9,4.8,7.4,4.7,8.4C4.6,9.3,4.6,9.3,5.2,9.3z"/>
	<g>
		<path class="st26" d="M4.6,11.9c0-0.9-0.2-1.9-0.2-2.8c0-0.5,0.1-1,0.4-1.5C5.1,7.2,5.5,6.9,6,6.7c0.9-0.3,1.9-0.4,2.9-0.5
			c0.9-0.1,1.9-0.1,2.8-0.1c3.8,0,7.6,0.1,11.3,0.1c1.9,0,3.8,0.1,5.6,0c0.5,0,1,0,1.5,0.2c0.5,0.2,1,0.5,1.3,1
			c0.6,0.9,0.8,1.9,0.9,2.9c0.2,3.8,0.2,7.5,0.3,11.3c0,0.9,0.1,1.9-0.1,3c-0.1,0.5-0.4,1.1-0.9,1.6c-0.4,0.4-1,0.7-1.5,0.9
			c-1.1,0.3-2,0.3-3,0.3l-2.8,0L13,27.6l-2.8,0c-0.9,0-1.9,0.1-2.9,0c-0.5,0-1-0.1-1.5-0.3c-0.5-0.2-1.1-0.5-1.4-1.1
			c-0.3-0.5-0.3-1.1-0.3-1.6l0-1.4C4.3,19.5,4.6,15.7,4.6,11.9z M4.9,11.9C5.1,15.7,5,19.5,5,23.2c0,0.9-0.1,2,0.3,2.5
			c0.3,0.6,1.2,0.7,2.1,0.8c0.9,0,1.8-0.1,2.8-0.1l2.8-0.1L24.3,26l2.8-0.1c0.9,0,1.8-0.1,2.6-0.3c0.8-0.2,1.2-0.6,1.4-1.4
			c0.1-0.4,0.1-0.8,0.1-1.2l0-1.4c0-3.8,0.2-7.6,0.2-11.3c0-0.9-0.2-1.8-0.6-2.5c-0.4-0.7-1.3-1-2.2-0.9c-1.9,0.1-3.8,0-5.7,0
			c-3.8-0.1-7.5-0.1-11.3-0.1c-0.9,0-1.9,0-2.8,0C8,6.8,7,6.9,6.2,7.2c-0.4,0.1-0.8,0.4-1,0.7C4.9,8.2,4.8,8.7,4.8,9.1
			C4.7,10,4.9,11,4.9,11.9z"/>
	</g>
	<g>
		<g>
			<path class="st26" d="M14.6,14.4c-0.7,0.6-1.4,1.1-2.1,1.7l-1.1,0.8L11,17.3l-0.2,0.2c0,0-0.1,0.1-0.1,0.1c0,0-0.1,0.1,0,0
				c0,0,0.1-0.1,0.1-0.2c0-0.1,0-0.1,0-0.1c0,0,0,0,0,0.1c0,0.1,0.1,0.1,0.1,0.2c0.1,0.2,0.2,0.3,0.4,0.5c0.3,0.3,0.6,0.6,0.9,0.9
				c0.6,0.6,1.3,1.2,2,1.8c0.1,0.1,0.2,0.3,0,0.5c-0.1,0.1-0.3,0.1-0.4,0.1c-0.8-0.5-1.5-1-2.2-1.6c-0.4-0.3-0.7-0.6-1-0.9
				c-0.2-0.2-0.3-0.3-0.5-0.5C10,18.1,9.9,18,9.8,17.9c0-0.1-0.1-0.1-0.1-0.2c0-0.1-0.1-0.2-0.1-0.4c0-0.1,0.1-0.2,0.1-0.3
				c0.1-0.1,0.1-0.1,0.1-0.1c0.1-0.1,0.1-0.1,0.2-0.1l0.3-0.2l0.5-0.4c0.4-0.3,0.7-0.5,1.1-0.8c0.7-0.5,1.5-1,2.3-1.5
				c0.2-0.1,0.4,0,0.5,0.1C14.8,14.1,14.7,14.3,14.6,14.4z"/>
		</g>
		<g>
			<path class="st26" d="M22.9,13.9c1.5,1.1,2.9,2.3,4.3,3.5l0,0c0.1,0.1,0.2,0.4,0.1,0.4c0,0.2-0.1,0.2-0.1,0.2
				c-0.1,0.1-0.1,0.1-0.2,0.2c-0.1,0.1-0.2,0.2-0.3,0.3c-0.2,0.2-0.4,0.3-0.6,0.4c-0.4,0.3-0.8,0.6-1.1,0.8c-0.8,0.5-1.5,1-2.3,1.5
				c-0.1,0.1-0.3,0-0.4-0.1c-0.1-0.1,0-0.3,0.1-0.3l2.2-1.7l1.1-0.9c0.2-0.1,0.4-0.3,0.5-0.4c0.1-0.1,0.2-0.1,0.2-0.2
				c0,0,0.1-0.1,0.1-0.1c0,0,0,0,0,0.1c0,0,0,0.2,0.1,0.3c0,0,0,0,0,0c-1.4-1.2-2.9-2.4-4.2-3.7c-0.1-0.1-0.1-0.3,0-0.4
				C22.6,13.8,22.8,13.8,22.9,13.9z"/>
		</g>
		<g>
			<path class="st26" d="M21.2,13c-0.8,1.8-1.8,3.5-2.8,5.2c-1,1.7-1.9,3.4-2.8,5.2c-0.1,0.2-0.3,0.3-0.5,0.2
				c-0.2-0.1-0.3-0.3-0.2-0.5c0.8-1.8,1.7-3.6,2.7-5.3c0.9-1.7,1.9-3.4,3.1-5c0.1-0.1,0.3-0.2,0.4-0.1C21.2,12.7,21.3,12.8,21.2,13z
				"/>
		</g>
	</g>
	<g>
		<path class="st26" d="M4.7,9c4.5,0,8.9-0.2,13.4-0.4c2.2-0.1,4.5-0.2,6.7-0.2c2.2,0,4.5-0.1,6.7-0.1c0.1,0,0.2,0.1,0.2,0.2
			c0,0.1-0.1,0.2-0.2,0.2c-4.5,0.2-8.9,0.3-13.4,0.5C13.7,9.5,9.2,9.6,4.7,9.5c-0.1,0-0.2-0.1-0.2-0.2C4.5,9.2,4.6,9.1,4.7,9z"/>
	</g>
	<path class="st26" d="M7,8.3C6.8,8.5,6.6,8.6,6.4,8.5C6.2,8.3,6.2,8.1,6.4,7.9c0.2-0.2,0.4-0.3,0.6-0.2C7.1,7.8,7.1,8.1,7,8.3z"/>
	<path class="st26" d="M8.4,8.3C8.3,8.5,8,8.6,7.8,8.5C7.7,8.3,7.6,8.1,7.7,7.9c0.1-0.2,0.4-0.3,0.5-0.2C8.5,7.8,8.5,8,8.4,8.3z"/>
	<path class="st26" d="M9.3,7.9C9.1,8.1,9.2,8.4,9.4,8.5c0.2,0.1,0.4,0,0.5-0.2C10,8,10,7.8,9.8,7.7C9.5,7.6,9.4,7.7,9.3,7.9z"/>
</g>
</svg>
