<?xml version="1.0" encoding="utf-8"?>
<!-- Generator: Adobe Illustrator 24.2.1, SVG Export Plug-In . SVG Version: 6.00 Build 0)  -->
<svg version="1.1" id="Слой_1" xmlns="http://www.w3.org/2000/svg" xmlns:xlink="http://www.w3.org/1999/xlink" x="0px" y="0px"
	 viewBox="0 0 38 35" style="enable-background:new 0 0 38 35;" xml:space="preserve">
<style type="text/css">
	.st0{fill:#22D172;}
	.st1{fill:#B8CDFB;}
	.st2{clip-path:url(#SVGID_2_);}
	.st3{fill:#F9C273;}
	.st4{clip-path:url(#SVGID_4_);}
	.st5{clip-path:url(#SVGID_6_);}
	.st6{fill:#1A2E44;}
	.st7{fill:#FFFFFF;}
	.st8{clip-path:url(#SVGID_8_);}
	.st9{clip-path:url(#SVGID_10_);}
	.st10{fill:#FEFEFE;stroke:#1A2E44;stroke-width:0.7362;stroke-linecap:round;stroke-linejoin:round;stroke-miterlimit:10;}
	.st11{fill:#FEFEFE;stroke:#1A2E44;stroke-width:0.8683;stroke-linecap:round;stroke-linejoin:round;stroke-miterlimit:10;}
	.st12{fill:#1A2E44;stroke:#1A2E44;stroke-width:0.9488;stroke-linecap:round;stroke-linejoin:round;stroke-miterlimit:10;}
	.st13{fill:#FEFEFE;stroke:#1A2E44;stroke-width:0.9488;stroke-linecap:round;stroke-linejoin:round;stroke-miterlimit:10;}
	.st14{fill:none;stroke:#1A2E44;stroke-width:0.5291;stroke-linecap:round;stroke-linejoin:round;stroke-miterlimit:10;}
	.st15{fill:#FFFFFF;stroke:#1A2E44;stroke-width:0.5291;stroke-linecap:round;stroke-linejoin:round;stroke-miterlimit:10;}
	.st16{opacity:0.46;fill:#FFFFFF;}
	.st17{fill:#1A2E44;stroke:#1A2E44;stroke-width:0.6118;stroke-linecap:round;stroke-linejoin:round;stroke-miterlimit:10;}
	.st18{fill:#FEFEFE;stroke:#1A2E44;stroke-width:0.6118;stroke-linecap:round;stroke-linejoin:round;stroke-miterlimit:10;}
	.st19{fill:#1A2E44;stroke:#1A2E44;stroke-width:0.8062;stroke-linecap:round;stroke-linejoin:round;stroke-miterlimit:10;}
	.st20{fill:#FEFEFE;stroke:#1A2E44;stroke-width:0.8062;stroke-linecap:round;stroke-linejoin:round;stroke-miterlimit:10;}
	.st21{clip-path:url(#SVGID_12_);}
	.st22{fill:#010101;}
	.st23{fill:#FB5151;}
	.st24{fill:none;stroke:#050505;stroke-width:0.5;stroke-linecap:round;stroke-linejoin:round;stroke-miterlimit:10;}
	.st25{fill:none;stroke:#050505;stroke-width:0.4456;stroke-linecap:round;stroke-linejoin:round;stroke-miterlimit:10;}
	.st26{fill:#1F3248;}
	.st27{fill:#22D172;stroke:#1F3248;stroke-linecap:round;stroke-linejoin:round;stroke-miterlimit:10;}
	.st28{fill:#F9C273;stroke:#1F3248;stroke-linecap:round;stroke-linejoin:round;stroke-miterlimit:10;}
	.st29{fill:#B8CDFB;stroke:#1F3248;stroke-width:0.4659;stroke-linecap:round;stroke-linejoin:round;stroke-miterlimit:10;}
	.st30{fill:#F9C273;stroke:#1F3248;stroke-width:0.4659;stroke-linecap:round;stroke-linejoin:round;stroke-miterlimit:10;}
	.st31{fill:#22D172;stroke:#1F3248;stroke-width:0.4659;stroke-linecap:round;stroke-linejoin:round;stroke-miterlimit:10;}
</style>
<g>
	<path class="st1" d="M15.1,3.2c7.6-1.2,18.2,4,19.7,12.3c1.5,8.3-2.5,16.4-10.5,17.2c-8.1,0.7-17.3-3.7-18.9-12S6.1,4.6,15.1,3.2z"
		/>
</g>
<g>
	<g>
		<path class="st7" d="M27.7,30.4l-12.4,0.1c0,0-0.4-11.4-0.2-22.6c5.5-0.3,16.6-0.1,16.6-0.1s-0.1,4.8,0,6.4
			c0.2,3,0.1,11.6,0.1,11.6L27.7,30.4z"/>
		<path class="st27" d="M27.8,25.9c0.2-0.3,3.6-0.2,3.7-0.1c0.1,0.1-3,4.1-3.4,3.9S27.7,26,27.8,25.9z"/>
		<g>
			<path class="st26" d="M27.4,30.2c-0.2-0.8-0.2-1.5-0.2-2.3c0-0.8,0-1.5,0-2.3l0,0l0,0c0-0.1,0.1-0.3,0.2-0.3
				c0.7-0.1,1.4-0.1,2.1-0.2c0.7,0,1.4,0,2.1,0c0.2,0,0.3,0.2,0.3,0.4c0,0.2-0.2,0.3-0.4,0.3c0,0,0,0,0,0c-0.7,0-1.4-0.1-2.1-0.1
				c-0.7,0-1.4,0-2,0.1l0.2-0.3v0c0,0.7,0,1.5,0.1,2.2c0,0.7,0.1,1.5,0.1,2.2l0,0c0,0.2-0.1,0.3-0.3,0.3
				C27.6,30.5,27.5,30.4,27.4,30.2z"/>
		</g>
		<g>
			<g>
				<path class="st26" d="M18.8,16.9l2.5,0.1c0.8,0,1.6,0,2.5,0c1.6,0,3.3,0.1,4.9,0c0.2,0,0.4,0.2,0.4,0.4c0,0.2-0.2,0.4-0.4,0.4
					c-1.7,0.1-3.3,0.1-5,0.1c-0.8,0-1.7-0.1-2.5-0.1l-2.5-0.1c-0.2,0-0.4-0.2-0.4-0.4C18.4,17,18.6,16.9,18.8,16.9L18.8,16.9z"/>
			</g>
			<g>
				<path class="st26" d="M19,19.9c1.6-0.1,3.3-0.1,4.9-0.1l2.4,0c0.8,0,1.6,0,2.4-0.1l0,0c0.2,0,0.4,0.1,0.4,0.3
					c0,0.2-0.1,0.4-0.3,0.4c-1.7,0.3-3.3,0.3-4.9,0.4c-1.6,0.1-3.3,0.1-4.9,0c-0.2,0-0.4-0.2-0.4-0.5C18.5,20.1,18.7,19.9,19,19.9z"
					/>
			</g>
			<g>
				<path class="st26" d="M18.9,22.6c0.9-0.1,1.9-0.1,2.8-0.1c0.9,0,1.9,0.1,2.8,0.1l0,0c0.2,0,0.4,0.2,0.4,0.3
					c0,0.2-0.1,0.3-0.3,0.3c-1,0.2-1.9,0.2-2.8,0.2c-0.9,0-1.9,0-2.8-0.1c-0.2,0-0.4-0.2-0.3-0.5C18.5,22.8,18.7,22.7,18.9,22.6z"/>
			</g>
		</g>
	</g>
	<g>
		<path class="st26" d="M27.1,31c-2.8,0-5.7-0.1-8.5-0.2c-0.7,0-1.4-0.1-2.1-0.1c-0.4,0-0.9-0.2-1.1-0.5c-0.3-0.3-0.3-0.8-0.3-1.1
			c0-1.4,0-2.8,0-4.2L15,16.4l-0.1-8.5l0,0c0-0.1,0.1-0.3,0.3-0.3c3.4-0.1,6.8-0.1,10.3-0.1c1.7,0,3.4,0.1,5.1-0.1l0.3,0
			c0.1,0,0.2,0,0.4,0C31.6,7.4,31.9,7.7,32,8c0.1,0.1,0.1,0.3,0.1,0.5l0,0.3l0,0.6l0.1,2.5l0.2,10.3l0.1,2.6l0,0.3
			c0,0.1,0,0.3,0,0.4c-0.1,0.3-0.2,0.6-0.4,0.9c-0.3,0.4-0.6,0.7-0.9,1l-1.7,1.9l-0.9,1C28.4,30.7,27.7,31.1,27.1,31z M27.1,29.8
			c0.3,0,0.4-0.1,0.6-0.4l0.8-1l1.7-2c0.3-0.3,0.6-0.7,0.8-0.9c0.1-0.1,0.1-0.2,0.2-0.3c0-0.1,0-0.1,0-0.2l0-0.3l0-2.6l0-10.2l0-2.6
			l0-0.6l0-0.3c0-0.1,0-0.1,0-0.1c0-0.1-0.1-0.2-0.2-0.2c0,0-0.1,0-0.3,0l-0.3,0c-1.7-0.2-3.4-0.1-5.1-0.2C22,8,18.6,8,15.2,8.2
			l0.3-0.3l0,0l0.1,8.5l0,8.5c0,1.4,0,2.8,0,4.2c-0.2,1.7,1.8,1,3.1,1.1C21.5,30,24.3,29.8,27.1,29.8z"/>
	</g>
	<g>
		<g>
			<path class="st0" d="M17.8,12.9c0,0,0,1.6,0,2.8C16.1,15.1,14,13,14,13s-5,0.1-6.8-0.1C5,12.7,3.2,11.1,3.2,8.8c0,0,0-1.4,0-1.9
				c0-2.5,1.8-4.1,4.1-4.1c0,0,7.8,0.3,10.4,0c2.2-0.2,4.1,1.8,4.1,4.1c0,0,0,1.4,0,1.9C21.8,11.2,20,12.8,17.8,12.9z"/>
			<path class="st26" d="M18,13.2c0.1,0,0.1-0.2,0.1-0.2l0,0l0,0L18,13.2l0.1,0.1l0,0.4l0,0.7c0,0.5,0,0.9-0.1,1.4l0,0
				c0,0.1-0.1,0.2-0.2,0.2c0,0-0.1,0-0.1,0l0,0c-0.8-0.3-1.4-0.8-2.1-1.2c-0.6-0.5-1.2-1-1.8-1.6l0,0l0.1,0.1c-1.9,0-3.9,0-5.8,0
				c-1,0-2-0.1-2.9-0.6c-0.9-0.5-1.7-1.2-2-2.2C3,9.9,2.9,9.3,2.9,8.8l0-1.5c0-1,0.1-2,0.7-2.9C4.2,3.6,5.1,3,6.1,2.8
				c0.5-0.1,1-0.2,1.5-0.1l1.5,0c1.9,0.1,3.9,0.1,5.8,0.1c1,0,1.9,0,2.9-0.1c1-0.1,2.1,0.3,2.8,1c0.8,0.7,1.3,1.6,1.5,2.7
				c0.1,1.1,0.1,1.9,0.1,3c-0.1,1.1-0.6,2.2-1.4,2.8c-0.4,0.3-0.9,0.6-1.4,0.8c-0.2,0.1-0.5,0.2-0.8,0.2c-0.1,0-0.3,0-0.4,0
				C18.2,13.2,18.1,13.2,18,13.2z M17.6,12.7c0.2-0.1,0.3-0.1,0.5-0.2c0.2,0,0.2-0.1,0.4-0.1c0.2-0.1,0.4-0.1,0.6-0.2
				c0.4-0.2,0.8-0.4,1.1-0.7c0.6-0.6,1-1.4,1-2.3c0-0.4,0-1,0-1.4c0-0.5,0.1-1,0-1.4c-0.1-0.9-0.4-1.7-1.1-2.4
				c-0.6-0.7-1.5-1.1-2.4-1c-1,0.1-1.9,0.1-2.9,0.1c-1.9,0-3.9,0-5.8,0c-1,0-2-0.1-2.8,0.1C5.3,3.4,4.5,3.9,4,4.7
				C3.5,5.5,3.3,6.4,3.4,7.4c0,1-0.1,2,0.3,2.8c0.3,0.9,1,1.5,1.8,2c0.8,0.5,1.8,0.6,2.7,0.6c1.9,0.1,3.9,0.1,5.8,0.1
				c0.1,0,0.1,0,0.1,0.1l0,0c0.6,0.5,1.2,1,1.8,1.5c0.6,0.5,1.3,0.9,2,1.2l-0.3,0.2v0c0-0.5,0-0.9,0-1.4l0-0.7l0-0.3l0-0.2l0-0.1
				l0,0l0,0C17.5,13,17.5,12.8,17.6,12.7z"/>
		</g>
		<path class="st26" d="M10.8,6.8c0,0.5-0.4,1-0.9,0.9c-0.5,0-0.9-0.4-0.9-0.9s0.4-0.9,0.9-0.9C10.4,5.9,10.8,6.3,10.8,6.8z"/>
		<path class="st26" d="M16.9,6.8c0,0.5-0.4,0.9-0.9,0.9c-0.5,0-0.9-0.4-0.9-0.9c-0.1-0.5,0.4-0.9,0.9-0.9
			C16.6,5.9,16.9,6.3,16.9,6.8z"/>
		<g>
			<path class="st26" d="M14.3,9c0,0.4-0.1,0.8-0.3,1.1c-0.2,0.3-0.6,0.5-1.1,0.5c-0.4,0-0.8-0.2-1.1-0.5c-0.3-0.3-0.4-0.7-0.3-1.1
				c0-0.1,0.1-0.2,0.2-0.2c0.1,0,0.1,0.1,0.2,0.1l0,0c0.1,0.5,0.5,0.9,1,1c0.5,0,0.9-0.4,1-1l0,0c0-0.1,0.1-0.2,0.2-0.2
				C14.2,8.9,14.3,9,14.3,9z"/>
		</g>
	</g>
</g>
</svg>
