<?xml version="1.0" encoding="utf-8"?>
<!-- Generator: Adobe Illustrator 24.2.1, SVG Export Plug-In . SVG Version: 6.00 Build 0)  -->
<svg version="1.1" id="Слой_1" xmlns="http://www.w3.org/2000/svg" xmlns:xlink="http://www.w3.org/1999/xlink" x="0px" y="0px"
	 viewBox="0 0 38 35" style="enable-background:new 0 0 38 35;" xml:space="preserve">
<style type="text/css">
	.st0{fill:#22D172;}
	.st1{fill:#B8CDFB;}
	.st2{clip-path:url(#SVGID_2_);}
	.st3{fill:#F9C273;}
	.st4{clip-path:url(#SVGID_4_);}
	.st5{clip-path:url(#SVGID_6_);}
	.st6{fill:#1A2E44;}
	.st7{fill:#FFFFFF;}
	.st8{clip-path:url(#SVGID_8_);}
	.st9{clip-path:url(#SVGID_10_);}
	.st10{fill:#FEFEFE;stroke:#1A2E44;stroke-width:0.7362;stroke-linecap:round;stroke-linejoin:round;stroke-miterlimit:10;}
	.st11{fill:#FEFEFE;stroke:#1A2E44;stroke-width:0.8683;stroke-linecap:round;stroke-linejoin:round;stroke-miterlimit:10;}
	.st12{fill:#1A2E44;stroke:#1A2E44;stroke-width:0.9488;stroke-linecap:round;stroke-linejoin:round;stroke-miterlimit:10;}
	.st13{fill:#FEFEFE;stroke:#1A2E44;stroke-width:0.9488;stroke-linecap:round;stroke-linejoin:round;stroke-miterlimit:10;}
	.st14{fill:none;stroke:#1A2E44;stroke-width:0.5291;stroke-linecap:round;stroke-linejoin:round;stroke-miterlimit:10;}
	.st15{fill:#FFFFFF;stroke:#1A2E44;stroke-width:0.5291;stroke-linecap:round;stroke-linejoin:round;stroke-miterlimit:10;}
	.st16{opacity:0.46;fill:#FFFFFF;}
	.st17{fill:#1A2E44;stroke:#1A2E44;stroke-width:0.6118;stroke-linecap:round;stroke-linejoin:round;stroke-miterlimit:10;}
	.st18{fill:#FEFEFE;stroke:#1A2E44;stroke-width:0.6118;stroke-linecap:round;stroke-linejoin:round;stroke-miterlimit:10;}
	.st19{fill:#1A2E44;stroke:#1A2E44;stroke-width:0.8062;stroke-linecap:round;stroke-linejoin:round;stroke-miterlimit:10;}
	.st20{fill:#FEFEFE;stroke:#1A2E44;stroke-width:0.8062;stroke-linecap:round;stroke-linejoin:round;stroke-miterlimit:10;}
	.st21{clip-path:url(#SVGID_12_);}
	.st22{fill:#010101;}
	.st23{fill:#FB5151;}
	.st24{fill:none;stroke:#050505;stroke-width:0.5;stroke-linecap:round;stroke-linejoin:round;stroke-miterlimit:10;}
	.st25{fill:none;stroke:#050505;stroke-width:0.4456;stroke-linecap:round;stroke-linejoin:round;stroke-miterlimit:10;}
	.st26{fill:#1F3248;}
	.st27{fill:#22D172;stroke:#1F3248;stroke-linecap:round;stroke-linejoin:round;stroke-miterlimit:10;}
	.st28{fill:#F9C273;stroke:#1F3248;stroke-linecap:round;stroke-linejoin:round;stroke-miterlimit:10;}
	.st29{fill:#B8CDFB;stroke:#1F3248;stroke-width:0.4659;stroke-linecap:round;stroke-linejoin:round;stroke-miterlimit:10;}
	.st30{fill:#F9C273;stroke:#1F3248;stroke-width:0.4659;stroke-linecap:round;stroke-linejoin:round;stroke-miterlimit:10;}
	.st31{fill:#22D172;stroke:#1F3248;stroke-width:0.4659;stroke-linecap:round;stroke-linejoin:round;stroke-miterlimit:10;}
</style>
<g>
	<path class="st0" d="M14.1,2.2C22,0.9,33.3,5.9,34.5,14.8c1.1,8.6-4.2,17.3-12.5,18.1c-8.4,0.8-15.8-5.6-17.4-14.2
		S4.8,3.7,14.1,2.2z"/>
</g>
<g>
	<path class="st7" d="M34.5,8.2c-7.7-3.7-13.8-1.8-14.2,3.3c0,5.6,0.2,18.3,0.2,18.3s5.5-3,9.9-2.2c0,0,2.3-2.5,4.1-4.6V8.2z"/>
	<path class="st3" d="M30.3,23.5c1-0.7,3.4-0.9,3.7-0.2c0.3,0.7-3.3,3.9-3.4,3.9S30.3,23.5,30.3,23.5z"/>
	<g>
		<path class="st7" d="M4.1,27.3c0,0,0.1-11.5,0.3-18.9c0-0.1,0.1-0.2,0.2-0.2c1.6-0.6,15.7-6,15.7,3.6c0,2.6-0.1,15.7,0.2,18.1
			C20.5,30,12.5,24.3,4.1,27.3z"/>
		<path class="st26" d="M4,27.5C4,27.4,4,27.3,4,27.3l0-0.1l0-0.2l0-0.4l0-0.9l0-1.8l0-3.5l0.1-7.1l0.1-3.5l0-0.9
			c0-0.2-0.1-0.3,0.1-0.6C4.4,8.1,4.6,8,4.6,8l0.2-0.1l0.8-0.4c0.3-0.1,0.6-0.2,0.8-0.3c2.3-0.7,4.6-1.2,7-1.3
			c1.2,0,2.4,0.1,3.6,0.4c1.1,0.4,2.3,1.1,2.9,2.3c0.3,0.5,0.5,1.2,0.6,1.8c0.1,0.3,0.1,0.6,0.1,0.9l0,0.5c-0.1,0.1,0,0.3-0.1,0.4
			l0,3.5l0,7.1c0,2.3,0,4.7,0.3,7l0,0c0,0.2-0.1,0.4-0.4,0.5c-0.1,0-0.1,0-0.2,0l-0.2,0c-0.7-0.2-1.2-0.7-1.8-1
			c-0.6-0.3-1.2-0.6-1.9-0.9c-1.3-0.5-2.6-1-4-1.2c-1.4-0.3-2.8-0.4-4.2-0.3c-0.7,0-1.4,0.1-2.1,0.2c-0.3,0.1-0.7,0.1-1,0.2
			C5,27.4,4.3,27.7,4,27.5z M4.3,27.2c0.4-0.4,0.4-0.3,0.8-0.5c0.4-0.1,0.7-0.2,1.1-0.3c0.7-0.2,1.4-0.3,2.2-0.3
			c1.5-0.1,2.9,0,4.4,0.2c1.4,0.2,2.9,0.7,4.2,1.2c0.7,0.3,1.3,0.6,2,0.9c0.6,0.4,1.3,0.6,1.9,1.2L20.1,30l0,0
			c-0.1-4.8-0.1-9.5-0.1-14.2l0-3.5c0-0.1,0.1-0.3-0.1-0.4l0-0.4c0-0.3,0-0.6-0.1-0.8C19.8,10,19.6,9.5,19.4,9C18.9,8,18,7.2,17,6.8
			c-1.1-0.4-2.3-0.5-3.4-0.4c-2.3,0.1-4.6,0.7-6.8,1.5C6.4,7.9,6.1,8,5.9,8.1L5,8.4c-0.4,0.2-0.3,0-0.3,0.4l0,0.9l-0.1,3.5l-0.2,7.1
			l0,3.5l0,1.8l0,0.9l0,0.4L4.3,27.2C4.3,27.1,4.4,27.2,4.3,27.2C4.3,27.2,4.3,27.2,4.3,27.2z"/>
	</g>
	<g>
		<path class="st26" d="M34.1,8.5c-0.3,0-0.4-0.1-0.8-0.3l-1-0.4c-0.7-0.3-1.4-0.5-2.1-0.6c-1.4-0.3-2.8-0.5-4.3-0.4
			c-1.4,0.1-2.8,0.6-3.9,1.5c-1,1-1.5,2.4-1.5,3.8l0.1,8.9l0.1,4.4c0,1.5,0.1,3,0.3,4.4l0,0l-0.7-0.4c0.8-0.5,1.6-0.8,2.4-1.2
			c0.8-0.3,1.7-0.6,2.5-0.8c1.7-0.4,3.5-0.6,5.2-0.6l0,0l-0.6,0.2l4.2-4.5l0,0l-0.1,0.4c0-2.4,0-4.9,0-7.3L34.1,8.5z M34.9,7.9
			l0.1,7.6c0,2.5,0.1,5.1,0,7.6l0,0c0,0.1-0.1,0.3-0.1,0.4l0,0l-4,4.7c-0.1,0.2-0.3,0.2-0.5,0.2l-0.1,0l0,0c-1.6-0.1-3.3,0-4.9,0.3
			c-0.8,0.2-1.6,0.4-2.4,0.6c-0.8,0.3-1.6,0.6-2.3,1l0,0c-0.2,0.1-0.5,0-0.7-0.2c0-0.1-0.1-0.2-0.1-0.2v0c0.2-1.5,0.2-3,0.2-4.5
			l0-4.5l-0.1-8.9c-0.1-1.5,0.5-3.1,1.6-4.2c1.1-1.1,2.7-1.7,4.2-1.9c1.5-0.2,3.1-0.1,4.6,0.3c0.7,0.2,1.5,0.4,2.2,0.6
			C33,7,33.3,7.2,33.7,7.3C34,7.4,34.5,7.7,34.9,7.9z"/>
	</g>
	<g>
		<path class="st26" d="M30,27.5l0-4.1l0,0c0-0.1,0-0.2,0.1-0.2l0,0c0.3-0.3,0.7-0.4,1.1-0.6c0.4-0.1,0.8-0.2,1.2-0.3
			c0.8-0.1,1.6,0.1,2.3,0.4c0.1,0.1,0.2,0.2,0.1,0.4c-0.1,0.1-0.3,0.2-0.4,0.1c-0.6-0.3-1.3-0.4-2-0.4c-0.3,0-0.7,0.1-1,0.2
			c-0.3,0.1-0.6,0.3-0.9,0.5l0,0l0.1-0.2l0.2,4.1c0,0.2-0.2,0.4-0.4,0.5C30.2,28,30,27.8,30,27.5C30,27.6,30,27.6,30,27.5z"/>
	</g>
	<g>
		<path class="st7" d="M7.4,11.7c0,0,7.4-2.9,9.3,0"/>
		<path class="st26" d="M7.3,11.5c1.5-0.8,3.1-1.3,4.8-1.5c0.8-0.1,1.7-0.1,2.6,0.1c0.9,0.2,1.8,0.6,2.3,1.5c0.1,0.2,0,0.4-0.1,0.4
			c-0.1,0.1-0.3,0-0.4-0.1l0,0c-0.5-0.5-1.2-0.8-1.9-0.9c-0.7-0.1-1.5-0.1-2.3,0c-1.6,0.2-3.2,0.6-4.8,0.9l0,0c-0.1,0-0.2,0-0.3-0.2
			C7.1,11.6,7.2,11.5,7.3,11.5z"/>
	</g>
	<g>
		<path class="st7" d="M7.4,15.5c0,0,6.8-2.6,9.6-0.2"/>
		<path class="st26" d="M7.3,15.3c0.8-0.4,1.6-0.7,2.4-0.9c0.8-0.2,1.7-0.4,2.5-0.5c0.9-0.1,1.7-0.1,2.6,0.1
			c0.9,0.2,1.8,0.5,2.4,1.2c0.1,0.1,0.1,0.3,0,0.4c-0.1,0.1-0.2,0.1-0.3,0l0,0c-0.6-0.4-1.4-0.6-2.2-0.7c-0.8-0.1-1.6-0.1-2.4,0
			C10.6,15,9,15.3,7.4,15.7l0,0c-0.1,0-0.2,0-0.3-0.2C7.1,15.4,7.2,15.3,7.3,15.3z"/>
	</g>
	<g>
		<path class="st7" d="M7.4,19.3c0,0,1.6-1.1,4.1-1.2"/>
		<path class="st26" d="M7.2,19.1c0.6-0.5,1.3-0.8,2-1.1c0.7-0.2,1.5-0.4,2.2-0.3c0.2,0,0.4,0.2,0.4,0.4c0,0.2-0.1,0.3-0.3,0.4l0,0
			c-0.7,0.1-1.4,0.2-2,0.4c-0.7,0.2-1.3,0.4-2,0.7l0,0c-0.1,0.1-0.3,0-0.3-0.1C7.1,19.3,7.1,19.2,7.2,19.1z"/>
	</g>
	<g>
		<path class="st7" d="M22.3,12.2c0,0,2.4-3.6,9.3-1.3"/>
		<path class="st26" d="M22.1,12.1c0.5-0.7,1.2-1.3,2-1.7c0.8-0.4,1.7-0.6,2.5-0.6c0.9-0.1,1.7,0,2.6,0.1c0.4,0.1,0.8,0.2,1.2,0.3
			c0.4,0.1,0.8,0.3,1.2,0.5c0.1,0.1,0.2,0.2,0.1,0.3c0,0.1-0.2,0.2-0.3,0.1l0,0c-0.4-0.1-0.8-0.2-1.2-0.3c-0.4-0.1-0.8-0.1-1.2-0.2
			c-0.8-0.1-1.6-0.2-2.4-0.2c-0.8,0-1.6,0.2-2.3,0.5c-0.7,0.3-1.4,0.7-1.9,1.3l0,0c-0.1,0.1-0.2,0.1-0.3,0
			C22.1,12.3,22,12.2,22.1,12.1z"/>
	</g>
	<g>
		<path class="st7" d="M22.4,15.6c0,0,1.5-3.2,9.1-1.2"/>
		<path class="st26" d="M22.2,15.5c0.5-0.9,1.2-1.3,2-1.7c0.8-0.3,1.7-0.5,2.5-0.5c0.8,0,1.7,0,2.5,0.1c0.8,0.1,1.6,0.3,2.4,0.6
			c0.2,0.1,0.2,0.2,0.2,0.4c-0.1,0.1-0.2,0.2-0.3,0.2l0,0c-0.8-0.1-1.6-0.2-2.4-0.3c-0.8-0.1-1.6-0.2-2.3-0.2
			c-0.8,0-1.6,0.1-2.3,0.3c-0.7,0.2-1.4,0.6-1.8,1.2l0,0c-0.1,0.1-0.3,0.2-0.4,0.1C22.2,15.8,22.1,15.6,22.2,15.5z"/>
	</g>
	<g>
		<path class="st7" d="M22.6,18.4c0,0,1.7-1.6,4.3-1.1"/>
		<path class="st26" d="M22.4,18.2c0.6-0.6,1.3-1,2.1-1.2c0.4-0.1,0.8-0.2,1.2-0.2c0.4,0,0.8,0.1,1.2,0.2c0.1,0,0.2,0.2,0.2,0.3
			c0,0.1-0.1,0.2-0.2,0.2l0,0c-0.7,0-1.4,0-2.1,0.2c-0.3,0.1-0.7,0.2-1,0.3c-0.3,0.1-0.7,0.3-0.9,0.5l0,0c-0.1,0.1-0.3,0.1-0.4-0.1
			C22.3,18.4,22.3,18.3,22.4,18.2z"/>
	</g>
</g>
</svg>
