<svg width="575" height="80" viewBox="0 0 575 80" fill="none" xmlns="http://www.w3.org/2000/svg">
<path d="M0 0 H575 V575 H0 Z" fill="#EAEDF2"/>
<g clip-path="url(#clip0_987_497551)">
<path d="M195.4 13.7C195.3 12.6 194.1 11.7 192.7 11.7C189.713 11.74 183.173 11.781 175.569 11.828H175.566C164.331 11.897 150.771 11.981 142.9 12.1C141.7 12.1 140.6 13 140.6 14.2C140.5 18 140.3 25.7 140.4 28.6C140.5 29.7 141.6 30.5 143 30.5C150.7 30.3 179.6 29.7 192 29.8C194.2 29.8 195.9 28.3 195.8 26.6C195.72 25.034 195.704 23.226 195.688 21.39C195.664 18.654 195.64 15.854 195.4 13.7ZM195.4 51C195.3 49.9 194.1 49 192.7 49C189.713 49.04 183.173 49.081 175.567 49.128H175.565C164.33 49.197 150.771 49.281 142.9 49.4C141.7 49.4 140.6 50.3 140.6 51.5C140.5 55.3 140.3 63 140.4 65.9C140.5 67 141.6 67.8 143 67.8C150.7 67.6 179.6 67 192 67.1C194.2 67.1 195.9 65.6 195.8 63.9C195.72 62.334 195.704 60.526 195.688 58.69C195.664 55.953 195.64 53.154 195.4 51ZM195.4 32.2C195.3 31.1 194.1 30.2 192.7 30.2C189.714 30.24 183.176 30.281 175.574 30.328H175.567C164.332 30.397 150.771 30.481 142.9 30.6C141.7 30.6 140.6 31.5 140.6 32.7C140.5 36.4 140.3 44.2 140.4 47.1C140.5 48.2 141.6 49 143 49C150.7 48.8 179.6 48.2 192 48.3C194.2 48.3 195.9 46.8 195.8 45.1C195.72 43.534 195.704 41.726 195.688 39.89C195.664 37.153 195.64 34.354 195.4 32.2ZM514.687 39.927C514.433 39.414 514.18 38.905 513.927 38.396L513.925 38.392L513.923 38.386L513.914 38.368L513.837 38.213C512.732 35.992 511.631 33.776 510.5 31.299C510.4 30.899 510.2 30.499 509.8 30.399C509.557 30.318 509.25 30.433 508.983 30.533L508.922 30.556C508.88 30.572 508.839 30.587 508.8 30.6C505.9 31.85 503.025 33.125 500.15 34.4C497.275 35.675 494.399 36.95 491.5 38.2L491.2 39.5C492.7 44.2 494.7 48.7 497 53C497.012 53.012 497.024 53.026 497.037 53.041C497.055 53.063 497.074 53.087 497.093 53.113C497.169 53.212 497.26 53.331 497.4 53.4C497.7 53.5 498 53.4 498.3 53.2C500.478 52.055 502.752 51.102 505.05 50.138C507.562 49.085 510.103 48.019 512.582 46.678C512.04 45.642 511.844 44.483 512.1 43.201C512.38 41.615 513.269 40.551 514.687 39.928V39.927ZM313.228 18.627C312.563 17.959 312.027 17.42 310 17.999C307.5 18.499 286.5 28.199 283.2 29.799C280.08 31.312 280.446 32.199 280.833 33.136C280.856 33.19 280.878 33.244 280.9 33.299C281.148 33.92 282.94 37.783 284.646 41.459L284.652 41.471L284.656 41.481C285.693 43.715 286.696 45.877 287.3 47.199C288.9 50.699 290.3 50.999 292.4 50.399C294.5 49.799 320.5 37.999 320.9 36.899C321.3 35.799 314.6 19.999 313.3 18.699L313.228 18.626V18.627ZM392.4 65.299C392.52 64.778 392.72 64.547 392.943 64.289C393.276 63.903 393.66 63.458 393.9 61.899C394.417 59.961 394.182 57.522 393.952 55.122C393.825 53.807 393.7 52.502 393.7 51.299C393.7 47.899 392.3 51.399 392.3 51.399C392.221 51.636 392.123 52.071 391.999 52.62C391.583 54.458 390.881 57.568 389.661 58.742C391.002 55.05 393.058 47.727 394.042 43.323C392.129 42.642 390.558 41.363 389.5 39.398C388.898 38.108 388.739 37.262 389.025 35.842C381.724 33.66 365.567 29.648 362.4 28.998C358.722 28.149 358.424 29.079 358.066 30.195C358.045 30.262 358.023 30.33 358 30.398C357.6 31.598 354.9 42.598 353.9 46.698C352.9 50.798 353.9 51.998 356.1 52.898C357.061 53.291 363.171 55.019 369.841 56.783C369.922 58.854 370.019 60.574 370.1 60.898C370.48 62.724 376.07 66.171 379.075 68.023C380.02 68.605 380.709 69.03 380.9 69.198C381.8 69.898 385 79.998 385 79.998H401.79C401.79 79.998 395.5 72.098 393.8 69.298C393 67.998 392.5 66.598 392.4 65.298V65.299Z" fill="white"/>
<path d="M326.972 31.19C326.761 31.083 326.446 30.975 326.13 30.868C325.709 30.761 325.407 30.653 325.407 30.224C324.354 30.01 323.153 30.01 322.1 30.224V30.287C322.102 30.674 322.102 30.873 321.602 30.975C319.391 31.619 317.917 33.121 317.285 35.373C316.548 38.055 317.285 40.415 318.97 42.56C320.865 44.92 323.392 46.1 326.34 45.993C329.078 45.993 331.5 44.491 332.553 41.702C333.184 40.2 333.079 38.698 332.658 37.197C331.71 34.301 329.815 32.37 326.972 31.19ZM93.9999 22.8H16.4999V29C16.4999 29.3 16.7999 29.6 17.0999 29.6H25.3999C25.6999 29.6 25.8999 29.9 25.8999 30.2V35.8C25.8999 36.1 25.5999 36.4 25.2999 36.4H16.9999C16.6999 36.4 16.3999 36.7 16.3999 37V43.2C16.3999 43.5 16.6999 43.8 16.9999 43.8H25.2999C25.5999 43.8 25.8999 44.1 25.8999 44.4V50C25.8999 50.3 25.5999 50.6 25.2999 50.6H16.9999C16.6999 50.6 16.3999 50.9 16.3999 51.2V57.6H93.4999C103.2 57.6 111.3 49.9 111.4 40.3C111.4 35.4 109.5 31.1 106.3 27.9C103.1 24.7 98.7999 22.8 93.9999 22.8ZM402.4 29.1C398.1 27.7 394.4 29.1 391.2 32C390.2 32.9 389.4 33.9 389.2 35.1C388.7 37 388.8 37.9 389.5 39.4C390.9 42 393.2 43.4 396 43.8C400.2 44.5 404.1 42.4 406.2 38.7C408.4 34.8 406.4 30.4 402.4 29.1ZM523.5 43.5C522.6 41.4 521 40.1 518.9 39.5C518.82 39.473 518.747 39.446 518.679 39.422C518.493 39.354 518.347 39.3 518.2 39.3C518 39.3 517.8 39.1 517.8 38.8C517.058 38.707 516.402 38.873 515.672 39.057L515.5 39.1C515.6 39.5 515.4 39.7 515 39.8C513.4 40.4 512.4 41.5 512.1 43.2C511.7 45.2 512.4 46.9 513.8 48.3C515.4 49.9 517.3 50.6 519.5 50.3C521.5 50 523.2 48.8 523.8 46.7C524.1 45.6 523.9 44.5 523.5 43.5Z" fill="#D4DAE4"/>
<path d="M217.655 45.243C216.807 45.062 215.953 44.958 215.079 44.938C214.89 44.934 214.734 45.083 214.73 45.271C214.725 45.459 214.874 45.616 215.063 45.62C215.893 45.639 216.705 45.738 217.513 45.91C217.944 46.008 218.09 45.329 217.655 45.243ZM197.609 66.505C197.891 66.156 198.04 65.736 198 65.3C197.8 60.8 198.3 51.5 198.4 50.4C198.449 49.721 197.791 49.3 196.975 49.093C197.214 48.748 197.337 48.337 197.3 47.9C197.1 43.3 197.6 33.6 197.7 32.5C197.746 31.855 197.156 31.444 196.399 31.227C197.056 30.837 197.463 30.188 197.4 29.5C197.2 25 197.7 15.7 197.8 14.6C197.464 8.782 186.48 11.448 182.5 10.95C173.629 11.022 161.232 11.065 152.3 11.1C149.6 11.1 147 11.2 144.3 11.2C142.331 11.2 140.652 11.685 140.219 13.801C140.004 16.85 138.516 29.347 141.455 30.343C140.852 30.74 140.412 31.359 140.219 32.301C139.728 36.94 139.488 42.025 140 46.6C140.157 48.015 140.933 48.72 141.974 49.053C141.186 49.368 140.593 49.959 140.347 51.057C139.848 54.596 139.845 58.455 139.834 62.057C135.602 59.512 132.856 56.994 130.542 54.748C127.506 51.406 117.021 42.156 117.217 51.944C117.175 53.627 117.381 55.891 116.557 57.281C114.227 60.114 108.426 56.23 105.123 54.504C117.075 45.545 113.289 26.014 98.8 22.3C94.917 21.171 80.119 21.889 75.9 21.7C68.35 21.75 57.275 21.8 46.2 21.85C35.126 21.9 24.05 21.95 16.5 22C16.2 22 16 22.2 16 22.5V29.5C16.2 29.8 16.5 30 16.8 30.1H25.2L25.4 30.2H25.1V35.9H16.8C16.336 35.895 15.761 36.355 15.8 36.9V43.4C15.9 43.9 16.4 44.3 16.9 44.3H25.2V50H17.2C17.033 49.979 16.977 49.91 16.7 50C16.5 50 16.2 50.2 16.1 50.4C16 50.5 15.9 50.7 15.9 50.8V57.5C15.9 57.8 16.1 58 16.4 58C27.016 58.141 44.602 58.232 59.357 58.308C65.588 58.34 71.316 58.37 75.8 58.4H92.9C96.942 58.536 100.924 57.434 104.257 55.132C108.85 57.781 117.607 62.986 118.14 55.012C118.498 53.224 117.421 49.194 119.451 48.559C122.863 48.65 126.401 52.066 129.043 54.656C132.047 57.579 134.701 60.166 139.886 63.228C140.009 64.682 139.969 66.885 141.245 67.666C139.936 67.802 139.2 67.947 139.2 68.099C139.2 68.699 139.8 69.699 145.8 69.999C151.416 70.3 167.684 69.999 175.7 69.999C192.7 69.999 206.5 69.099 206.5 68.099C206.5 67.328 205.786 66.735 197.609 66.504V66.505ZM98.5 55.7C94.983 57.043 79.923 56.162 76 56.4C58.844 56.509 31.946 56.602 17.1 56.793V50.799H25.5C26.046 50.801 26.502 50.344 26.5 49.799V44.299C26.651 43.9 26.318 43.244 25.8 43.099H17.2C17.1 43.099 17.1 42.999 17.1 42.999V36.799H25.1C25.267 36.82 25.323 36.889 25.6 36.799C25.8 36.799 26.1 36.599 26.2 36.399C26.596 36.482 26.326 30.37 26.4 30.199C26.4 29.799 26.3 29.499 25.9 28.999C25.8 28.899 25.7 28.799 25.5 28.799H17.1V22.906C32.337 23.102 61.065 23.2 76 23.2C78.006 23.234 94.343 23.095 95.9 23.3C100.413 23.763 104.659 26.023 107.4 29.7C114.63 38.801 109.592 52.782 98.5 55.7ZM140.9 27.1C140.706 22.824 140.889 18.548 141.083 14.273C141.47 12.05 145.891 12.585 148 12.5C155.399 12.421 165.854 12.307 173.3 12.3C177.903 12.241 182.263 12.297 186.887 12.117C194.235 11.62 195.722 12.131 195.235 19.275C194.855 22.348 196.693 27.864 193.1 29C191.303 29.499 189.117 29.201 187.2 29.2H181.1C170.138 29.383 154.957 29.508 143.138 29.77C141.896 29.588 140.964 28.964 140.9 27.1ZM140.9 45.6C140.706 41.324 140.889 37.048 141.083 32.772C141.471 30.55 145.891 31.085 148 31C155.399 30.921 165.854 30.807 173.3 30.8C177.903 30.741 182.263 30.797 186.887 30.617C189.777 30.425 194.251 30.127 194.9 32.4C195.631 34.976 195.02 38.231 195.27 41.012C195.848 46.85 194.276 48.199 188.782 47.744C187.751 47.656 182.245 47.719 181.1 47.701C171.695 47.807 157.473 48.04 148.1 48.251C145.452 48.022 141.077 49.624 140.9 45.601V45.6ZM193.9 66.2C192.308 67.09 189.63 66.61 187.7 66.6H181.4C170.855 66.713 156.083 66.976 145.5 67.2C143.376 67.297 141.183 67.614 140.9 64.7C140.411 60.479 140.879 56.017 141.089 51.736C141.525 49.36 145.767 49.966 147.9 50C157.611 49.864 169.486 49.831 179.201 49.75C181.908 49.675 184.299 49.793 187.057 49.602C189.762 49.41 193.7 49.129 194.8 50.7C195.661 52.03 195.542 54.646 195.45 56.68C195.084 59.657 196.677 64.461 193.9 66.2ZM259.9 49.814C259.835 49.637 259.638 49.547 259.462 49.612C258.584 49.936 257.713 50.246 256.854 50.539C256.675 50.6 256.58 50.794 256.641 50.972C256.702 51.15 256.896 51.245 257.074 51.185C257.939 50.89 258.815 50.578 259.698 50.252C259.875 50.187 259.965 49.991 259.9 49.814ZM240.307 57.066C239.467 56.878 238.626 56.631 237.791 56.313C237.615 56.246 237.418 56.334 237.351 56.51C237.284 56.686 237.372 56.883 237.548 56.95C238.416 57.28 239.288 57.537 240.158 57.731C240.587 57.833 240.74 57.155 240.307 57.065V57.066ZM220.78 34.268C220.873 34.104 220.816 33.896 220.652 33.803C219.849 33.346 219.05 32.995 218.179 32.744C217.998 32.692 217.809 32.796 217.757 32.977C217.705 33.158 217.81 33.347 217.991 33.399C218.803 33.633 219.552 33.961 220.315 34.396C220.479 34.489 220.687 34.432 220.78 34.268ZM259.579 53.781C259.297 53.888 258.928 54.044 258.493 54.227C258.264 54.289 258.041 54.485 258.153 54.741C258.257 54.998 258.553 54.978 258.757 54.857C259.192 54.674 259.553 54.521 259.821 54.42C260.237 54.269 259.991 53.619 259.579 53.782V53.781ZM222.479 47.035C221.683 46.631 220.904 46.279 220.132 45.985C219.955 45.918 219.758 46.006 219.691 46.182C219.624 46.358 219.713 46.555 219.889 46.622C220.635 46.906 221.391 47.248 222.171 47.643C222.562 47.849 222.877 47.229 222.479 47.035ZM211.142 32.992C211.098 32.809 210.913 32.697 210.73 32.742C210.02 32.916 209.275 33.138 208.509 33.407C208.332 33.47 208.238 33.664 208.301 33.842C208.363 34.02 208.558 34.113 208.736 34.05C209.481 33.788 210.205 33.572 210.892 33.404C211.075 33.359 211.187 33.174 211.142 32.991V32.992ZM212.492 45.117C212.048 45.291 210.958 45.109 210.968 45.779C211.246 46.368 212.116 45.747 212.598 45.791C213.036 45.728 212.929 45.042 212.492 45.117ZM215.85 32.665C215.734 31.995 214.734 32.368 214.2 32.259C213.798 32.347 212.766 32.06 212.721 32.702C212.883 33.299 213.8 32.834 214.2 32.941C214.744 32.819 215.653 33.296 215.85 32.664V32.665ZM206.361 34.272C205.673 34.584 204.981 34.933 204.295 35.319C204.131 35.411 204.073 35.62 204.166 35.784C204.258 35.948 204.466 36.006 204.63 35.914C205.298 35.538 205.972 35.198 206.643 34.894C206.814 34.816 206.89 34.614 206.812 34.442C206.735 34.27 206.532 34.194 206.361 34.272ZM255.858 55.291C255.096 55.577 254.254 55.872 253.346 56.151C253.166 56.206 253.065 56.397 253.12 56.577C253.175 56.757 253.366 56.858 253.546 56.803C254.47 56.52 255.326 56.22 256.098 55.93C256.515 55.781 256.271 55.129 255.858 55.291ZM242.59 41.378C242.195 41.504 241.917 41.578 241.372 41.704C241.189 41.746 241.073 41.928 241.115 42.112C241.349 42.719 242.378 42.062 242.718 42.053C243.218 41.992 243.074 41.226 242.59 41.377V41.378ZM243.491 54.303C243.68 54.299 243.83 54.144 243.826 53.955C243.669 53.309 242.562 53.752 242.141 53.562C241.954 53.54 241.784 53.673 241.761 53.86C241.864 54.559 242.91 54.207 243.491 54.303ZM238.908 42.786C239.349 42.751 239.284 42.059 238.844 42.107C238.066 42.181 237.202 42.218 236.288 42.183C236.099 42.176 235.941 42.323 235.934 42.511C235.927 42.699 236.073 42.858 236.262 42.865C237.21 42.901 238.104 42.863 238.908 42.786ZM245.544 57.533C244.677 57.561 243.796 57.542 242.908 57.465C242.72 57.449 242.554 57.588 242.538 57.775C242.522 57.963 242.661 58.128 242.849 58.144C243.766 58.223 244.674 58.243 245.566 58.214C246.008 58.206 245.987 57.511 245.544 57.532V57.533ZM235.412 55.201C234.672 54.792 233.936 54.28 233.23 53.815C233.074 53.711 232.862 53.753 232.757 53.91C232.653 54.067 232.696 54.279 232.853 54.383C233.57 54.858 234.325 55.379 235.078 55.796C235.46 56.018 235.801 55.412 235.412 55.201ZM229.014 50.999C228.649 50.749 228.264 51.328 228.637 51.568C229.312 52.016 230.012 52.485 230.741 52.973C230.898 53.078 231.11 53.036 231.215 52.879C231.319 52.722 231.278 52.51 231.121 52.406C230.392 51.918 229.691 51.448 229.014 51V50.999ZM229.154 40.533C229.372 39.914 228.339 39.746 228.01 39.332C227.524 39.099 227.03 38.165 226.503 38.578C226.219 39.187 227.248 39.455 227.59 39.87C228.055 40.101 228.665 41.008 229.154 40.534V40.533ZM254.65 51.623C254.594 51.443 254.403 51.342 254.223 51.398C253.315 51.68 252.429 51.94 251.57 52.175C251.388 52.225 251.281 52.412 251.331 52.594C251.381 52.776 251.568 52.883 251.75 52.833C252.617 52.596 253.511 52.334 254.425 52.05C254.605 51.994 254.706 51.803 254.65 51.623ZM249.304 53.103C249.263 52.919 249.08 52.804 248.896 52.845C247.937 53.061 247.031 53.235 246.19 53.364C246.004 53.393 245.876 53.567 245.905 53.753C245.933 53.939 246.107 54.067 246.293 54.039C247.153 53.908 248.075 53.73 249.046 53.511C249.23 53.47 249.345 53.287 249.304 53.103ZM250.783 56.836C249.946 57.026 249.074 57.188 248.177 57.31C247.991 57.335 247.86 57.507 247.885 57.694C247.91 57.881 248.082 58.012 248.269 57.986C249.188 57.861 250.079 57.695 250.934 57.502C251.366 57.411 251.214 56.732 250.783 56.837V56.836ZM224.716 48.271C224.339 48.041 223.984 48.639 224.369 48.859C225.06 49.267 225.774 49.71 226.516 50.185C226.675 50.287 226.886 50.24 226.987 50.081C227.089 49.922 227.042 49.711 226.884 49.61C226.137 49.132 225.416 48.685 224.716 48.272V48.271ZM158.1 23.275C161.209 23.247 160.934 19.403 158.1 19.128C155.399 19.174 155.399 23.23 158.1 23.275ZM158.1 20.275C159.356 20.491 159.748 22.101 158.1 22.128C156.9 22.088 156.899 20.315 158.1 20.275ZM67.115 41.326C67.115 41.867 66.976 42.284 66.698 42.576C66.428 42.861 66.058 43.004 65.591 43.004C65.124 43.004 64.754 42.862 64.484 42.576C64.213 42.284 64.078 41.867 64.078 41.326V37.96H62.839V41.513C62.839 42.061 62.945 42.529 63.157 42.917C63.376 43.304 63.672 43.597 64.045 43.794C64.425 43.991 64.853 44.09 65.328 44.09C65.686 44.09 66.022 44.021 66.337 43.882C66.659 43.736 66.918 43.538 67.116 43.29V44.003H68.366V37.961H67.116V41.327L67.115 41.326ZM41.85 36.688C41.448 36.483 40.954 36.381 40.37 36.381H37.738V44.002H38.988V40.91H40.37C40.999 40.91 41.514 40.804 41.916 40.592C42.318 40.373 42.611 40.091 42.793 39.748C42.975 39.405 43.067 39.039 43.067 38.651C43.067 38.227 42.965 37.843 42.76 37.5C42.563 37.156 42.259 36.886 41.85 36.688ZM41.433 39.572C41.199 39.784 40.844 39.89 40.369 39.89H38.987V37.401H40.369C41.312 37.401 41.783 37.818 41.783 38.651C41.783 39.046 41.666 39.353 41.432 39.572H41.433ZM224.511 37.427C224.852 37.707 225.286 37.164 224.936 36.893C224.183 36.293 223.501 35.756 222.861 35.279C222.71 35.167 222.496 35.198 222.384 35.349C222.271 35.5 222.303 35.714 222.454 35.826C223.084 36.295 223.759 36.826 224.511 37.426V37.427ZM52.712 38.245C52.244 37.989 51.722 37.861 51.144 37.861C50.566 37.861 50.044 37.989 49.576 38.245C49.108 38.501 48.739 38.866 48.469 39.341C48.198 39.816 48.063 40.361 48.063 40.975C48.063 41.596 48.195 42.145 48.458 42.62C48.721 43.088 49.083 43.453 49.544 43.717C50.005 43.973 50.52 44.101 51.09 44.101C51.668 44.101 52.194 43.973 52.669 43.717C53.152 43.454 53.532 43.085 53.809 42.609C54.087 42.134 54.226 41.589 54.226 40.975C54.226 40.361 54.091 39.816 53.82 39.341C53.549 38.866 53.18 38.5 52.712 38.245ZM52.679 42.094C52.504 42.401 52.273 42.631 51.988 42.785C51.71 42.939 51.41 43.015 51.089 43.015C50.585 43.015 50.164 42.839 49.828 42.489C49.499 42.131 49.335 41.626 49.335 40.976C49.335 40.537 49.415 40.168 49.576 39.869C49.737 39.562 49.953 39.332 50.223 39.178C50.501 39.024 50.801 38.948 51.122 38.948C51.443 38.948 51.743 39.025 52.021 39.178C52.299 39.332 52.522 39.562 52.69 39.869C52.858 40.169 52.942 40.538 52.942 40.976C52.942 41.414 52.854 41.788 52.679 42.095V42.094ZM59.99 38.804C59.763 38.519 59.456 38.292 59.069 38.124C58.689 37.949 58.301 37.861 57.907 37.861C57.373 37.861 56.887 37.993 56.449 38.256C56.018 38.512 55.674 38.874 55.418 39.342C55.169 39.81 55.045 40.347 55.045 40.954C55.045 41.561 55.169 42.105 55.418 42.588C55.674 43.063 56.017 43.436 56.449 43.707C56.888 43.97 57.37 44.102 57.896 44.102C58.364 44.102 58.777 44.007 59.135 43.817C59.501 43.627 59.786 43.386 59.99 43.093V44.003H61.251V35.888H59.99V38.805V38.804ZM59.727 42.072C59.559 42.379 59.336 42.613 59.058 42.774C58.78 42.935 58.48 43.015 58.159 43.015C57.845 43.015 57.545 42.935 57.26 42.774C56.982 42.606 56.756 42.365 56.58 42.05C56.412 41.736 56.328 41.37 56.328 40.953C56.328 40.536 56.412 40.178 56.58 39.878C56.755 39.571 56.982 39.341 57.26 39.187C57.538 39.026 57.838 38.946 58.159 38.946C58.48 38.946 58.78 39.026 59.058 39.187C59.336 39.348 59.559 39.582 59.727 39.889C59.903 40.196 59.99 40.558 59.99 40.975C59.99 41.392 59.902 41.757 59.727 42.072ZM45.51 38.837V37.96H44.26V44.002H45.51V40.822C45.51 40.208 45.634 39.777 45.883 39.528C46.139 39.279 46.512 39.155 47.001 39.155H47.319V37.861C46.902 37.861 46.54 37.949 46.233 38.124C45.933 38.292 45.692 38.53 45.509 38.837H45.51ZM231.065 41.836C231.921 42.167 232.781 42.403 233.624 42.566C233.809 42.602 233.988 42.481 234.023 42.296C234.059 42.111 233.938 41.932 233.753 41.896C232.946 41.74 232.126 41.513 231.311 41.199C230.901 41.034 230.649 41.682 231.065 41.836ZM201.807 37.772C202.109 37.411 203.06 37.207 202.804 36.634C202.347 36.185 201.81 37.028 201.392 37.23C201.037 37.494 201.459 38.046 201.807 37.771V37.772ZM320.499 35.101C320.499 35.001 320.299 34.901 320.199 35.001C320.099 35.001 320.099 35.201 320.099 35.301C320.827 37.002 321.897 38.619 322.399 40.501C322.599 40.901 322.699 41.001 323.199 41.001C323.799 41.001 324.199 40.701 324.699 40.301C325.103 39.965 329.638 36.42 329.799 36.101C329.999 36.001 330.099 35.801 329.899 35.601C329.699 35.501 329.599 35.501 329.399 35.601C327.189 36.684 325.331 38.246 323.299 39.601C323.172 39.583 323.178 39.496 322.999 39.501C322.299 38.101 321.499 36.801 320.699 35.501C320.699 35.301 320.599 35.201 320.499 35.101ZM556.108 28.448C556.896 28.069 557.724 27.823 558.535 27.741C558.975 27.704 558.907 27.011 558.467 27.062C557.568 27.153 556.663 27.423 555.812 27.833C555.643 27.915 555.571 28.119 555.653 28.288C555.735 28.458 555.938 28.529 556.108 28.447V28.448ZM552.037 37.149C552.209 37.072 552.286 36.87 552.21 36.698C551.843 35.876 551.705 35.057 551.748 34.269C551.779 33.828 551.083 33.789 551.066 34.232C551.05 34.791 551.145 37.279 552.037 37.149ZM552.439 31.878C552.83 31.144 553.367 30.468 554.001 29.883C554.139 29.755 554.148 29.539 554.02 29.401C553.892 29.263 553.676 29.254 553.538 29.382C552.854 30.014 552.268 30.75 551.837 31.557C551.624 31.943 552.237 32.272 552.439 31.878ZM515.501 44.122L515.499 44.12C515.298 43.85 515.094 43.579 514.899 43.301C514.899 43.201 514.799 43.101 514.699 43.001C514.438 42.888 514.28 43.043 514.299 43.301C515.039 44.582 515.989 45.843 516.499 47.201C516.599 47.501 516.699 47.501 517.099 47.501C518.821 46.694 519.928 44.888 521.399 43.701C521.499 43.501 521.699 43.401 521.799 43.201C521.899 43.101 521.899 42.901 521.799 42.801C521.599 42.701 521.499 42.701 521.399 42.801C519.74 43.675 518.52 45.124 516.999 46.301C516.999 46.201 516.899 46.201 516.899 46.301C516.539 45.509 516.024 44.821 515.502 44.124V44.122H515.501ZM477.673 56.442C478.413 56.199 479.184 55.914 479.979 55.58C480.153 55.507 480.234 55.307 480.161 55.133C480.089 54.959 479.889 54.878 479.715 54.95C478.938 55.276 478.184 55.555 477.46 55.793C477.281 55.852 477.184 56.045 477.242 56.224C477.301 56.403 477.494 56.5 477.673 56.441V56.442ZM78.049 36.456H76.788V37.958H76.075V38.978H76.788V42.322C76.788 42.914 76.938 43.342 77.238 43.605C77.538 43.868 77.969 44 78.532 44H79.519V42.958H78.751C78.495 42.958 78.312 42.91 78.203 42.815C78.101 42.713 78.049 42.548 78.049 42.322V38.978H79.518V37.958H78.049V36.456ZM158.1 41.774C161.209 41.746 160.934 37.902 158.1 37.627C155.399 37.673 155.399 41.729 158.1 41.774ZM158.1 38.774C159.356 38.99 159.748 40.6 158.1 40.627C156.9 40.587 156.899 38.814 158.1 38.774ZM147.4 22.6C149.812 22.558 149.417 19.835 147.4 19.6C145.449 19.643 145.449 22.557 147.4 22.6ZM152.4 41.2C154.812 41.158 154.417 38.435 152.4 38.2C150.449 38.243 150.449 41.157 152.4 41.2ZM152.4 56.1C150.449 56.143 150.449 59.057 152.4 59.1C154.812 59.058 154.417 56.335 152.4 56.1ZM152.4 22.7C154.812 22.658 154.417 19.935 152.4 19.7C150.449 19.743 150.449 22.657 152.4 22.7ZM147.4 56.1C145.449 56.143 145.449 59.057 147.4 59.1C149.79 59.044 149.423 56.44 147.4 56.1ZM72.559 38.912C72.925 38.912 73.228 38.996 73.469 39.164C73.71 39.332 73.886 39.566 73.995 39.866H75.344C75.176 39.223 74.851 38.729 74.368 38.386C73.893 38.035 73.29 37.86 72.559 37.86C71.982 37.86 71.47 37.988 71.024 38.244C70.578 38.5 70.227 38.865 69.971 39.34C69.722 39.808 69.598 40.353 69.598 40.974C69.598 41.595 69.722 42.144 69.971 42.619C70.227 43.087 70.578 43.452 71.024 43.716C71.47 43.972 71.982 44.1 72.559 44.1C73.275 44.1 73.875 43.921 74.357 43.563C74.84 43.197 75.169 42.708 75.344 42.094H73.995C73.761 42.73 73.282 43.048 72.558 43.048C72.046 43.048 71.637 42.865 71.33 42.5C71.03 42.135 70.88 41.626 70.88 40.976C70.88 40.326 71.03 39.821 71.33 39.463C71.637 39.097 72.046 38.915 72.558 38.915L72.559 38.912ZM147.4 41.1C149.808 41.09 149.41 38.24 147.4 38.1C145.449 38.143 145.449 41.057 147.4 41.1ZM80.67 44H81.92V37.958H80.67V44ZM158.1 55.526C155.399 55.572 155.399 59.627 158.1 59.673C161.209 59.645 160.934 55.801 158.1 55.526ZM158.924 58.278C157.489 59.314 156.281 56.977 158.1 56.673C158.699 56.677 159.743 57.789 158.924 58.278ZM81.306 35.556C81.079 35.556 80.889 35.633 80.736 35.786C80.583 35.939 80.506 36.13 80.506 36.356C80.506 36.582 80.583 36.773 80.736 36.926C80.89 37.08 81.08 37.156 81.306 37.156C81.525 37.156 81.712 37.079 81.865 36.926C82.019 36.772 82.095 36.582 82.095 36.356C82.095 36.13 82.018 35.939 81.865 35.786C81.712 35.633 81.525 35.556 81.306 35.556ZM264.613 47.581C263.76 47.939 262.903 48.287 262.048 48.624C261.873 48.693 261.787 48.891 261.856 49.067C261.925 49.242 262.123 49.328 262.299 49.259C263.158 48.92 264.019 48.57 264.877 48.21C265.288 48.045 265.019 47.403 264.613 47.581ZM87.805 38.242C87.337 37.986 86.814 37.858 86.237 37.858C85.66 37.858 85.137 37.986 84.669 38.242C84.201 38.498 83.832 38.863 83.562 39.338C83.291 39.813 83.156 40.358 83.156 40.972C83.156 41.593 83.288 42.142 83.551 42.617C83.814 43.085 84.176 43.45 84.637 43.714C85.098 43.97 85.613 44.098 86.183 44.098C86.761 44.098 87.287 43.97 87.762 43.714C88.244 43.451 88.625 43.082 88.902 42.606C89.18 42.131 89.319 41.586 89.319 40.972C89.319 40.358 89.184 39.813 88.913 39.338C88.642 38.863 88.273 38.497 87.805 38.242ZM87.772 42.091C87.597 42.398 87.366 42.628 87.081 42.782C86.803 42.936 86.503 43.012 86.182 43.012C85.678 43.012 85.257 42.836 84.921 42.486C84.592 42.128 84.428 41.623 84.428 40.973C84.428 40.534 84.508 40.165 84.669 39.866C84.83 39.559 85.046 39.329 85.316 39.175C85.594 39.021 85.893 38.945 86.215 38.945C86.537 38.945 86.836 39.022 87.114 39.175C87.392 39.329 87.615 39.559 87.783 39.866C87.951 40.166 88.035 40.535 88.035 40.973C88.035 41.411 87.947 41.785 87.772 42.092V42.091ZM94.874 38.154C94.501 37.957 94.077 37.858 93.602 37.858C93.244 37.858 92.904 37.927 92.582 38.066C92.268 38.205 92.008 38.399 91.803 38.647V37.956H90.553V43.998H91.803V40.62C91.803 40.079 91.938 39.666 92.209 39.381C92.487 39.089 92.86 38.942 93.328 38.942C93.796 38.942 94.165 39.088 94.435 39.381C94.706 39.666 94.841 40.079 94.841 40.62V43.998H96.08V40.434C96.08 39.886 95.974 39.418 95.762 39.03C95.55 38.643 95.254 38.35 94.874 38.153V38.154ZM574.159 44.831C573.371 44.971 572.557 45.078 571.722 45.144C571.534 45.159 571.394 45.323 571.409 45.511C571.424 45.699 571.588 45.839 571.776 45.824C572.634 45.756 573.469 45.646 574.278 45.502C574.714 45.431 574.593 44.747 574.159 44.83V44.831ZM512.34 53.993C511.841 53.916 511.081 53.127 510.686 53.663C510.567 54.325 511.67 54.333 512.082 54.624C512.489 54.797 512.753 54.154 512.34 53.992V53.993ZM517.176 55.749C516.372 55.495 515.56 55.219 514.74 54.921C514.563 54.857 514.367 54.948 514.302 55.125C514.238 55.302 514.329 55.498 514.506 55.562C515.336 55.863 516.157 56.143 516.97 56.4C517.389 56.539 517.6 55.877 517.176 55.749ZM490.554 47.461C490.296 47.884 489.344 48.249 489.689 48.796C490.232 49.162 490.634 48.21 491.044 47.937C491.356 47.624 490.859 47.139 490.554 47.461ZM522.167 57.081C521.341 56.902 520.505 56.7 519.659 56.473C519.477 56.424 519.29 56.532 519.241 56.714C519.192 56.896 519.3 57.083 519.482 57.132C520.339 57.361 521.185 57.566 522.022 57.747C522.453 57.847 522.601 57.168 522.167 57.08V57.081ZM532.387 58.188C531.544 58.193 530.687 58.172 529.815 58.126C529.627 58.116 529.466 58.26 529.456 58.448C529.446 58.636 529.59 58.797 529.779 58.807C530.663 58.854 531.534 58.875 532.391 58.871C532.58 58.87 532.731 58.716 532.73 58.528C532.729 58.34 532.576 58.188 532.387 58.189V58.188ZM524.499 43.798C523.594 41.043 520.788 38.624 517.799 38.798C517.799 39.098 517.899 39.298 518.199 39.298C524.294 40.201 526.626 49.202 519.499 50.298C513.554 51.338 508.585 42.82 514.939 39.821C515.242 39.738 515.505 39.61 515.522 39.346L515.486 39.264C515.495 39.212 515.499 39.157 515.499 39.098C515.463 39.08 515.427 39.062 515.391 39.046C514.576 37.183 513.679 35.188 512.992 33.66C512.422 32.391 512 31.452 511.899 31.199C511.885 31.151 511.836 31.138 511.815 31.096C511.563 30.493 510.908 30.055 510.118 30.055C510.045 30.055 509.987 30.091 509.917 30.101C509.046 30.005 508.008 30.556 507.239 30.956L491.399 37.898L491.057 38.087C490.92 38.197 490.804 38.312 490.712 38.501C490.603 38.848 490.651 39.095 490.705 39.411C491.56 42.945 493.136 46.36 494.699 49.698C495.317 50.918 495.768 52.853 496.834 53.557C497.028 53.872 497.583 53.982 497.922 53.823C501.678 52.811 507.354 49.751 512.217 47.431C515.516 53.758 526.735 51.864 524.499 43.798ZM491.599 38.598C492.153 38.367 509.254 30.937 509.248 31.019C509.449 31.066 509.66 31.184 509.9 31.404C509.134 34.017 507.052 41.591 503.499 40.999C499.478 40.397 495.496 39.412 491.483 38.641C491.52 38.631 491.558 38.617 491.599 38.599V38.598ZM504.826 49.791C503.33 50.454 501.828 51.009 500.375 51.781C499.474 52.281 498.135 53.025 497.399 52.698C497.099 52.498 496.399 50.898 496.299 50.498C496.099 50.148 495.924 49.774 495.75 49.399H495.749C494.151 46.271 492.91 43.038 491.82 39.672C494.791 40.307 497.654 40.743 500.618 41.501C502.226 41.949 504.134 42.48 505.299 41.897C507.971 39.916 509.46 35.789 510.518 32.641C511.439 34.862 512.831 37.413 513.886 39.572C511.458 41.077 510.756 43.991 511.82 46.607C509.545 47.781 507.187 48.785 504.826 49.79V49.791ZM487.904 49.926C487.269 50.458 486.634 50.951 486.002 51.408C485.849 51.518 485.815 51.732 485.925 51.884C486.036 52.037 486.249 52.071 486.402 51.961C487.047 51.495 487.695 50.992 488.342 50.449C488.684 50.17 488.239 49.636 487.904 49.926ZM527.25 57.914C526.411 57.822 525.561 57.705 524.699 57.563C524.513 57.532 524.337 57.658 524.307 57.844C524.276 58.03 524.402 58.205 524.588 58.236C525.462 58.38 526.324 58.498 527.175 58.592C527.613 58.647 527.691 57.956 527.25 57.914ZM484.357 57.888C483.605 58.313 482.85 58.703 482.093 59.059C481.923 59.139 481.85 59.342 481.93 59.513C482.01 59.683 482.213 59.757 482.384 59.677C483.156 59.314 483.926 58.916 484.693 58.483C484.857 58.39 484.915 58.182 484.822 58.018C484.73 57.854 484.522 57.796 484.357 57.889V57.888ZM469.776 62.145C468.925 62.194 468.072 62.212 467.22 62.203C467.032 62.201 466.877 62.352 466.875 62.54C466.873 62.728 467.024 62.883 467.213 62.885C468.08 62.894 468.948 62.875 469.815 62.826C470.003 62.815 470.147 62.654 470.136 62.466C470.126 62.278 469.965 62.134 469.776 62.145ZM475.145 56.448C474.284 56.655 473.492 56.803 472.785 56.909C472.599 56.937 472.47 57.111 472.498 57.297C472.526 57.483 472.7 57.612 472.886 57.584C473.611 57.475 474.423 57.324 475.305 57.112C475.736 57.015 475.575 56.339 475.145 56.449V56.448ZM470.396 57.148C469.854 57.169 469.623 57.172 469.22 57.157C468.741 57.129 468.758 57.879 469.234 57.841C469.637 57.854 469.881 57.852 470.427 57.83C470.869 57.816 470.838 57.122 470.396 57.148ZM537.517 57.84C536.681 57.95 535.828 58.036 534.958 58.094C534.77 58.107 534.628 58.269 534.641 58.457C534.653 58.645 534.816 58.787 535.004 58.775C535.888 58.716 536.756 58.629 537.606 58.517C538.046 58.466 537.956 57.776 537.517 57.841V57.84ZM487.601 55.819C487.258 56.209 486.204 56.403 486.436 57.027C486.54 57.184 486.751 57.227 486.908 57.123C487.254 56.761 488.332 56.522 488.077 55.899C487.967 55.746 487.754 55.71 487.601 55.819ZM479.743 60.054C478.937 60.36 478.128 60.629 477.319 60.865C477.138 60.918 477.034 61.107 477.086 61.288C477.139 61.469 477.328 61.573 477.509 61.52C478.336 61.279 479.162 61.004 479.985 60.692C480.401 60.542 480.155 59.891 479.743 60.054ZM482.213 54.534C482.917 54.172 483.633 53.77 484.357 53.325C484.517 53.226 484.567 53.016 484.469 52.856C484.37 52.696 484.16 52.645 483.999 52.744C483.291 53.18 482.59 53.573 481.901 53.927C481.504 54.123 481.822 54.742 482.213 54.534ZM474.84 61.482C474.001 61.656 473.161 61.797 472.321 61.906C472.134 61.93 472.002 62.101 472.026 62.288C472.051 62.475 472.222 62.607 472.409 62.582C473.266 62.47 474.123 62.327 474.979 62.149C475.163 62.111 475.282 61.93 475.243 61.745C475.205 61.561 475.024 61.442 474.84 61.481V61.482ZM569.269 45.211C568.468 45.193 567.652 45.133 566.824 45.025C566.637 45.001 566.466 45.132 566.442 45.319C566.417 45.506 566.549 45.677 566.736 45.701C567.589 45.812 568.429 45.874 569.253 45.893C569.695 45.91 569.712 45.215 569.269 45.211ZM564.16 31.453C563.579 31.767 564.215 32.57 564.16 33.14C564.352 33.602 563.97 34.6 564.607 34.728C564.796 34.724 564.945 34.569 564.942 34.38C564.925 33.482 564.79 32.534 564.575 31.697C564.528 31.515 564.342 31.405 564.159 31.453H564.16ZM564.443 36.632C564.258 36.598 564.08 36.721 564.046 36.906C563.9 37.706 563.68 38.527 563.388 39.358C563.325 39.536 563.419 39.73 563.596 39.793C563.774 39.855 563.969 39.762 564.031 39.584C564.335 38.721 564.564 37.866 564.717 37.028C564.751 36.843 564.628 36.665 564.443 36.631V36.632ZM564.412 44.577C563.601 44.395 562.787 44.107 561.959 43.85C562.185 43.238 563.405 42.047 562.845 41.547C562.677 41.462 562.472 41.53 562.387 41.698C562.015 42.437 561.589 43.177 561.111 43.913C560.884 44.242 561.365 44.628 561.637 44.341C562.362 44.876 563.426 44.967 564.251 45.24C564.679 45.35 564.844 44.675 564.412 44.577ZM578.91 43.543C578.167 43.813 577.382 44.065 576.56 44.288C576.378 44.337 576.271 44.525 576.32 44.707C576.37 44.889 576.557 44.996 576.739 44.947C577.581 44.718 578.384 44.46 579.143 44.184C579.56 44.039 579.324 43.385 578.91 43.543ZM542.553 56.827C541.74 57.049 540.906 57.246 540.053 57.417C539.868 57.454 539.749 57.634 539.786 57.818C539.823 58.003 540.002 58.123 540.187 58.086C541.056 57.912 541.904 57.711 542.733 57.485C543.161 57.375 542.978 56.704 542.553 56.827ZM583.396 41.503C582.748 41.861 582.009 42.238 581.191 42.611C581.02 42.689 580.944 42.891 581.022 43.063C581.1 43.234 581.302 43.31 581.474 43.232C582.309 42.852 583.063 42.466 583.725 42.101C584.115 41.894 583.781 41.284 583.396 41.503ZM586.966 39.583C586.777 39.342 586.497 39.488 586.315 39.658C586.143 39.898 585.128 40.175 585.408 40.7C585.853 41.17 586.517 40.241 586.84 40.117C587.029 40.009 587.11 39.762 586.966 39.583ZM555.597 40.384C554.942 39.9 554.204 39.337 553.653 38.762C553.522 38.627 553.306 38.624 553.171 38.755C553.036 38.886 553.033 39.102 553.164 39.237C553.743 39.841 554.506 40.427 555.193 40.934C555.546 41.201 555.958 40.641 555.597 40.384ZM551.943 52.739C551.229 53.187 550.486 53.614 549.716 54.019C549.549 54.107 549.485 54.313 549.572 54.48C549.66 54.647 549.866 54.711 550.033 54.623C550.819 54.21 551.576 53.774 552.305 53.317C552.683 53.088 552.314 52.498 551.943 52.739ZM547.396 55.13C546.622 55.466 545.825 55.778 545.004 56.066C544.826 56.128 544.733 56.323 544.795 56.501C544.857 56.679 545.052 56.772 545.23 56.71C546.066 56.417 546.879 56.098 547.667 55.756C548.074 55.587 547.8 54.948 547.396 55.13ZM556.06 49.682C555.427 50.236 554.76 50.775 554.06 51.295C553.908 51.407 553.877 51.621 553.989 51.772C554.101 51.923 554.315 51.955 554.466 51.843C555.181 51.312 555.863 50.762 556.509 50.195C556.846 49.909 556.388 49.385 556.06 49.682ZM559.607 45.989C559.085 46.641 558.521 47.283 557.916 47.912C557.785 48.048 557.789 48.264 557.925 48.394C558.061 48.525 558.277 48.52 558.408 48.385C559.027 47.741 559.604 47.083 560.14 46.416C560.421 46.075 559.879 45.64 559.607 45.989ZM559.96 43.38C560.042 43.21 559.97 43.006 559.801 42.925C559.082 42.579 558.359 42.189 557.635 41.75C557.474 41.652 557.264 41.704 557.166 41.865C557.069 42.026 557.12 42.236 557.281 42.334C558.024 42.784 558.766 43.185 559.505 43.54C559.675 43.622 559.879 43.55 559.96 43.38ZM562.886 29.581C562.996 29.733 563.21 29.767 563.362 29.657C563.908 28.883 561.78 27.647 561.24 27.425C560.833 27.251 560.568 27.893 560.98 28.056C561.699 28.352 562.353 28.846 562.886 29.581ZM454.575 60.306C453.749 60.084 452.926 59.846 452.105 59.595C451.925 59.54 451.734 59.641 451.679 59.821C451.624 60.001 451.725 60.192 451.905 60.247C452.733 60.5 453.564 60.74 454.398 60.964C454.822 61.085 455.005 60.414 454.575 60.305V60.306ZM354.395 63.086C353.63 63.492 352.872 63.876 352.119 64.239C351.949 64.321 351.878 64.525 351.96 64.694C352.041 64.864 352.245 64.935 352.415 64.853C353.176 64.487 353.943 64.098 354.715 63.688C355.108 63.487 354.783 62.872 354.395 63.086ZM349.8 65.295C349.004 65.637 348.216 65.953 347.436 66.246C347.259 66.312 347.17 66.509 347.236 66.685C347.302 66.861 347.498 66.951 347.675 66.885C348.465 66.589 349.264 66.268 350.069 65.922C350.242 65.848 350.323 65.647 350.248 65.474C350.174 65.301 349.973 65.221 349.8 65.295ZM358.809 60.529C358.076 60.988 357.347 61.428 356.623 61.848C356.46 61.943 356.405 62.151 356.499 62.314C356.594 62.477 356.803 62.532 356.966 62.438C357.697 62.014 358.432 61.571 359.171 61.107C359.549 60.878 359.18 60.288 358.809 60.529ZM403.699 33.296C402.674 33.815 398.431 36.793 397.399 37.496C395.805 38.792 395.834 36.943 395.189 35.844C394.664 35.093 394.472 32.975 393.299 33.296C392.899 33.496 392.699 33.896 392.999 34.496C393.699 36.196 394.399 37.796 395.199 39.396C395.299 39.596 395.499 39.896 395.899 39.996C396.312 40.208 396.693 39.843 397.099 39.696C399.476 38.014 401.964 36.205 404.399 34.596C405.445 34.031 404.678 32.676 403.699 33.296ZM401.699 27.896C396.333 26.611 389.831 29.689 387.642 34.801C380.926 32.891 374.253 31.4 367.499 29.696C364.967 29.255 361.522 27.729 358.999 28.396C358.017 28.775 357.893 30.022 357.599 30.896L356.699 34.496L354.899 41.796C354.407 44.378 353.167 47.571 353.199 50.196C353.102 55.075 365.535 56.113 369.356 57.621C369.394 58.513 369.447 59.404 369.499 60.296C369.599 60.496 369.599 60.697 369.599 60.997C370.187 62.537 371.545 63.527 372.799 64.497C375.094 66.152 378.017 67.982 380.399 69.497C380.651 69.736 380.844 69.933 380.999 70.297C382.34 73.064 383.398 77.096 384.499 79.997H384.999C385.092 79.713 385.116 79.095 385.099 78.797C384.061 75.8 382.962 72.041 381.599 69.197C381.599 69.097 381.399 68.897 381.299 68.897C378.761 67.267 375.856 65.665 373.499 63.797C372.426 62.965 371.167 62.102 370.699 60.797C370.329 57.237 370.42 53.59 370.299 49.997C370.301 49.356 370.243 48.162 370.499 47.597C370.699 47.297 370.899 46.997 371.099 46.897C371.27 46.902 371.494 47.198 371.58 47.36L372.999 57.197C372.999 57.297 373.099 57.397 373.199 57.297C373.299 57.297 373.399 57.197 373.399 57.097L372.267 47.289C372.353 46.329 371.527 43.2 373.393 44.033L375.999 56.097C375.98 56.437 376.471 56.305 376.399 56.097L374.044 43.832C374.286 43.106 373.71 40.77 375.099 41.397C375.989 42.01 376.279 43.69 376.748 44.677L379.499 54.797C379.527 54.968 379.86 54.936 379.799 54.697L377.384 44.745C377.461 44.645 377.499 44.521 377.499 44.397C377.399 43.997 377.399 43.497 377.599 43.197C379.022 41.86 380.67 47.493 381.149 48.497C382.456 51.26 385.35 62.021 389.698 59.097C391.147 57.14 391.649 54.723 392.498 52.497H392.499C392.789 51.804 392.971 51.225 393.366 50.661C393.28 54.569 394.633 58.679 393.598 62.497C393.445 63.638 392.488 64.228 392.298 65.397C392.452 66.933 392.993 68.37 393.798 69.697C395.228 71.974 399.016 77.256 400.621 79.489L401.498 79.997C401.998 79.997 402.258 79.918 402.198 79.797C400.112 77.092 398.091 74.47 396.179 71.702V71.699C394.813 69.774 393.536 67.835 393.207 65.458C395.076 62.392 395.281 58.808 394.843 55.297V55.294C394.622 53.442 394.777 51.885 394.398 49.997C394.298 49.897 394.298 49.797 394.198 49.697C394.198 49.597 394.098 49.497 393.998 49.497C393.898 49.397 393.798 49.397 393.698 49.397C393.624 49.416 393.56 49.438 393.504 49.462C393.881 48.026 394.242 46.587 394.583 45.142C406.225 48.201 414.706 31.81 401.698 27.897L401.699 27.896ZM370.599 46.196C369.048 46.98 369.201 48.682 369.199 50.097C369.176 52 369.249 53.902 369.303 55.805C365.89 54.888 362.501 54.016 359.099 52.995C357.813 52.536 356.096 52.42 354.957 51.624C357.935 48.565 361.63 46.142 365.299 43.995C365.399 43.995 365.399 43.795 365.399 43.595C365.299 43.495 365.199 43.395 365.099 43.495C361.299 45.594 357.475 47.933 354.301 50.899C353.12 48.261 354.956 44.691 355.399 41.995C356.242 38.76 357.602 32.677 358.548 29.526C362.171 35.242 365.33 41.776 371.16 45.597C371.165 45.8 371.176 46.002 371.191 46.205C370.986 46.146 370.776 46.135 370.599 46.194V46.196ZM376.865 42.749C376.402 41.648 375.419 40.041 373.999 40.596C373.004 41.212 373.089 42.17 373.037 43.115C372.185 42.814 371.268 43.698 371.237 44.438C365.799 40.708 362.477 34.496 358.673 29.253C359.902 28.034 362.07 29.052 363.599 29.297L367.199 30.197C373.775 31.852 380.858 33.702 387.396 35.659C387.045 37.207 387.401 39.067 388.355 40.657C385.475 41.571 382.579 42.513 379.704 43.419C379.201 42.411 377.677 41.628 376.865 42.751V42.749ZM392.899 46.896C391.853 50.821 390.744 55.193 389.161 58.97C384.635 59.64 382.223 47.56 380.218 44.29C382.861 43.418 386.2 42.307 388.769 41.285C389.913 42.867 391.509 43.925 393.441 44.728L392.899 46.897V46.896ZM406.199 38.696C404.099 42.396 400.199 44.496 395.999 43.796C392.367 43.404 388.288 40.099 388.956 36.117L388.972 36.122C389.018 35.848 389.082 35.554 389.164 35.23H389.162C390.968 30.173 397.254 27.35 402.399 29.096C406.399 30.396 408.399 34.796 406.199 38.696ZM464.663 62.094C463.813 62.032 462.963 61.945 462.115 61.835C461.928 61.811 461.757 61.943 461.733 62.129C461.708 62.316 461.84 62.487 462.027 62.511C462.888 62.623 463.75 62.711 464.614 62.774C465.054 62.812 465.106 62.119 464.663 62.094ZM362.004 58.416C361.663 58.793 360.619 58.993 360.857 59.611C361.342 60.067 361.924 59.168 362.394 58.977C362.76 58.73 362.364 58.159 362.004 58.417V58.416ZM379.199 57.896C378.899 57.996 378.699 57.996 378.399 58.096C378.299 58.196 378.299 58.296 378.399 58.396C378.989 58.412 379.897 58.325 379.899 57.496H379.799C379.599 57.696 379.399 57.796 379.199 57.896ZM278.222 40.804C277.856 41.17 276.724 41.317 276.911 41.972C277.39 42.464 278.085 41.544 278.576 41.388C278.957 41.164 278.597 40.569 278.222 40.804ZM274.621 42.849C273.824 43.275 273.003 43.7 272.163 44.12C271.995 44.204 271.927 44.409 272.011 44.578C272.095 44.747 272.3 44.815 272.469 44.73C273.314 44.307 274.14 43.88 274.943 43.45C275.335 43.248 275.008 42.634 274.621 42.848V42.849ZM321.563 47.766C320.463 49.063 312.622 56.812 314.17 58.124C314.351 58.141 314.511 58.007 314.527 57.826C315.588 54.84 318.869 51.793 320.881 49.443C321.376 48.913 321.651 48.625 322.035 48.226C322.336 47.926 321.858 47.455 321.563 47.767V47.766ZM340.104 68.333C339.254 68.495 338.417 68.625 337.594 68.723C337.407 68.745 337.274 68.915 337.296 69.102C337.318 69.289 337.488 69.423 337.675 69.4C338.514 69.3 339.366 69.168 340.232 69.003C340.668 68.927 340.538 68.243 340.104 68.333ZM335.065 68.928C334.571 69.065 333.602 68.654 333.458 69.296C333.607 69.948 334.594 69.522 335.094 69.61C335.536 69.598 335.507 68.903 335.065 68.928ZM325.399 30.296C325.324 31.057 326.187 31.037 326.699 31.296C333.857 33.599 334.716 44.63 326.099 45.096C318.402 45.852 313.076 33.986 321.599 31.096C322.099 30.996 322.299 30.696 322.299 30.296C321.999 29.996 321.699 29.996 321.399 30.396C321.148 30.563 320.826 30.661 320.556 30.804C318.749 26.65 316.948 22.563 314.843 18.502C313.946 16.366 311.578 16.702 309.899 17.396C302.47 20.442 295.284 23.781 287.999 27.196C287.715 27.335 284.632 28.822 284.397 28.944C283.097 29.699 281.065 30.298 280.592 31.923L280.499 31.896L280.399 32.196L280.558 32.261C281.331 35.147 284.073 40.296 285.257 43.104C286.224 45.25 287.189 48.267 288.699 50.096C289.505 51.175 291.039 51.37 292.199 51.096C293.085 51.035 294.059 50.877 294.849 50.446C302.334 47.366 309.751 44.01 317.051 40.587C320.576 49.309 335.071 48.265 333.299 37.496C332.527 33.832 329.26 30.475 325.399 30.296ZM281.699 30.796C287.765 27.496 294.259 24.75 300.599 21.996C303.013 20.987 305.475 19.904 307.911 18.949C309.435 18.356 311.082 17.694 312.566 18.445C308.735 24.05 304.918 29.663 300.399 34.696C296.108 37.802 285.699 33.075 280.708 31.957C280.825 31.475 281.309 31.088 281.699 30.796ZM316.762 34.88C313.595 33.543 310.232 32.198 306.999 31.296C306.76 31.235 306.728 31.568 306.899 31.596C310.192 32.633 313.464 33.972 316.634 35.311C316.348 36.398 316.314 37.765 316.543 38.93C307.977 42.891 299.468 47.261 290.663 50.473C290.802 50.433 290.927 50.341 290.999 50.196C291.977 46.209 292.373 42.019 292.599 37.896C292.599 37.796 292.599 37.696 292.399 37.796C291.681 41.701 291.469 46.121 290.199 49.996C290.199 50.17 290.275 50.345 290.427 50.453C288.456 50.094 287.666 47.843 286.899 46.196L285.399 42.996C284.214 40.276 281.588 35.079 280.689 32.313C286.32 34.395 292.317 37.046 298.499 36.696C300.986 36.387 302.366 33.902 303.816 32.176C307.154 27.915 310.154 23.368 312.835 18.65C313.321 19.075 313.584 19.565 313.765 20.304C313.866 20.678 313.973 20.895 314.098 21.144C315.853 24.659 317.516 28.194 318.847 31.904C317.855 32.715 317.153 33.704 316.761 34.88H316.762ZM324.625 50.945C324.597 50.765 324.429 50.642 324.249 50.67L323.974 51.045H323.973C323.868 52.737 323.531 53.551 322.496 56.167C322.425 56.334 322.503 56.528 322.671 56.599C322.838 56.67 323.031 56.592 323.102 56.425C324.174 53.689 324.558 52.836 324.626 50.959C324.625 50.947 324.621 50.946 324.591 50.952L324.625 50.947V50.945ZM345.03 67.077C344.205 67.339 343.389 67.572 342.585 67.778C342.403 67.825 342.292 68.01 342.339 68.193C342.386 68.375 342.572 68.486 342.754 68.439C343.571 68.23 344.399 67.993 345.236 67.728C345.416 67.671 345.515 67.479 345.458 67.3C345.401 67.12 345.21 67.021 345.03 67.078V67.077ZM444.821 57.042C444.019 56.731 443.221 56.412 442.427 56.09C442.253 56.019 442.054 56.103 441.983 56.278C441.912 56.452 441.996 56.651 442.17 56.723C442.967 57.047 443.768 57.366 444.574 57.679C444.984 57.845 445.237 57.197 444.821 57.043V57.042ZM440.045 55.104C439.248 54.769 438.457 54.432 437.67 54.095C437.497 54.021 437.297 54.101 437.222 54.274C437.148 54.447 437.228 54.648 437.402 54.722C438.189 55.059 438.982 55.397 439.781 55.733C440.185 55.91 440.456 55.269 440.045 55.104ZM435.3 53.074C434.506 52.732 433.711 52.387 432.928 52.051C432.754 51.977 432.554 52.057 432.479 52.23C432.405 52.403 432.485 52.604 432.658 52.678C433.44 53.014 434.236 53.357 435.029 53.7C435.432 53.882 435.709 53.243 435.3 53.074ZM436.072 26.875C428.83 26.02 419.525 27.813 412.494 29.984C412.321 30.042 412.229 30.229 412.287 30.401C412.345 30.573 412.532 30.666 412.704 30.608C418.425 28.704 425.953 27.482 431.999 27.292C433.727 27.25 435.093 27.326 435.925 27.517C436.335 27.619 436.494 26.964 436.072 26.875ZM449.657 58.806C448.845 58.532 448.035 58.246 447.23 57.952C447.053 57.887 446.857 57.978 446.792 58.155C446.728 58.332 446.819 58.528 446.996 58.593C447.806 58.889 448.62 59.177 449.439 59.453C449.856 59.601 450.078 58.942 449.657 58.807V58.806ZM459.581 61.441C458.742 61.289 457.904 61.117 457.067 60.926C456.884 60.884 456.701 60.999 456.659 61.183C456.617 61.367 456.732 61.55 456.916 61.591C457.762 61.784 458.61 61.958 459.46 62.112C459.893 62.197 460.019 61.513 459.581 61.441ZM269.673 45.329C268.844 45.719 268.003 46.104 267.155 46.48C266.983 46.557 266.905 46.758 266.982 46.93C267.058 47.102 267.26 47.18 267.432 47.103C268.285 46.724 269.13 46.338 269.964 45.945C270.366 45.762 270.071 45.133 269.673 45.328V45.329ZM425.749 49.107C424.926 48.795 424.114 48.5 423.314 48.225C423.136 48.164 422.942 48.259 422.88 48.437C422.819 48.615 422.914 48.809 423.092 48.871C423.885 49.143 424.69 49.436 425.507 49.745C425.918 49.908 426.166 49.258 425.749 49.107ZM430.549 51.04C429.744 50.701 428.947 50.371 428.158 50.053C427.984 49.982 427.785 50.067 427.714 50.241C427.644 50.416 427.728 50.615 427.903 50.685C428.687 51.002 429.482 51.331 430.285 51.669C430.689 51.846 430.96 51.205 430.549 51.04ZM410.516 46.221C410.043 46.391 408.963 46.198 408.967 46.876C409.254 47.463 410.096 46.846 410.61 46.897C411.049 46.842 410.954 46.153 410.516 46.221ZM415.751 46.293C414.862 46.169 413.993 46.094 413.145 46.076C412.957 46.072 412.801 46.222 412.797 46.41C412.793 46.598 412.942 46.754 413.131 46.758C413.948 46.775 414.791 46.847 415.656 46.968C416.093 47.036 416.19 46.347 415.751 46.292V46.293ZM412.815 26.845C414.962 24.997 418.039 22.445 420.372 20.977C420.527 20.881 420.574 20.678 420.478 20.524C420.383 20.369 420.18 20.322 420.025 20.418C417.721 21.864 414.7 24.365 412.591 26.169C412.031 26.48 412.297 27.146 412.815 26.846V26.845ZM376.099 58.897C375.279 59.159 374.725 59.747 373.899 59.697C373.548 59.51 372.988 59.556 372.699 59.797C372.4 59.901 372.311 60.171 372.199 60.397C372.12 60.397 372.167 60.46 372.278 60.621C372.313 60.671 372.353 60.728 372.399 60.797C372.499 60.797 372.599 60.797 372.599 60.697C372.799 60.297 373.199 60.097 373.599 60.097C374.986 60.683 376.173 58.794 377.499 58.997C377.738 59.058 377.769 58.725 377.599 58.697C376.999 58.497 376.499 58.697 376.099 58.897ZM424.566 38.43C424.86 38.735 425.34 38.263 425.032 37.964C421.778 36.171 416.927 36.195 413.358 35.671C412.79 35.701 412.899 36.305 413.299 36.327C416.715 36.796 421.398 36.882 424.566 38.429V38.43ZM420.844 47.435C419.988 47.183 419.146 46.96 418.32 46.771C418.136 46.729 417.953 46.844 417.911 47.028C417.87 47.212 417.984 47.395 418.168 47.437C418.979 47.622 419.807 47.841 420.651 48.09C421.073 48.221 421.271 47.555 420.844 47.436V47.435Z" fill="#647A93"/>
</g>
<defs>
<clipPath id="clip0_987_497551">
<rect width="575" height="80" fill="white"/>
</clipPath>
</defs>
</svg>
