<svg width="575" height="80" viewBox="0 0 575 80" fill="none" xmlns="http://www.w3.org/2000/svg">
<path d="M0 0 H575 V575 H0 Z" fill="#EAEDF2"/>
<path d="M252.333 45.141V45.146H252.334V45.148C253.304 48.96 254.785 54.785 255.5 55.499C256.5 56.499 258 56.499 259.5 55.999C261 55.499 280 50.999 283 50.499C284.011 50.33 284.009 50.051 284.001 49.234C284.001 49.16 284 49.082 284 48.999C284 47.999 282.5 41.499 282 40.499C281.884 40.267 281.822 40.088 281.77 39.939C281.597 39.445 281.535 39.267 280 38.499C278 37.499 276 34.999 276 31.999C276 31.654 276.119 31.368 276.214 31.142C276.393 30.713 276.482 30.499 275.5 30.499C274 30.499 267.5 31.768 266.5 31.999C264 32.499 252 35.999 251 36.999C250.665 37.333 251 40.499 251.5 41.999C251.642 42.426 251.947 43.623 252.333 45.14V45.141ZM39.0999 38.4C39.3999 39.4 42.2 48.3 43.3 51.7C44.4 55.1 45.6999 55.5 47.5999 55.2C49.4999 55 74.4 47.2 74.9 46.3C75.34 45.42 72.0589 33.685 70.5859 30.006C69.1849 30.333 67.714 30.421 66.3 29.9C65.526 29.615 64.7679 29.147 64.1149 28.53C57.7509 30.28 44.1809 34.613 41.5999 35.5C38.5339 36.554 38.7729 37.333 39.0619 38.275C39.0749 38.316 39.0869 38.358 39.0999 38.4ZM76.5999 58.9L58.9 58.2C58.3 58.2 57.7999 58.6 57.6999 59.2C57.2999 61 55.8999 64.9 50.1999 65.3C44.2999 65.7 42.4 61.5 41.8 59.6C41.7 59.1 41.1999 58.8 40.6999 58.8H24.2999L24.2 66.5C24.2 69.2 26.4 71.5 29.2 71.4L72.0999 70.7C74.3999 70.7 76.3 68.8 76.4 66.5L76.6999 58.9L76.5899 58.879L76.5999 58.9ZM375.9 48C377.655 47.976 380.591 47.922 384.197 47.855C394.174 47.671 409.275 47.393 418.651 47.389L415.7 42.9C415.6 42.7 415.3 42.7 415.1 42.7C414.1 42.9 413.1 42.9 412 42.6C408.1 41.5 405.8 37.6 406.8 33.7C407 33 407.2 32.4 407.6 31.8C407.8 31.5 408.3 31.5 408.5 31.8L411.6 36.5C411.8 36.7 412.1 36.7 412.3 36.6L415.5 34.5C415.7 34.3 415.7 34 415.6 33.8L413.435 30.48C411.261 30.495 408.856 30.511 406.325 30.528H406.315C395.789 30.597 383.084 30.681 375.7 30.8C374.5 30.8 373.5 31.7 373.5 32.8C373.4 36.3 373.2 43.6 373.5 46.2C373.6 47.3 374.6 48 375.9 48ZM375.9 30.7C377.655 30.676 380.592 30.622 384.198 30.555C392.409 30.404 404.092 30.189 413.197 30.115L412.6 29.2C412.4 28.9 412.6 28.4 413.1 28.2C413.9 28.1 414.8 28.2 415.7 28.4C416.879 28.733 417.913 29.321 418.752 30.089C419.855 30.089 420.876 30.092 421.8 30.1C423.8 30.1 425.4 28.7 425.3 27.1C425.22 25.653 425.204 23.964 425.188 22.24V22.237C425.164 19.673 425.139 17.033 424.9 15C424.8 13.9 423.7 13.1 422.4 13.1C419.61 13.14 413.466 13.181 406.318 13.228H406.316C395.789 13.297 383.085 13.381 375.7 13.5C374.5 13.5 373.5 14.4 373.5 15.5C373.4 19 373.2 26.3 373.5 28.9C373.6 30 374.6 30.7 375.9 30.7ZM419.076 48.036C415.862 48.065 411.34 48.095 406.323 48.128H406.317C395.79 48.197 383.085 48.281 375.7 48.4C374.5 48.4 373.5 49.3 373.5 50.4C373.4 54 373.2 61.3 373.5 63.8C373.6 64.9 374.6 65.6 375.9 65.6C377.655 65.576 380.592 65.522 384.198 65.455C395.389 65.249 413.027 64.924 421.8 65C423.8 65 425.4 63.6 425.3 62C425.223 60.608 425.205 58.992 425.19 57.337L419.076 48.036ZM287.9 59.9L270.2 59.2C269.6 59.2 269.1 59.6 269 60.2C268.6 62 267.2 65.9 261.5 66.3C255.6 66.7 253.7 62.5 253.1 60.6C253 60.1 252.5 59.8 252 59.8H235.699L235.6 67.4C235.5 70.2 237.7 72.5 240.5 72.4L283.4 71.7C285.7 71.7 287.6 69.8 287.7 67.5L288 59.9L287.888 59.878L287.9 59.9ZM139.041 44.609C140.303 48.03 141.569 51 142 51C142.783 51 145.477 50.167 148.809 48.992C150.339 53.611 152.013 58 152.5 58C153.5 58 180 49.5 180.5 47.5C180.737 46.551 179.736 42.495 178.458 38.44C175.538 38.876 172.689 37.762 170.8 35.1C169.759 33.614 169.161 31.907 169.168 30.101C167.413 30.521 165.357 31.062 163.199 31.683C162.038 28.615 160.919 25.919 160.5 25.5C160.339 25.5 157.805 26.377 154.422 27.585C153.619 25.246 152.875 23.376 152.5 23C152 22.5 129 29 128 29.5C128.119 29.977 128.352 30.994 128.651 32.3V32.302C129.607 36.474 131.238 43.597 132 45.5C132.228 46.069 135.2 45.555 139.041 44.609ZM425.188 39.537C425.164 36.973 425.139 34.332 424.9 32.3C424.8 31.2 423.7 30.4 422.4 30.4C421.575 30.412 420.457 30.424 419.108 30.436C420.798 32.203 421.553 34.752 420.9 37.3C420.7 38.1 420.3 38.8 419.9 39.5C419.8 39.7 419.8 39.9 419.9 40.1L424.187 46.622C424.915 46.064 425.354 45.261 425.3 44.4C425.22 42.953 425.204 41.264 425.188 39.54V39.537ZM182.6 58.9L164.9 58.2C164.3 58.2 163.8 58.6 163.7 59.2C163.3 61 161.9 64.9 156.2 65.3C150.3 65.7 148.4 61.5 147.8 59.6C147.7 59.1 147.2 58.8 146.7 58.8H130.399L130.3 66.4C130.2 69.2 132.4 71.5 135.2 71.4L178.1 70.7C180.4 70.7 182.3 68.8 182.4 66.5L182.7 58.9L182.59 58.878L182.6 58.9Z" fill="white"/>
<path d="M152.5 58C152.013 58 150.339 53.61 148.809 48.992C145.477 50.167 142.783 51 142 51C141.569 51 140.303 48.03 139.041 44.609C138.326 44.785 137.641 44.946 136.998 45.088L130.3 58.8H146.7C147.2 58.8 147.7 59.1 147.8 59.6C147.875 59.838 147.97 60.111 148.091 60.407C148.938 62.478 151.038 65.65 156.2 65.3C161.9 64.9 163.3 61 163.7 59.2C163.8 58.6 164.3 58.2 164.9 58.2L182.6 58.9L178.078 49.089C171.421 52.242 153.323 58 152.5 58ZM174.7 24.3C173.6 24.3 172.5 24.4 171.7 25.1C170.3 25.9 169.8 26.6 169.4 28.2C168.8 30.7 169.4 33.1 170.8 35.1C173 38.2 176.5 39.2 179.9 38.1C183.5 36.9 184.8 32.7 183.1 29.4C181.3 25.8 178.3 24.4 174.7 24.3ZM66.3 29.9C68.2 30.6 70.2 30.2 72 29.6C73.1 29.2 74.1 28.7 74.9 27.8C75.8 26.9 76.3 25.7 76.4 24.3C76.5 22.1 75 20 73.4 18.8C72.4 18 71.4 17.5 70.3 17.1C68.6 16.5 61.7 16.4 61.9 23.2L62.2 25C62.6 27.4 64.4 29.2 66.3 29.9ZM47.6 55.2C45.7 55.5 44.4 55.1 43.3 51.7C42.2 48.3 39.4 39.4 39.1 38.4C39.088 38.361 39.076 38.322 39.065 38.284L39.063 38.277C38.843 37.559 38.652 36.937 39.92 36.217L37.501 36.3C36.401 36.3 35.401 37 34.901 38.1L24.301 58.8H40.701C41.201 58.8 41.701 59.1 41.801 59.6C42.401 61.5 44.301 65.7 50.201 65.3C55.901 64.9 57.301 61 57.701 59.2C57.801 58.6 58.301 58.2 58.901 58.2L76.601 58.9L71.27 47.836C64.177 50.382 49.064 55.046 47.601 55.2H47.6ZM284.3 27.9C284.2 27.85 284.075 27.8 283.95 27.75C283.825 27.7 283.7 27.65 283.6 27.6C283.3 27.5 283.2 27.3 283.2 27C282.4 26.9 281.5 26.9 280.7 27.1C280.7 27.5 280.5 27.7 280.2 27.8C278.4 28.2 277.3 29.4 276.8 31.1C276.2 33.1 276.8 35 278.1 36.6C279.6 38.5 281.6 39.4 283.9 39.3C286.1 39.3 288 38.2 288.8 36C289.2 34.9 289.2 33.7 288.8 32.6C288.1 30.3 286.5 28.8 284.3 27.9ZM550.2 36.4H558.7C559 36.4 559.2 36.2 559.2 35.9V30.2C559.2 29.9 559 29.7 558.7 29.7H550.2C549.9 29.7 549.7 29.5 549.7 29.2V22.7H486.1C481.3 22.7 476.9 24.7 473.8 27.8C470.6 30.9 468.6 35.2 468.7 40.1C468.8 49.8 476.9 57.4 486.6 57.4H549.7V50.9C549.7 50.6 549.9 50.4 550.2 50.4H558.7C559 50.4 559.2 50.2 559.2 49.9V44.2C559.2 43.9 559 43.7 558.7 43.7H550.2C549.9 43.7 549.7 43.5 549.7 43.2V36.9C549.7 36.6 549.9 36.4 550.2 36.4ZM436.1 58.6C434.8 58.1 433.5 58 432.3 58.2C432 58.2 431.7 58.1 431.6 57.9L419.9 40.1C419.8 39.9 419.8 39.7 419.9 39.5C420.3 38.8 420.7 38.1 420.9 37.3C421.9 33.4 419.6 29.5 415.7 28.4C414.8 28.2 413.9 28.1 413.1 28.2C412.6 28.4 412.4 28.9 412.6 29.2L415.6 33.8C415.7 34 415.7 34.3 415.5 34.5L412.3 36.6C412.1 36.7 411.8 36.7 411.6 36.5L408.5 31.8C408.3 31.5 407.8 31.5 407.6 31.8C407.2 32.4 407 33 406.8 33.7C405.8 37.6 408.1 41.5 412 42.6C413.1 42.9 414.1 42.9 415.1 42.7C415.3 42.7 415.6 42.7 415.7 42.9L427.4 60.7C427.6 60.9 427.5 61.2 427.4 61.5C426.9 62.3 426.5 63.3 426.3 64.3C425.7 67.9 428 71.6 431.6 72.5C432.6 72.8 433.6 72.8 434.5 72.7C434.8 72.7 435 72.3 434.8 72L431.6 67.1C431.5 66.9 431.5 66.7 431.7 66.6L435.2 64.3C435.4 64.2 435.6 64.2 435.7 64.4L438.9 69.2C439.1 69.5 439.5 69.5 439.7 69.2C440.1 68.5 440.4 67.7 440.6 66.8C441.3 63.4 439.3 59.9 436.1 58.6ZM259.5 56C258 56.5 256.5 56.5 255.5 55.5C254.785 54.785 253.303 48.959 252.334 45.147C251.948 43.627 251.642 42.428 251.5 42C251 40.5 250.665 37.334 251 37C251.219 36.781 251.967 36.441 253.028 36.04L248.7 36.2C247.6 36.2 246.6 36.9 246.1 38L235.6 59.8H252C252.5 59.8 253 60.1 253.1 60.6C253.7 62.5 255.6 66.7 261.5 66.3C261.856 66.275 262.196 66.236 262.519 66.185C266.764 65.516 268.255 62.727 268.813 60.91C268.892 60.65 268.953 60.411 269 60.2C269.1 59.6 269.6 59.2 270.2 59.2L287.9 59.9L282.756 50.543C279.094 51.215 260.964 55.512 259.5 56ZM377.7 10.3L374.5 11.4C373.6 10.6 372.6 9.8 371.4 9.3L371.8 6.1C370.3 5.5 368.8 5 367.2 4.8L365.8 7.7H363.7L363.574 7.716C362.806 7.811 361.963 7.916 361.3 8.2L359.4 5.6C357.7 6.2 356.2 7.1 354.8 8.2L355.7 11.4C354.7 12.4 353.8 13.5 353.2 14.7L350.2 14.1C349.5 15.7 349 17.4 348.8 19.1L351.7 20.8C351.7 21.3 351.7 21.8 351.8 22.3C351.9 23.2 352 24 352.3 24.8L349.7 26.4C350.3 28.1 351.1 29.7 352.2 31.1L355.2 30.1C356.2 31.2 357.3 32.1 358.5 32.8L358 36C359.6 36.8 361.4 37.3 363.2 37.5L364.6 34.6H366.2C367.5 34.5 368.7 34.2 369.8 33.7L371.6 36.2C372.229 35.904 372.843 35.581 373.434 35.226C373.457 34.315 373.48 33.485 373.5 32.8C373.5 31.952 374.094 31.223 374.916 30.933L374.619 30.431C373.987 30.131 373.563 29.595 373.5 28.899C373.2 26.299 373.4 18.999 373.5 15.499C373.5 14.399 374.5 13.499 375.7 13.499C376.965 13.479 378.385 13.459 379.925 13.441C379.81 13.202 379.674 12.96 379.5 12.699C379 11.799 378.4 10.999 377.7 10.299V10.3ZM365.5 27.3C362.1 27.6 359.2 25.1 358.9 21.7C358.6 18.3 361.1 15.3 364.4 15C366.8 14.8 369.3 16 370.4 18C370.8 18.8 370.9 19.7 371 20.6C371.3 24 368.8 27 365.5 27.3Z" fill="#D4DAE4"/>
<path d="M514.943 44H516.193V37.958H514.943V44ZM522.155 38.155C521.782 37.958 521.358 37.859 520.883 37.859C520.525 37.859 520.185 37.928 519.863 38.067C519.549 38.206 519.289 38.4 519.085 38.648V37.957H517.834V43.999H519.085V40.621C519.085 40.08 519.22 39.667 519.49 39.382C519.768 39.09 520.141 38.943 520.609 38.943C521.077 38.943 521.446 39.089 521.716 39.382C521.987 39.667 522.122 40.08 522.122 40.621V43.999H523.361V40.435C523.361 39.887 523.255 39.419 523.043 39.031C522.831 38.644 522.535 38.351 522.155 38.154V38.155ZM529.485 38.835C529.28 38.557 528.995 38.327 528.629 38.144C528.271 37.954 527.858 37.859 527.39 37.859C526.864 37.859 526.381 37.991 525.943 38.254C525.511 38.51 525.168 38.872 524.912 39.34C524.663 39.808 524.539 40.345 524.539 40.952C524.539 41.559 524.663 42.103 524.912 42.586C525.168 43.061 525.511 43.434 525.943 43.705C526.381 43.968 526.864 44.1 527.39 44.1C527.851 44.1 528.26 44.005 528.618 43.815C528.984 43.618 529.273 43.376 529.485 43.091V44.1C529.485 44.685 529.328 45.131 529.013 45.438C528.706 45.745 528.3 45.899 527.796 45.899C527.365 45.899 526.992 45.8 526.677 45.603C526.37 45.413 526.169 45.161 526.074 44.846H524.835C524.908 45.504 525.215 46.023 525.756 46.403C526.297 46.791 526.977 46.984 527.796 46.984C528.41 46.984 528.936 46.86 529.375 46.611C529.821 46.362 530.161 46.019 530.395 45.58C530.629 45.149 530.746 44.655 530.746 44.1V37.959H529.485V38.836V38.835ZM529.222 42.07C529.053 42.377 528.83 42.611 528.553 42.772C528.275 42.933 527.975 43.013 527.653 43.013C527.339 43.013 527.039 42.933 526.754 42.772C526.476 42.604 526.25 42.363 526.074 42.048C525.906 41.734 525.822 41.368 525.822 40.951C525.822 40.534 525.906 40.176 526.074 39.876C526.25 39.569 526.476 39.339 526.754 39.185C527.032 39.024 527.332 38.944 527.653 38.944C527.974 38.944 528.275 39.024 528.553 39.185C528.83 39.346 529.053 39.58 529.222 39.887C529.397 40.194 529.485 40.556 529.485 40.973C529.485 41.39 529.397 41.755 529.222 42.07ZM515.579 35.556C515.353 35.556 515.162 35.633 515.009 35.786C514.855 35.94 514.779 36.13 514.779 36.356C514.779 36.582 514.855 36.773 515.009 36.926C515.162 37.08 515.353 37.156 515.579 37.156C515.798 37.156 515.985 37.079 516.138 36.926C516.292 36.772 516.369 36.582 516.369 36.356C516.369 36.13 516.292 35.939 516.138 35.786C515.985 35.632 515.798 35.556 515.579 35.556ZM493.373 40.041C493.058 39.902 492.649 39.763 492.145 39.624C491.764 39.522 491.465 39.427 491.245 39.339C491.026 39.251 490.843 39.134 490.697 38.988C490.558 38.834 490.489 38.641 490.489 38.407C490.489 38.063 490.602 37.8 490.829 37.618C491.055 37.435 491.348 37.344 491.706 37.344C492.101 37.344 492.419 37.443 492.66 37.64C492.901 37.837 493.033 38.075 493.055 38.353H494.436C494.385 37.71 494.122 37.205 493.647 36.84C493.179 36.467 492.576 36.281 491.838 36.281C491.319 36.281 490.862 36.369 490.467 36.544C490.072 36.719 489.765 36.972 489.546 37.301C489.326 37.63 489.217 38.014 489.217 38.452C489.217 38.927 489.326 39.307 489.546 39.593C489.765 39.878 490.028 40.09 490.335 40.229C490.65 40.361 491.055 40.492 491.552 40.624C491.947 40.726 492.254 40.821 492.474 40.909C492.7 40.997 492.887 41.121 493.033 41.282C493.186 41.443 493.263 41.651 493.263 41.907C493.263 42.236 493.143 42.506 492.901 42.718C492.66 42.923 492.324 43.025 491.892 43.025C491.476 43.025 491.15 42.919 490.916 42.707C490.69 42.495 490.562 42.225 490.533 41.896H489.195C489.195 42.335 489.312 42.718 489.546 43.047C489.78 43.376 490.101 43.632 490.511 43.815C490.92 43.99 491.381 44.078 491.892 44.078C492.433 44.078 492.901 43.976 493.296 43.771C493.698 43.559 494.002 43.281 494.206 42.938C494.418 42.594 494.524 42.229 494.524 41.841C494.524 41.358 494.411 40.975 494.184 40.69C493.965 40.398 493.694 40.182 493.373 40.043V40.041ZM512.04 38.835C511.835 38.557 511.55 38.327 511.185 38.144C510.827 37.954 510.414 37.859 509.946 37.859C509.419 37.859 508.937 37.991 508.498 38.254C508.067 38.51 507.723 38.872 507.467 39.34C507.219 39.808 507.095 40.345 507.095 40.952C507.095 41.559 507.219 42.103 507.467 42.586C507.723 43.061 508.067 43.434 508.498 43.705C508.937 43.968 509.419 44.1 509.946 44.1C510.406 44.1 510.816 44.005 511.174 43.815C511.539 43.618 511.828 43.376 512.04 43.091V44.1C512.04 44.685 511.883 45.131 511.569 45.438C511.262 45.745 510.856 45.899 510.351 45.899C509.92 45.899 509.547 45.8 509.233 45.603C508.926 45.413 508.725 45.161 508.63 44.846H507.391C507.464 45.504 507.771 46.023 508.312 46.403C508.853 46.791 509.533 46.984 510.351 46.984C510.965 46.984 511.492 46.86 511.93 46.611C512.376 46.362 512.716 46.019 512.95 45.58C513.184 45.149 513.301 44.655 513.301 44.1V37.959H512.04V38.836V38.835ZM511.777 42.07C511.609 42.377 511.386 42.611 511.108 42.772C510.83 42.933 510.53 43.013 510.209 43.013C509.894 43.013 509.595 42.933 509.31 42.772C509.032 42.604 508.805 42.363 508.63 42.048C508.462 41.734 508.378 41.368 508.378 40.951C508.378 40.534 508.462 40.176 508.63 39.876C508.805 39.569 509.032 39.339 509.31 39.185C509.587 39.024 509.887 38.944 510.209 38.944C510.531 38.944 510.83 39.024 511.108 39.185C511.386 39.346 511.609 39.58 511.777 39.887C511.952 40.194 512.04 40.556 512.04 40.973C512.04 41.39 511.952 41.755 511.777 42.07ZM497.458 36.455H496.197V37.957H495.484V38.977H496.197V42.321C496.197 42.913 496.346 43.341 496.646 43.604C496.946 43.867 497.377 43.999 497.94 43.999H498.927V42.957H498.16C497.904 42.957 497.721 42.909 497.611 42.814C497.509 42.712 497.458 42.547 497.458 42.321V38.977H498.927V37.957H497.458V36.455ZM504.608 38.835C504.396 38.557 504.111 38.327 503.753 38.144C503.402 37.954 502.989 37.859 502.514 37.859C501.987 37.859 501.505 37.991 501.066 38.254C500.635 38.51 500.291 38.872 500.035 39.34C499.787 39.808 499.663 40.345 499.663 40.952C499.663 41.559 499.787 42.103 500.035 42.586C500.291 43.061 500.635 43.434 501.066 43.705C501.498 43.968 501.973 44.1 502.492 44.1C502.96 44.1 503.376 44.005 503.742 43.815C504.107 43.625 504.396 43.387 504.608 43.102V44.001H505.869V37.959H504.608V38.836V38.835ZM504.345 42.07C504.177 42.377 503.954 42.611 503.676 42.772C503.398 42.933 503.099 43.013 502.777 43.013C502.463 43.013 502.163 42.933 501.878 42.772C501.6 42.604 501.373 42.363 501.198 42.048C501.03 41.734 500.946 41.368 500.946 40.951C500.946 40.534 501.03 40.176 501.198 39.876C501.373 39.569 501.6 39.339 501.878 39.185C502.156 39.024 502.455 38.944 502.777 38.944C503.099 38.944 503.398 39.024 503.676 39.185C503.954 39.346 504.177 39.58 504.345 39.887C504.52 40.194 504.608 40.556 504.608 40.973C504.608 41.39 504.52 41.755 504.345 42.07ZM76.1099 69.36C76.9019 68.464 77.1869 67.171 77.0999 66L77.1959 59.172C77.2489 59.039 77.2559 58.869 77.1999 58.7L72.5729 48.823C73.7709 48.383 74.9799 47.994 76.0999 47.4C76.1989 47.229 76.5179 47.046 76.4999 46.8V46.3C75.4899 40.879 73.7079 35.705 72.0019 30.502C77.4339 29.469 79.2009 23.582 74.9999 19.8C71.0309 14.488 61.3229 15.754 61.6009 23.3C61.6009 23.8 62.3009 23.6 62.3009 23.2C61.8499 17.86 68.2909 15.738 72.1009 18.5C83.6539 26.297 65.9069 36.005 62.5009 24.9C62.5009 24.3 61.8009 24.7 61.9009 25.1C62.1859 26.344 62.7059 27.38 63.3969 28.202C56.0069 30.376 48.7199 32.687 41.5159 35.22L38.7009 35.3C37.3179 35.188 35.6939 35.472 34.7009 36.5C34.0509 36.94 33.1979 39.125 32.8009 39.8L29.6009 46.3C28.5779 48.441 25.9199 53.99 25.0009 56.1C24.8849 56.333 24.1159 57.866 24.0129 58.1C23.8119 58.502 23.6109 58.904 23.8789 58.994C23.7209 63.858 22.0099 72.023 29.2009 72.1L44.9149 71.88C74.9709 72.927 81.7859 70.537 81.7009 69.6C81.7009 69.403 79.5539 69.338 76.1109 69.36H76.1099ZM70.4429 30.81C72.0969 35.641 73.6349 40.551 74.4869 45.576C70.8699 43.21 67.0589 41.278 63.0999 39.5C62.8719 39.433 62.8249 39.771 62.9999 39.8C66.0139 41.354 71.6259 44.277 74.3759 46.212C65.2929 49.595 55.5719 52.659 46.2369 54.997C47.5129 51.458 48.8649 47.399 49.0989 43.9C47.8419 47.249 47.2119 51.334 45.5639 54.808C43.3279 53.518 43.2009 49.876 42.1989 47.7C41.4489 45.212 39.7409 40.253 39.1889 37.765C43.7609 39.905 52.2739 45.654 57.1989 42.901C61.4559 39.294 64.9329 35.121 68.3869 30.786C69.0709 30.898 69.7609 30.893 70.4419 30.811L70.4429 30.81ZM39.1999 37.3C39.9419 36.05 41.7929 35.786 43.0999 35.3L46.0999 34.3C52.0149 32.416 58.0889 30.54 64.1299 28.943C65.1609 29.876 66.5299 30.243 67.8279 30.666C54.2699 44.754 57.9539 45.577 39.1749 37.476C39.1779 37.416 39.1859 37.357 39.2009 37.3H39.1999ZM25.8689 57.025C28.4909 52.138 32.1389 45.436 34.6999 40.5C35.0279 39.942 35.6989 38.642 35.7999 38C36.1029 36.854 37.8139 36.985 38.7379 36.999C38.4089 37.582 38.8629 38.371 39.0999 38.9L39.9999 41.9C40.8819 44.692 42.4639 49.638 43.3619 52.369C44.1119 55.659 45.7529 56.522 48.9999 56C56.3999 53.99 63.8919 51.764 71.2019 49.305L75.7239 58.348C70.0259 58.053 64.3019 57.726 58.5999 57.601C57.4159 57.856 57.0549 58.862 56.8999 59.901C55.0099 66.35 44.3809 66.426 42.4999 59.901C42.4999 59.801 42.3999 59.601 42.3999 59.501C42.1479 58.827 41.6479 58.302 40.8999 58.201C35.4849 58.164 30.1219 58.384 24.6999 58.501C25.4579 57.743 25.6489 57.41 25.8689 57.026V57.025ZM75.6999 66.1V66.9C75.3649 68.671 73.8339 70.038 71.9999 70C67.2999 70 62.4999 70 57.7999 70.1L29.1999 70.7C23.2919 70.359 25.3889 63.231 24.9149 59.205C30.0429 58.974 35.5649 59.571 40.9999 59.399C41.2829 59.435 41.4139 59.533 41.4999 59.799C43.6899 68.126 57.2419 67.966 58.6999 59.299C58.7319 58.525 59.7979 58.869 60.2999 58.799C65.5479 59.105 70.8339 59.19 76.0769 59.416L75.6999 66.099V66.1ZM138.623 19.739C139.476 19.55 140.335 19.361 141.201 19.172C141.385 19.132 141.502 18.95 141.462 18.766C141.421 18.582 141.24 18.465 141.056 18.505C140.189 18.694 139.328 18.883 138.475 19.073C138.042 19.162 138.191 19.842 138.623 19.739ZM79.1089 35.724C79.5039 35.592 79.7559 35.509 80.3079 35.329C80.7309 35.198 80.5159 34.537 80.0969 34.68C79.5419 34.861 79.2899 34.944 78.8909 35.077C78.4689 35.212 78.6919 35.871 79.1089 35.724ZM128.388 22.089C129.239 21.887 130.098 21.685 130.965 21.483C131.148 21.44 131.262 21.257 131.22 21.073C131.177 20.89 130.993 20.775 130.81 20.818C129.942 21.02 129.082 21.223 128.231 21.425C127.798 21.521 127.959 22.197 128.388 22.089ZM133.501 20.896C134.354 20.7 135.214 20.504 136.081 20.308C136.265 20.267 136.381 20.084 136.339 19.9C136.298 19.716 136.115 19.601 135.931 19.642C135.063 19.838 134.202 20.034 133.348 20.23C132.917 20.323 133.07 21.001 133.501 20.895V20.896ZM70.2999 20.001C70.1569 20.24 69.5339 21.529 68.9769 22.832C68.0589 22.478 67.1469 22.074 66.1999 21.601C65.6999 21.401 65.4999 22.401 65.8999 22.601L68.5819 23.793C68.1689 24.844 67.8989 25.721 68.0999 25.801C67.3999 25.601 67.1999 26.601 67.6999 26.801C69.0059 27.275 68.9259 24.915 69.4079 24.123C70.0689 24.356 71.0989 24.435 71.6799 24.789C71.7719 25.175 72.2419 25.575 72.3999 25.101C73.0699 23.548 70.6809 23.621 69.7929 23.133C70.1289 22.31 70.4979 21.505 70.8999 20.701C71.0999 20.301 70.4999 19.401 70.2999 20.001ZM115.49 24.566C114.626 24.787 113.774 25.007 112.935 25.225C112.752 25.272 112.643 25.459 112.69 25.641C112.738 25.823 112.924 25.933 113.106 25.885C113.945 25.667 114.796 25.448 115.659 25.227C116.089 25.124 115.917 24.45 115.49 24.566ZM120.593 23.279C119.725 23.495 118.868 23.709 118.022 23.923C116.784 25.24 120.229 24.022 120.758 23.942C121.189 23.842 121.022 23.167 120.593 23.28V23.279ZM143.753 18.62C144.606 18.437 145.464 18.255 146.328 18.073C146.513 18.034 146.631 17.853 146.592 17.669C146.553 17.485 146.372 17.367 146.188 17.405C145.323 17.587 144.463 17.77 143.61 17.953C143.177 18.039 143.321 18.719 143.753 18.62ZM125.698 22.03C124.83 22.239 123.971 22.447 123.122 22.655C121.872 23.964 125.33 22.769 125.858 22.693C126.29 22.596 126.127 21.92 125.698 22.03ZM182.473 68.859C183.008 68.039 183.16 66.959 183.1 66.001L183.2 58.901C183.2 58.725 183.045 58.471 182.871 58.413L179.076 49.948C180.936 49.109 181.95 48.022 181.3 46.001C180.783 43.854 180.245 41.461 179.394 39.39C184.39 38.097 185.68 31.988 183.2 28.101C179.558 21.648 167.419 20.724 167.806 30.207C166.505 30.508 165.208 30.814 163.915 31.138C160.643 24.08 162.285 24.264 154.907 27.011C154.145 25.474 153.837 21.591 151.4 22.801C150.337 23.091 146.25 24.071 145.28 24.331C139.488 25.724 133.657 27.392 127.9 29.001C127.333 29.067 127.4 29.379 127.55 29.851C128.937 34.977 130.246 40.124 131.5 45.301C131.898 47.26 134.187 46.097 135.485 46.033C134.464 48.237 131.858 53.863 130.9 56.001L130.2 57.701C130.059 58.081 129.51 58.963 129.871 59.092C129.707 63.939 128.049 72.03 135.2 72.101C147.687 71.835 190.321 74.604 187.935 69.138C186.16 68.674 184.695 68.938 182.473 68.859ZM180.31 46.74C178.47 45.286 173.543 41.504 171.1 41.1C170.7 41.1 170.9 41.3 171.2 41.4C173.917 42.758 178.273 46.166 179.74 47.986C170.971 50.904 162.027 53.815 153.5 57.4C154.6 53.2 156.2 49.6 158.2 46.1C158.3 46 158.1 46 158 46C155.943 47.276 153.698 54.11 152.6 57.3C150.6 51.6 149.1 46.6 147.5 41.2C147.899 40.901 148.196 41.296 148.5 41.5C153.2 44.1 157.4 44.8 162.4 44.7C166.632 44.678 169.58 41.147 171.557 37.782C173.501 39.36 175.641 39.991 178.011 39.674C178.806 42.023 179.589 44.381 180.31 46.739V46.74ZM148.189 48.839C146.242 49.583 144.287 50.177 142.3 50.8H142C140.2 46 138.4 41.1 136.7 36.1C136.8 36.3 137 36.3 137.3 36.3C139.866 38.118 142.563 39.973 145.699 40.482V40.5C146.012 41.333 146.115 42.167 146.377 42.999C146.962 44.94 147.523 46.923 148.188 48.839H148.189ZM169.5 28.1C171.292 21.775 180.971 23.812 183.2 29.3C184.8 32.7 183.5 36.8 180 38C174.225 40.215 167.727 34.189 169.5 28.1ZM167.875 31.006C168.103 32.674 168.747 34.372 169.7 35.9C170.066 36.322 170.442 36.789 170.854 37.162C169.875 38.974 168.525 40.683 166.9 42C161.755 44.97 154.676 42.888 149.3 40.901C148.63 40.546 145.982 39.704 146.9 38.7C151.489 35.271 157.285 33.873 162.7 32.3L167.875 31.006ZM160.2 28C160.337 27.708 160.424 27.447 160.6 27.1C161.206 28.585 161.766 30.069 162.308 31.548C160.939 31.901 159.555 32.313 158.189 32.696C158.858 31.158 159.53 29.534 160.2 28ZM155.2 27.75C156.546 27.296 157.883 26.817 159.2 26.2C159.317 26.088 159.447 26.083 159.6 26C158.533 28.527 157.536 30.96 156.291 33.33C155.257 33.711 154.329 34.045 153.3 34.5C153.223 34.515 153.13 34.449 153.1 34.6C153.033 34.6 152.967 34.6333 152.9 34.7C152.789 34.7 152.795 34.708 152.7 34.8C152.341 34.889 151.605 35.168 151.3 35.2C151.1 35.3 150.8 35.4 150.6 35.5C150.406 35.646 150.205 35.597 150 35.7C149.9 35.8 149.8 35.8 149.7 35.8C149.356 35.916 149.203 36.209 148.9 36.2C148.784 36.226 148.743 36.335 148.6 36.3C148.266 36.524 147.808 36.806 147.4 37C146.878 37.39 145.962 37.711 145.7 38.2C145.7 38.3 145.6 38.3 145.6 38.3C145.6 38.3667 145.567 38.4333 145.5 38.5C145.5 38.5 145.5 38.6 145.4 38.7C145.4 39.086 145.372 39.445 145.51 39.859C142.277 39.249 139.471 37.046 136.7 35.3C136.592 35.089 136.371 34.977 136.2 34.8C136.342 34.738 136.473 34.609 136.6 34.6C142.783 32.262 148.944 29.882 155.2 27.75ZM152.4 24.3C152.735 25.395 153.045 26.49 153.342 27.582C152.236 27.979 151.105 28.38 149.993 28.774C150.657 27.591 151.267 26.386 151.9 25.199C152.1 24.899 152.2 24.699 152.4 24.299V24.3ZM128.991 29.391C136.247 26.953 144.009 25.637 151.3 23.2C151.4 23.2 151.5 23.2 151.7 23.1C151.304 23.826 150.952 24.552 150.585 25.306V25.308C149.935 26.693 149.143 28.086 148.343 29.363C144.197 30.806 140.097 32.497 136.039 34.202C132.665 32.361 129.976 30.711 128.8 29.501C128.876 29.463 128.938 29.425 128.991 29.392V29.391ZM134.126 45.147C133.541 45.241 132.923 45.5 132.3 45.5C131.229 40.707 129.501 35.587 128.6 30.8C130.822 32.463 133.026 34.116 135.543 35.237C135.57 35.29 135.6 35.346 135.6 35.4C136.77 38.262 137.661 41.118 138.713 44.011C137.193 44.405 135.671 44.806 134.126 45.147ZM132 56.4C133.433 53.782 136.243 48.321 137.589 45.619C138.129 45.515 138.665 45.413 139.183 45.321C140.294 47.184 140.662 54.02 143.9 51.1C145.465 50.732 146.965 50.273 148.503 49.817C148.913 50.996 149.223 52.18 149.8 53.3C149.8 53.3667 149.833 53.4333 149.9 53.5C149.924 53.774 150.316 54.273 150.3 54.6C150.701 55.388 150.8 56.385 151.3 57.1C151.788 58.685 152.536 58.39 153.8 58.1C161.793 55.386 169.987 53.228 177.978 50.48L181.741 58.348C176.037 58.052 170.308 57.726 164.6 57.6C163.415 57.855 163.056 58.86 162.9 59.9C161.01 66.349 150.381 66.425 148.5 59.9C148.5 59.8 148.4 59.6 148.4 59.5C148.148 58.826 147.648 58.301 146.9 58.2C141.484 58.163 136.123 58.383 130.7 58.5C131.6 57.6 131.7 57.3 132 56.4ZM181.8 66V66.8C181.465 68.571 179.934 69.938 178.1 69.9C173.3 70 168.6 70 163.8 70.1L135.2 70.7C129.292 70.359 131.389 63.232 130.915 59.205C136.132 59.096 141.458 59.508 146.7 59.399C146.983 59.435 147.114 59.533 147.2 59.799C149.39 68.126 162.942 67.966 164.4 59.299C164.411 59.051 164.592 58.817 164.8 58.799C170.584 58.953 176.389 59.3 182.172 59.392L181.8 65.999V66ZM85.1339 33.085C84.1879 33.378 83.3429 33.642 82.6029 33.876C82.4229 33.933 82.3239 34.125 82.3799 34.304C82.4369 34.484 82.6289 34.583 82.8089 34.526C83.5469 34.292 84.3909 34.028 85.3359 33.736C85.7599 33.612 85.5549 32.947 85.1339 33.084V33.085ZM174.7 32.9C175.598 32.996 176.498 32.784 177.115 32.211L180.1 35.099C180.3 35.299 180.6 35.199 180.7 35.099C180.9 34.999 180.9 34.699 180.7 34.499L177.515 31.797C180.029 29.073 175.411 25.471 172.9 27.499C170.936 29.253 172.011 32.778 174.7 32.899V32.9ZM172.8 29.7C172.785 26.693 177.559 27.794 177.4 30.2C176.957 33.113 172.356 32.874 172.8 29.7ZM90.1769 31.554C89.2909 31.818 88.4529 32.07 87.6639 32.31C87.4839 32.365 87.3819 32.555 87.4369 32.735C87.4919 32.915 87.6819 33.017 87.8619 32.962C88.6499 32.723 89.4869 32.471 90.3719 32.207C90.7979 32.087 90.5999 31.42 90.1769 31.553V31.554ZM95.1919 30.083C94.3239 30.333 93.4869 30.577 92.6819 30.813C92.5009 30.866 92.3979 31.056 92.4509 31.236C92.5039 31.417 92.6939 31.52 92.8739 31.467C93.6779 31.231 94.5139 30.988 95.3809 30.738C95.8069 30.622 95.6159 29.953 95.1919 30.082V30.083ZM100.261 28.642C99.3889 28.886 98.5399 29.125 97.7159 29.36C97.5349 29.412 97.4289 29.6 97.4809 29.781C97.5319 29.962 97.7209 30.067 97.9019 30.016C98.7259 29.782 99.5739 29.543 100.445 29.299C100.872 29.186 100.685 28.516 100.261 28.642ZM110.393 25.889C109.536 26.115 108.694 26.339 107.866 26.56C107.684 26.609 107.576 26.796 107.625 26.978C107.674 27.16 107.861 27.268 108.043 27.219C108.87 26.998 109.711 26.774 110.567 26.548C110.996 26.442 110.82 25.769 110.393 25.888V25.889ZM105.311 27.25C104.453 27.483 103.612 27.713 102.79 27.94C102.608 27.99 102.502 28.178 102.552 28.36C102.602 28.542 102.79 28.648 102.971 28.598C103.793 28.371 104.633 28.141 105.49 27.909C105.918 27.799 105.737 27.128 105.311 27.25ZM274.726 9.61801C275.593 9.80501 276.448 9.99801 277.292 10.197C277.475 10.24 277.659 10.127 277.702 9.94301C277.745 9.76001 277.632 9.57601 277.448 9.53301C276.6 9.33301 275.741 9.13901 274.87 8.95101C274.44 8.85201 274.292 9.53101 274.726 9.61801ZM273.923 21.358C274.801 21.41 275.671 21.48 276.535 21.565C276.722 21.583 276.889 21.447 276.908 21.259C276.927 21.071 276.79 20.904 276.602 20.886C275.73 20.8 274.85 20.73 273.963 20.677C273.523 20.644 273.48 21.339 273.923 21.358ZM269.492 8.59301C270.372 8.74801 271.241 8.91001 272.099 9.07801C272.284 9.11401 272.463 8.99401 272.499 8.80901C272.535 8.62401 272.415 8.44501 272.23 8.40901C271.368 8.24001 270.495 8.07801 269.611 7.92201C269.176 7.83901 269.056 8.52301 269.492 8.59401V8.59301ZM279.133 21.873C280 21.993 280.861 22.128 281.714 22.279C281.9 22.312 282.077 22.188 282.11 22.002C282.142 21.816 282.019 21.64 281.833 21.607C280.971 21.455 280.102 21.318 279.227 21.197C278.79 21.13 278.694 21.818 279.133 21.873ZM263.627 21.394C264.485 21.354 265.335 21.322 266.179 21.298C266.367 21.293 266.516 21.136 266.51 20.947C266.505 20.759 266.348 20.611 266.159 20.616C265.311 20.641 264.457 20.673 263.596 20.713C263.155 20.727 263.185 21.421 263.627 21.395V21.394ZM268.731 21.247C269.595 21.238 270.457 21.236 271.317 21.254C271.505 21.258 271.661 21.108 271.665 20.92C271.669 20.732 271.519 20.576 271.331 20.572C270.463 20.554 269.596 20.557 268.724 20.565C268.283 20.563 268.289 21.258 268.731 21.247ZM258.923 7.10601C259.825 7.20201 260.716 7.30401 261.597 7.41301C261.784 7.43601 261.954 7.30301 261.977 7.11601C262 6.92901 261.868 6.75901 261.681 6.73601C260.796 6.62701 259.901 6.52401 258.996 6.42801C258.557 6.37501 258.482 7.06601 258.923 7.10601ZM280.385 32.722C280.034 32.181 279.748 31.621 279.4 31.1C279.3 31 279.2 30.9 279.1 31C278.938 31.207 278.966 31.483 279.1 31.7C281.321 35.513 279.993 37.919 284.546 33.903C284.905 33.594 288.196 31.225 286.5 31.5C284.709 32.461 283.197 33.821 281.5 34.8V34.7C281.201 34.041 280.793 33.381 280.385 32.722ZM264.21 7.75701C265.106 7.88301 265.992 8.01501 266.867 8.15301C267.053 8.18201 267.228 8.05501 267.257 7.86901C267.286 7.68301 267.16 7.50801 266.973 7.47901C266.094 7.34001 265.205 7.20701 264.304 7.08101C263.868 7.01301 263.77 7.70201 264.21 7.75701ZM289.359 24.054C290.2 24.295 291.035 24.548 291.863 24.814C292.043 24.871 292.235 24.773 292.292 24.593C292.35 24.414 292.251 24.221 292.071 24.164C291.236 23.896 290.395 23.641 289.547 23.398C289.124 23.27 288.931 23.938 289.359 24.054ZM290.105 13.91C290.949 14.203 291.78 14.501 292.6 14.804C292.777 14.869 292.973 14.779 293.038 14.602C293.104 14.425 293.014 14.229 292.837 14.164C292.013 13.859 291.177 13.559 290.329 13.265C289.914 13.114 289.684 13.771 290.105 13.91ZM343.995 42.987C344.391 43.184 344.692 42.558 344.291 42.372C343.496 41.99 342.703 41.591 341.911 41.177C341.744 41.09 341.538 41.154 341.451 41.321C341.364 41.488 341.428 41.694 341.595 41.781C342.394 42.198 343.193 42.601 343.995 42.986V42.987ZM258.528 21.709C259.382 21.644 260.232 21.585 261.077 21.533C261.265 21.521 261.408 21.359 261.396 21.171C261.385 20.983 261.223 20.84 261.035 20.852C260.187 20.904 259.333 20.964 258.476 21.029C258.035 21.056 258.087 21.75 258.528 21.709ZM148.893 17.537C149.745 17.361 150.602 17.185 151.465 17.01C151.649 16.973 151.769 16.793 151.731 16.608C151.694 16.423 151.514 16.304 151.329 16.342C150.466 16.517 149.608 16.693 148.755 16.869C148.321 16.952 148.46 17.633 148.893 17.537ZM289.166 42.561C288.726 42.599 288.795 43.291 289.234 43.24C289.72 43.074 290.726 43.42 290.827 42.766C290.631 42.126 289.672 42.621 289.166 42.561ZM190.723 34.307C190.254 34.562 189.23 34.437 189.274 35.099C189.604 35.673 190.384 35.001 190.917 34.961C191.343 34.841 191.145 34.175 190.723 34.307ZM285.039 12.271C285.893 12.528 286.736 12.791 287.566 13.059C287.746 13.117 287.938 13.019 287.996 12.839C288.054 12.66 287.956 12.467 287.776 12.409C286.941 12.139 286.094 11.875 285.236 11.616C284.814 11.482 284.614 12.148 285.039 12.269V12.271ZM286.998 22.713C286.508 22.624 283.006 21.486 284.28 22.781C284.915 22.863 288.237 23.99 286.998 22.713ZM279.911 10.842C280.772 11.063 281.621 11.291 282.46 11.524C282.641 11.575 282.829 11.468 282.88 11.287C282.931 11.105 282.824 10.917 282.643 10.867C281.8 10.632 280.946 10.404 280.08 10.181C279.654 10.065 279.479 10.738 279.911 10.842ZM346.437 44.104C347.261 44.46 348.09 44.798 348.924 45.114C349.1 45.181 349.297 45.092 349.364 44.916C349.431 44.74 349.342 44.543 349.166 44.476C348.342 44.164 347.523 43.83 346.708 43.478C346.305 43.296 346.028 43.935 346.437 44.104ZM174.69 12.713C175.553 12.569 176.42 12.426 177.29 12.285C177.475 12.255 177.602 12.079 177.572 11.894C177.541 11.708 177.366 11.582 177.18 11.612C176.309 11.754 175.442 11.896 174.578 12.041C174.141 12.107 174.253 12.793 174.69 12.714V12.713ZM185.065 11.071C185.926 10.942 186.79 10.815 187.656 10.689C187.843 10.662 187.972 10.489 187.945 10.302C187.918 10.116 187.745 9.98601 187.558 10.013C186.691 10.139 185.826 10.267 184.964 10.396C184.527 10.455 184.628 11.143 185.065 11.071ZM179.873 11.871C180.735 11.735 181.6 11.599 182.467 11.466C182.654 11.437 182.781 11.263 182.753 11.077C182.724 10.891 182.55 10.763 182.364 10.792C181.495 10.926 180.629 11.061 179.766 11.198C179.328 11.261 179.436 11.948 179.873 11.872V11.871ZM195.458 9.60901C196.324 9.49501 197.193 9.38201 198.064 9.27201C198.251 9.24801 198.383 9.07701 198.359 8.89101C198.336 8.70401 198.165 8.57201 197.978 8.59601C197.106 8.70701 196.236 8.81901 195.368 8.93401C194.93 8.98601 195.019 9.67501 195.458 9.61101V9.60901ZM164.356 14.522C165.211 14.365 166.07 14.21 166.933 14.055C167.118 14.022 167.242 13.844 167.209 13.659C167.175 13.474 166.998 13.35 166.813 13.383C165.949 13.538 165.089 13.693 164.233 13.85C163.797 13.923 163.921 14.608 164.356 14.521V14.522ZM159.201 15.487C160.052 15.324 160.907 15.163 161.767 15.002C161.952 14.967 162.074 14.789 162.039 14.604C162.005 14.419 161.826 14.297 161.641 14.331C160.781 14.492 159.925 14.654 159.073 14.817C158.638 14.894 158.767 15.577 159.201 15.487ZM169.518 13.598C170.378 13.447 171.242 13.298 172.109 13.15C172.295 13.118 172.42 12.942 172.388 12.756C172.356 12.57 172.18 12.446 171.994 12.477C171.126 12.625 170.261 12.775 169.4 12.926C168.963 12.996 169.082 13.681 169.518 13.598ZM154.042 16.494C154.894 16.325 155.75 16.156 156.611 15.988C157.916 14.737 154.413 15.771 153.909 15.825C153.474 15.905 153.609 16.587 154.042 16.494ZM200.663 8.94801C201.532 8.84201 202.402 8.73701 203.274 8.63501C203.461 8.61301 203.595 8.44301 203.573 8.25601C203.55 8.06901 203.381 7.93501 203.194 7.95701C202.321 8.06001 201.45 8.16401 200.58 8.27101C200.141 8.31801 200.224 9.00901 200.663 8.94801ZM242.949 6.14501C243.859 6.16101 244.76 6.18301 245.651 6.21101C245.84 6.21701 245.997 6.06901 246.003 5.88101C246.009 5.69301 245.861 5.53501 245.673 5.52901C244.778 5.50101 243.874 5.47901 242.961 5.46301C242.519 5.44901 242.505 6.14401 242.949 6.14501ZM248.363 22.739C249.095 22.47 250.982 22.838 251.201 22.061C250.818 21.348 249.046 22.14 248.28 22.061C247.841 22.109 247.925 22.799 248.363 22.738V22.739ZM243.298 23.418C243.903 23.293 247.35 23.124 245.738 22.39C245.056 22.506 241.689 22.702 243.298 23.418ZM248.318 6.31201C249.199 6.35201 250.071 6.39801 250.934 6.44901C251.122 6.46001 251.284 6.31701 251.295 6.12901C251.306 5.94101 251.163 5.77901 250.975 5.76801C250.108 5.71601 249.233 5.67101 248.349 5.63101C247.909 5.60501 247.876 6.29901 248.318 6.31301V6.31201ZM253.439 22.164C254.18 21.911 256.054 22.322 256.291 21.551C256.274 21.363 256.108 21.225 255.921 21.241C255.074 21.317 254.223 21.398 253.37 21.485C252.93 21.523 253 22.215 253.439 22.164ZM205.878 8.33301C206.746 8.23501 207.615 8.13901 208.486 8.04501C208.673 8.02501 208.808 7.85701 208.788 7.66901C208.768 7.48201 208.6 7.34601 208.412 7.36601C207.541 7.46001 206.67 7.55601 205.801 7.65401C205.362 7.69701 205.439 8.38801 205.878 8.33201V8.33301ZM253.64 6.63001C254.532 6.69701 255.415 6.77001 256.287 6.84801C256.475 6.86501 256.641 6.72701 256.658 6.53901C256.675 6.35101 256.536 6.18501 256.349 6.16901C255.472 6.09001 254.586 6.01701 253.691 5.95001C253.251 5.91101 253.197 6.60401 253.64 6.63001ZM238.136 23.515C237.699 23.579 237.809 24.266 238.245 24.189C238.962 23.895 240.866 24.189 241.055 23.404C240.645 22.707 238.902 23.566 238.136 23.515ZM237.655 6.12001C238.554 6.11301 239.445 6.11101 240.327 6.11501C240.515 6.11501 240.669 5.96401 240.67 5.77501C240.67 5.58701 240.519 5.43301 240.33 5.43201C239.445 5.42801 238.551 5.42901 237.649 5.43701C237.208 5.43401 237.211 6.13001 237.655 6.11901V6.12001ZM379.9 40.601C382.153 40.567 381.783 38.19 379.9 37.801C378.034 37.75 378.146 40.64 379.9 40.601ZM344.425 57.298C343.572 57.177 342.734 57.042 341.91 56.892C340.251 57.587 343.807 57.877 344.329 57.973C344.766 58.041 344.864 57.353 344.425 57.297V57.298ZM349.413 51.081C349.462 50.899 349.355 50.712 349.173 50.663C348.336 50.437 347.501 50.19 346.667 49.924C346.487 49.867 346.295 49.966 346.238 50.145C346.181 50.324 346.28 50.516 346.46 50.574C347.303 50.843 348.148 51.092 348.995 51.321C349.177 51.37 349.364 51.263 349.413 51.081ZM343.959 49.722C344.136 49.786 344.332 49.694 344.396 49.517C344.46 49.34 344.369 49.144 344.191 49.08C343.376 48.785 342.561 48.473 341.746 48.146C341.571 48.076 341.372 48.161 341.302 48.336C341.232 48.511 341.317 48.709 341.492 48.78C342.313 49.11 343.136 49.424 343.959 49.723V49.722ZM349.496 57.814C348.634 57.76 347.787 57.69 346.954 57.606C345.355 58.429 348.923 58.44 349.453 58.495C349.893 58.529 349.939 57.835 349.496 57.814ZM359.434 52.971C359.622 52.978 359.78 52.831 359.787 52.643C359.794 52.455 359.647 52.296 359.459 52.289C358.589 52.256 357.722 52.196 356.858 52.109C356.671 52.09 356.503 52.227 356.485 52.414C356.466 52.602 356.602 52.769 356.79 52.788C357.667 52.877 358.548 52.938 359.434 52.972V52.971ZM354.596 57.938C353.732 57.949 352.883 57.944 352.047 57.924C351.859 57.919 351.702 58.068 351.698 58.257C351.693 58.445 351.842 58.602 352.03 58.606C352.875 58.626 353.732 58.632 354.604 58.62C355.047 58.621 355.039 57.926 354.596 57.938ZM354.555 52.16C354.585 51.974 354.458 51.799 354.272 51.769C353.415 51.631 352.561 51.468 351.709 51.282C351.525 51.242 351.343 51.359 351.303 51.543C351.263 51.727 351.38 51.909 351.564 51.949C352.427 52.137 353.294 52.302 354.164 52.443C354.35 52.473 354.525 52.347 354.555 52.16ZM337.267 38.591C336.89 38.362 336.536 38.961 336.922 39.179C337.697 39.635 338.47 40.079 339.243 40.51C339.408 40.602 339.616 40.543 339.707 40.378C339.799 40.214 339.74 40.006 339.576 39.914C338.808 39.485 338.039 39.043 337.267 38.59V38.591ZM351.459 46.003C352.312 46.277 353.172 46.528 354.043 46.755C355.757 46.231 352.21 45.601 351.668 45.354C351.25 45.213 351.035 45.874 351.459 46.004V46.003ZM328.205 32.956C327.836 32.712 327.461 33.297 327.837 33.531C328.603 33.809 329.876 35.328 330.562 34.865C330.694 34.051 328.777 33.536 328.205 32.956ZM339.412 56.389C338.573 56.204 337.747 56.005 336.934 55.794C335.228 56.364 338.755 56.918 339.265 57.055C339.695 57.157 339.846 56.478 339.412 56.389ZM334.478 55.112C333.655 54.868 332.844 54.614 332.044 54.35C330.303 54.8 333.781 55.592 334.284 55.767C334.706 55.899 334.904 55.232 334.478 55.113V55.112ZM356.662 47.355C357.534 47.527 358.417 47.674 359.312 47.795C360.94 47.075 357.422 46.878 356.794 46.686C356.362 46.594 356.226 47.276 356.662 47.355ZM329.632 53.516C328.825 53.225 328.028 52.926 327.24 52.622C325.483 52.974 328.885 53.945 329.401 54.158C329.814 54.314 330.051 53.66 329.632 53.516ZM329.902 42.54C329.132 42.133 328.359 41.72 327.585 41.303C327.419 41.213 327.212 41.275 327.123 41.441C327.033 41.607 327.095 41.814 327.261 41.903C328.037 42.322 328.811 42.736 329.584 43.143C329.972 43.355 330.298 42.74 329.902 42.54ZM336.65 46.674C337.452 47.047 338.254 47.409 339.056 47.759C339.229 47.834 339.43 47.755 339.505 47.582C339.58 47.409 339.501 47.208 339.329 47.133C338.532 46.786 337.735 46.426 336.938 46.055C336.54 45.863 336.247 46.492 336.65 46.674ZM334.575 44.925C333.795 44.542 333.014 44.15 332.231 43.75C332.064 43.664 331.858 43.731 331.772 43.898C331.687 44.066 331.753 44.271 331.921 44.357C332.706 44.759 333.491 45.152 334.275 45.537C334.669 45.737 334.975 45.113 334.575 44.924V44.925ZM323.704 30.082C323.334 29.84 322.961 30.426 323.339 30.658C324.104 30.931 325.37 32.443 326.053 31.983C326.187 31.171 324.276 30.654 323.704 30.082ZM332.708 35.815C332.337 35.575 331.967 36.164 332.346 36.393C333.111 36.663 334.414 38.164 335.091 37.687C335.204 36.872 333.287 36.391 332.708 35.814V35.815ZM389.9 41.339C392.788 41.389 392.588 37.644 389.9 37.463C387.375 37.397 387.375 41.405 389.9 41.339ZM389.9 38.539C391.116 38.656 391.397 40.324 389.9 40.263C388.771 40.309 388.771 38.493 389.9 38.539ZM359.675 57.693C358.815 57.764 357.969 57.819 357.135 57.86C355.675 58.905 359.19 58.395 359.732 58.373C360.172 58.343 360.116 57.65 359.675 57.693ZM379.9 54.701C378.033 54.65 378.146 57.54 379.9 57.501C382.153 57.467 381.783 55.09 379.9 54.701ZM358.527 21.734C359.402 30.317 372.02 29.145 371.369 20.529C370.957 11.986 357.781 13.164 358.527 21.734ZM365.466 26.927C358.071 27.644 358.887 16.77 365.333 16.374C372.93 15.602 371.899 26.421 365.466 26.927ZM389.967 54.167C387.402 54.008 387.332 58.103 389.9 58.038C392.77 58.038 392.572 54.585 389.967 54.167ZM390.673 56.748C389.31 57.695 388.197 55.526 389.866 55.239C390.454 55.316 391.457 56.278 390.673 56.748ZM384.6 54.701C382.773 54.645 382.773 57.557 384.6 57.501C386.799 57.492 386.559 55.059 384.6 54.701ZM558.7 36.601C559.282 36.58 559.62 35.992 559.6 35.501V30.001C559.6 30.001 559.6 29.801 559.5 29.601C559.4 29.501 559.3 29.301 559.2 29.201C559.4 28.785 550.25 29.089 550.1 29.001V22.601C550.1 22.301 549.9 22.101 549.6 22.101L504.1 21.901C499.774 22.139 485.216 21.314 481.2 22.501C472.222 24.651 466.228 34.398 468.158 43.377C464.703 42.365 443.681 35.946 447.175 44.557H447.176C447.93 46.618 450.263 48.926 449.8 51.201C447.062 55.191 434.423 52.739 429.775 52.612L427.784 49.583C427.493 49.189 427.184 48.648 426.973 48.349L426.586 47.76C426.71 43.516 426.865 33.824 427.1 32.701C427.147 32.042 426.573 31.626 425.837 31.413C426.376 31.048 426.7 30.46 426.7 29.801C426.5 25.601 427 16.801 427.1 15.801C427.1 13.058 423.741 12.139 422.57 12.478C409.026 12.587 393.98 12.632 380.399 12.756C379.874 12.144 379.497 11.154 378.712 10.864C378.371 10.56 378.098 9.86701 377.578 9.94601L374.585 10.975C374.036 10.495 373.439 10.011 372.775 9.59601C372.643 8.89801 373.172 5.58801 372.268 5.36501C371.015 4.84301 369.561 4.41801 368.2 4.22501C367.944 4.23501 367.827 4.37401 367.737 4.49901C367.442 4.47001 367.032 4.29601 366.862 4.63701L365.565 7.32501C364.36 7.29901 362.811 7.31601 361.644 7.68001C361.318 7.31801 360.787 6.13201 360.23 6.09901C360.009 5.89801 359.687 5.05701 359.275 5.24601C357.605 5.99801 355.334 6.76001 354.439 8.30101L355.28 11.291C354.394 12.195 353.583 13.191 352.997 14.277C352.663 14.308 349.889 13.386 349.857 13.95C349.289 15.626 348.156 17.745 348.61 19.424L349.329 19.845C349.163 20.273 351.125 21.077 351.328 21.289C351.397 22.403 351.531 23.567 351.847 24.638L349.504 26.08C349.068 26.428 349.6 27.015 349.691 27.434C349.97 28.726 351.381 32.317 352.789 32.275C352.833 32.275 352.878 32.27 352.919 32.256L355.841 31.282C356.552 31.939 357.314 32.502 358.077 33.078L357.769 35.052C357.27 35.444 357.348 36.155 357.955 36.445C359.24 36.785 363.71 39.455 364.636 37.967L365.737 35.665C367.106 35.413 368.709 35.428 370.138 34.918C370.153 34.954 370.173 34.992 370.202 35.028L371.479 36.895C371.785 37.421 372.412 37.391 372.874 37.089C373.098 40.059 371.52 47.066 374.841 48.219C374.015 48.468 372.913 49.674 373.276 50.803C373.247 51.379 373.216 51.96 373.185 52.544C373.315 56.079 371.871 62.994 374.294 65.555C372.958 65.693 372.201 65.841 372.201 66C372.201 66.5 372.701 67.4 378.401 67.7C390.251 67.961 413.938 67.798 426.054 67.269C427.194 71.396 431.845 75.279 436.234 73.294C436.389 73.145 436.534 73.043 436.664 72.81C436.78 72.606 436.762 72.292 436.614 72.094C436.602 72.082 433.43 67.217 433.423 67.203L434.697 66.366C434.935 66.222 435.141 66.09 435.3 65.97L435.993 65.515L437.973 68.485L438.443 70.011C438.863 70.792 440.932 70.228 441.422 69.695C444.961 63.763 439.529 57.277 433.145 57.736L430.717 54.043C436.87 54.506 457.056 57.965 449.079 46.101C448.28 44.669 446.472 42.256 449.001 41.701C455.493 40.541 462.169 42.911 468.437 44.583C470.507 52.796 478.857 58.513 487.201 58.101C490.791 58.133 500.484 58.034 504.201 58.001L549.601 57.801C549.901 57.801 550.101 57.601 550.101 57.301V50.801C550.511 50.674 558.964 51.075 559.101 50.601C559.401 50.401 559.501 49.901 559.501 49.701V44.201C559.501 44.201 559.501 43.901 559.401 43.801C559.301 43.601 559.201 43.501 559.101 43.401C559.307 42.985 550.274 43.289 550.101 43.201V36.601H558.701H558.7ZM421.17 30.773C425.167 30.817 424.919 33.934 424.81 36.951C424.582 39.545 425.355 42.371 424.672 44.849L421.627 40.217C423.26 37.338 423.454 33.346 421.17 30.774V30.773ZM379.308 13.905C390.935 13.783 403.779 13.696 415.4 13.601C421.493 13.39 425.658 12.179 424.81 19.65C424.533 24.07 426.76 30.311 420.091 29.689C418.531 28.49 416.173 27.56 414.166 27.798C413.054 27.526 411.518 28.414 412.413 29.6C400.508 29.686 387.455 29.908 376.388 30.115C375.072 30.009 374.07 29.491 374 27.6C373.799 23.495 374 19.308 374.1 15.184C374.722 13.821 377.481 13.871 379.308 13.904V13.905ZM373.1 32.601C373.072 33.418 373.021 34.232 372.978 35.06C372.57 35.296 372.15 35.518 371.721 35.727L370.104 33.482C370 33.337 369.808 33.286 369.645 33.36C368.592 33.839 367.44 34.128 366.185 34.226C365.911 34.297 364.372 34.035 364.262 34.438L362.979 37.097C361.398 36.895 359.829 36.457 358.413 35.785C358.365 35.49 359.158 32.589 358.689 32.477C357.333 31.915 356.369 30.343 355.081 29.745L352.335 30.661C351.406 29.429 350.703 28.041 350.156 26.561C353.355 24.47 352.666 25.94 352.173 22.26C351.96 21.727 352.299 20.925 351.89 20.478L349.203 18.903C349.402 17.423 349.832 15.941 350.425 14.529C350.732 14.491 353.454 15.4 353.535 14.869C354.011 13.546 355.484 12.557 356.061 11.3L355.229 8.34301C356.474 7.38901 357.795 6.60301 359.264 6.05001L360.997 8.42201C361.1 8.56301 361.287 8.61401 361.448 8.54501C362.08 8.27401 362.921 8.17501 363.723 8.07501H365.8C366.203 8.22801 367.234 5.39601 367.419 5.20801C368.782 5.40801 370.08 5.82801 371.392 6.34201C371.452 6.64301 370.719 9.62601 371.256 9.64601C372.577 10.027 373.454 11.364 374.622 11.755L377.598 10.732C378.177 11.339 378.682 12.021 379.114 12.779C375.073 12.634 372.651 12.891 372.984 17.646C373.135 20.899 371.574 28.772 374.296 30.683C373.682 31.065 373.239 31.67 373.1 32.6V32.601ZM374 44.901C373.799 40.796 374 36.609 374.1 32.485C374.905 30.817 378.593 31.277 380.5 31.201C390.903 31.053 402.87 31.033 413.267 30.91C413.271 31.023 415.545 34.132 415.253 34.214L412.927 35.741L409.603 31.48C409.298 31.062 408.757 30.996 408.342 31.246C407.066 30.928 406.745 32.746 406.437 33.608C404.88 39.309 410.148 43.807 415.589 43.414L417.887 46.911C407.271 46.881 393.021 47.098 383.2 47.301C381.532 47.301 379.832 47.4 378.189 47.402C376.093 47.502 374.1 47.597 374 44.902V44.901ZM423.6 64.101C422.104 64.893 419.614 64.508 417.8 64.501H411.9C404.099 64.601 391.001 64.801 383.2 64.901C381.474 64.918 379.747 64.983 378.022 65.021C376.143 65.127 374.281 65.231 374 62.701C373.496 58.684 374.008 54.359 374.099 50.256C374.915 48.432 378.486 48.968 380.4 49.001C392.884 48.721 406.466 49.039 418.935 48.504L425.054 57.815C425.209 60.06 425.523 63.099 423.6 64.101ZM431.277 58.092C431.506 58.477 431.933 58.578 432.336 58.574C433.482 58.382 434.716 58.471 435.962 58.949C439.869 60.432 441.656 65.639 439.3 69.05C439.164 69.053 436.112 64.274 436.023 64.208C435.837 63.82 435.307 63.779 434.994 63.986L431.51 66.276C431.121 66.461 431.079 66.991 431.286 67.305L434.486 72.205C434.513 72.242 434.511 72.292 434.485 72.325C428.793 73.303 424.412 66.431 427.718 61.698C427.875 61.321 428.023 60.848 427.696 60.466L416.023 42.708C415.787 42.317 415.37 42.314 415.027 42.331C410.253 43.354 405.812 38.456 407.162 33.797C407.36 33.107 407.547 32.555 407.912 32.007C407.935 31.939 408.166 31.933 408.188 32.007L411.287 36.705C411.592 37.097 412.149 37.099 412.468 36.934C412.561 36.873 415.687 34.839 415.765 34.764C416.114 34.41 416.096 33.913 415.914 33.594L412.914 28.994C412.856 28.885 413.009 28.627 413.199 28.565C418.822 27.928 422.886 34.67 419.575 39.313C419.412 39.62 419.409 39.956 419.565 40.267C419.584 40.321 431.253 58.04 431.277 58.09V58.092ZM549.15 43.076C549.068 43.513 549.526 44.108 550 44.101H558.5V49.801H549.9C549.6 49.901 549.3 50.201 549.2 50.501V57.099C540.691 57.064 500.562 56.905 493 56.801H487.3C478.013 57.134 469.508 49.511 469.5 40.101C469.268 32.724 474.412 26.006 481.5 24.101C485.213 22.878 500.043 23.756 504.1 23.501L549.1 23.304V28.902C549.16 29.471 549.256 30.142 550 30.202H558.5V35.902H549.8C549.5 36.002 549.2 36.302 549.1 36.602V42.802C549.15 42.902 549.15 42.977 549.15 43.077V43.076ZM379.9 23.301C382.167 23.273 381.782 20.818 379.9 20.501C378.034 20.45 378.146 23.34 379.9 23.301ZM384.6 40.801C386.819 40.838 386.545 38.16 384.6 38.001C382.773 37.945 382.773 40.857 384.6 40.801ZM368.536 56.466C368.066 56.674 367.019 56.432 366.984 57.096C367.248 57.712 368.152 57.119 368.664 57.136C369.1 57.059 368.97 56.376 368.536 56.466ZM364.759 57.106C363.899 57.233 363.052 57.344 362.218 57.44C360.831 58.585 364.324 57.832 364.858 57.781C365.296 57.723 365.196 57.035 364.759 57.106ZM361.991 48.07C362.877 48.133 363.776 48.17 364.688 48.179C364.877 48.181 365.031 48.03 365.033 47.841C365.035 47.652 364.884 47.498 364.695 47.497C363.796 47.488 362.912 47.452 362.04 47.39C361.6 47.352 361.548 48.045 361.991 48.07ZM193.148 9.57201C193.122 9.38501 192.95 9.25501 192.764 9.28001C191.896 9.39801 191.03 9.51801 190.167 9.64001C189.981 9.66601 189.851 9.83901 189.877 10.025C189.903 10.212 190.076 10.342 190.262 10.315C191.124 10.194 191.989 10.074 192.856 9.95601C193.042 9.93101 193.173 9.75901 193.148 9.57201ZM368.533 51.565C368.06 51.782 367.006 51.527 366.961 52.193C367.223 52.817 368.152 52.222 368.667 52.234C369.102 52.153 368.967 51.471 368.533 51.565ZM389.9 24.037C392.788 24.087 392.588 20.342 389.9 20.161C387.375 20.095 387.375 24.103 389.9 24.037ZM389.9 21.237C391.116 21.354 391.397 23.022 389.9 22.961C388.771 23.007 388.771 21.191 389.9 21.237ZM368.674 47.359C368.167 47.521 367.135 47.138 367.005 47.801C367.202 48.455 368.204 47.963 368.726 48.04C369.168 48.013 369.115 47.319 368.674 47.36V47.359ZM384.6 23.499C386.819 23.535 386.545 20.858 384.6 20.699C382.773 20.643 382.773 23.555 384.6 23.499ZM364.727 52.816C365.167 52.78 365.102 52.088 364.661 52.137C363.791 52.221 362.925 52.274 362.064 52.299C361.875 52.304 361.727 52.461 361.732 52.65C361.738 52.838 361.895 52.987 362.083 52.981C362.96 52.956 363.841 52.902 364.727 52.816ZM229.99 5.97101C229.981 5.78301 229.822 5.63701 229.634 5.64501C228.735 5.68401 227.828 5.72801 226.913 5.77801C226.725 5.78801 226.581 5.94901 226.591 6.13701C226.602 6.32501 226.762 6.46901 226.951 6.45901C227.863 6.40901 228.767 6.36501 229.664 6.32601C229.852 6.31801 229.998 6.15901 229.99 5.97001V5.97101ZM230.564 24.826C229.721 24.982 228.882 25.14 228.047 25.3C227.862 25.336 227.741 25.514 227.776 25.699C227.812 25.884 227.99 26.005 228.175 25.97C229.009 25.81 229.847 25.652 230.688 25.497C231.124 25.423 230.999 24.739 230.564 24.826ZM297.048 25.918C296.229 25.604 295.403 25.299 294.572 25.006C294.394 24.943 294.199 25.036 294.137 25.214C294.074 25.392 294.167 25.586 294.345 25.649C295.17 25.94 295.99 26.243 296.804 26.555C297.214 26.719 297.465 26.071 297.048 25.918ZM235.281 5.81001C235.277 5.62201 235.121 5.47201 234.933 5.47601C234.065 5.49401 233.19 5.51701 232.307 5.54501C232.119 5.55101 231.971 5.70901 231.977 5.89701C231.983 6.08501 232.14 6.23301 232.329 6.22701C233.209 6.19901 234.082 6.17601 234.947 6.15801C235.135 6.15401 235.285 5.99801 235.281 5.81001ZM225.533 25.792C224.69 25.96 223.853 26.129 223.023 26.3C222.838 26.338 222.719 26.518 222.757 26.703C222.795 26.888 222.976 27.006 223.16 26.968C223.99 26.797 224.825 26.628 225.666 26.461C226.101 26.381 225.966 25.699 225.533 25.792ZM236.003 24.212C235.972 24.026 235.796 23.901 235.61 23.933C234.766 24.076 233.924 24.222 233.085 24.371C232.9 24.404 232.776 24.581 232.809 24.767C232.842 24.953 233.019 25.076 233.205 25.043C234.042 24.895 234.881 24.749 235.724 24.606C235.909 24.575 236.035 24.398 236.003 24.213V24.212ZM295.622 42.412C294.775 42.364 293.915 42.343 293.042 42.349C292.854 42.35 292.702 42.504 292.703 42.693C292.705 42.881 292.859 43.033 293.047 43.032C293.906 43.026 294.751 43.047 295.584 43.094C296.025 43.125 296.065 42.431 295.622 42.413V42.412ZM287.773 69.859C288.307 69.039 288.461 67.959 288.4 67.001L288.5 59.901C288.5 59.734 288.361 59.497 288.198 59.424L283.585 50.793C285.58 50.256 283.58 46.568 283.7 45.101C283.351 43.441 283.004 41.777 282.609 40.119C292.383 41.369 291.927 27.53 283.2 26.901C283.16 27.378 283.569 27.503 283.95 27.651C287.275 28.775 289.997 32.346 288.8 35.901C285.841 42.929 274.47 37.533 276.877 30.76H276.91C276.98 30.566 277.058 30.38 277.144 30.201H277.107C277.714 28.951 278.783 28.118 280.2 27.701C280.5 27.601 280.7 27.501 280.7 27.101C280.508 26.906 280.225 26.907 280 26.801C278.345 27.422 276.843 28.675 276.239 30.201C275.704 30.207 273.679 30.155 273.2 30.301C272.92 30.333 272.339 30.214 272.1 30.401C271.927 30.432 271.525 30.315 271.4 30.501C270.614 30.502 269.866 30.703 269.1 30.801C268.472 30.969 267.746 30.979 267.1 31.101C266.9 31.201 266.8 31.201 266.6 31.201C262.275 32.391 257.953 33.825 253.644 35.253L248.6 35.401C247.093 35.383 245.735 36.598 245.2 37.901C243.385 41.771 239.442 50.178 237.7 54.001C237.23 55.015 235.909 57.789 235.5 58.801C235.379 59.151 234.807 59.958 235.171 60.092C235.007 64.939 233.349 73.03 240.5 73.101C252.983 72.835 295.627 75.603 293.234 70.138C291.46 69.673 289.994 69.938 287.773 69.859ZM252 36.601C259.858 34.234 267.823 31.411 276.028 30.798C275.536 32.449 275.852 34.416 276.7 35.922C267.653 46.154 262.045 46.033 251.9 37.201V37.159L251.701 37.001C251.701 36.701 251.9 36.601 252 36.601ZM251.75 38.301C251.8 38.226 251.85 38.151 251.9 38.101C261.735 46.517 268.732 47.501 277.23 36.761C278.264 38.195 279.772 39.31 281.475 39.851C282.277 42.913 283.038 46.003 283.8 49.402C283.19 48.919 282.62 48.459 282.072 48.014C279.933 46.401 274.739 41.892 273.4 42.902C276.9 44.902 280.1 47.102 283.1 50.102C274.184 51.362 265.175 53.373 256.527 55.407C256.784 53.157 258.657 48.134 260.2 45.502C260.3 45.302 260.4 45.002 260.1 45.202C258.196 46.755 256.2 52.151 255.387 54.412C254.034 49.189 252.907 43.732 251.6 38.502C251.65 38.452 251.7 38.377 251.75 38.302V38.301ZM237.012 58.151C239.644 53.241 242.945 46.632 245.4 41.601C245.832 40.852 246.807 38.107 247.5 37.601C248.096 37.053 249.551 37.197 250.297 37.126C250.239 39.811 251.258 43.013 251.7 45.701C251.8 46.001 251.8 46.301 251.9 46.601C251.9 46.801 252 46.901 252 47.101C252.1 47.301 252.1 47.501 252.1 47.701C254.106 54.244 253.651 58.948 261.979 56.09C268.731 54.415 275.468 52.596 282.241 51.053L286.969 59.344C281.289 59.051 275.584 58.725 269.9 58.6C268.715 58.855 268.355 59.861 268.2 60.9C266.31 67.349 255.681 67.425 253.8 60.9C253.8 60.8 253.7 60.6 253.7 60.5C253.448 59.826 252.948 59.301 252.2 59.2C246.785 59.163 241.421 59.383 236 59.5C236.675 58.825 236.844 58.487 237.012 58.15V58.151ZM287.1 67.001V67.801C286.765 69.572 285.234 70.939 283.4 70.901C278.6 71.001 273.9 71.001 269.1 71.101L240.5 71.701C234.653 71.296 236.663 64.155 236.215 60.123C241.37 60.199 246.798 60.559 252.1 60.601C252.383 60.637 252.514 60.735 252.6 61.001C254.79 69.328 268.342 69.167 269.8 60.501C269.813 60.252 269.989 60.02 270.2 60.001C275.947 60.153 281.714 60.499 287.461 60.592L287.1 67.001ZM224.65 6.25401C224.637 6.06601 224.475 5.92301 224.287 5.93601C223.41 5.99301 222.525 6.05501 221.633 6.12301C221.445 6.13701 221.304 6.30101 221.319 6.48901C221.333 6.67701 221.497 6.81801 221.684 6.80401C222.574 6.73701 223.456 6.67501 224.331 6.61801C224.519 6.60601 224.662 6.44301 224.65 6.25501V6.25401ZM205.549 30.287C204.702 30.499 203.873 30.709 203.064 30.916C202.881 30.963 202.771 31.149 202.818 31.331C202.865 31.513 203.051 31.623 203.233 31.577C204.041 31.37 204.868 31.16 205.714 30.948C206.144 30.847 205.977 30.172 205.549 30.286V30.287ZM210.526 29.073C209.683 29.274 208.852 29.474 208.036 29.673C207.853 29.718 207.741 29.902 207.786 30.085C207.83 30.268 208.015 30.38 208.198 30.336C209.012 30.137 209.842 29.938 210.684 29.737C211.115 29.641 210.957 28.964 210.526 29.073ZM200.583 31.561C199.732 31.785 198.907 32.005 198.11 32.22C197.929 32.269 197.821 32.457 197.87 32.638C197.919 32.82 198.107 32.927 198.288 32.878C199.084 32.663 199.907 32.443 200.757 32.22C201.186 32.113 201.01 31.441 200.583 31.56V31.561ZM195.652 32.894C194.781 33.136 193.954 33.369 193.171 33.593C191.995 34.904 195.169 33.7 195.834 33.551C196.262 33.439 196.077 32.769 195.652 32.894ZM215.515 27.919C214.673 28.109 213.84 28.299 213.019 28.489C212.836 28.531 212.721 28.715 212.764 28.898C212.806 29.082 212.989 29.196 213.173 29.153C213.993 28.963 214.824 28.773 215.665 28.584C216.098 28.493 215.946 27.815 215.515 27.918V27.919ZM219.304 6.65201C219.083 6.00701 218.093 6.53501 217.569 6.46101C217.083 6.62101 216.042 6.28801 215.95 6.95201C216.162 7.58801 217.124 7.06901 217.631 7.14101C218.135 6.97401 219.195 7.32401 219.304 6.65201ZM220.516 26.825C219.674 27.004 218.84 27.184 218.014 27.364C217.83 27.404 217.713 27.586 217.754 27.77C217.794 27.954 217.976 28.071 218.16 28.03C218.985 27.85 219.818 27.67 220.658 27.491C221.092 27.406 220.949 26.725 220.516 26.824V26.825ZM214.013 7.13701C213.995 6.94901 213.828 6.81201 213.64 6.83101C212.769 6.91601 211.899 7.00401 211.03 7.09301C210.843 7.11201 210.707 7.28001 210.726 7.46701C210.745 7.65401 210.913 7.79101 211.1 7.77101C211.968 7.68201 212.836 7.59501 213.707 7.50901C213.894 7.49101 214.031 7.32401 214.013 7.13601V7.13701ZM320.148 49.701C319.385 49.375 318.55 49.017 317.793 48.695C317.619 48.621 317.419 48.702 317.345 48.875C317.271 49.048 317.352 49.249 317.526 49.322C318.282 49.644 319.117 50.002 319.88 50.328C320.284 50.508 320.558 49.869 320.148 49.7V49.701ZM322.974 38.78C322.59 38.561 322.254 39.169 322.645 39.377C323.415 39.802 324.182 40.225 324.948 40.644C325.113 40.735 325.32 40.674 325.411 40.509C325.501 40.344 325.441 40.136 325.276 40.046C324.511 39.627 323.744 39.205 322.974 38.78ZM313.743 33.731C313.356 33.518 313.027 34.131 313.422 34.333C314.197 34.746 314.968 35.161 315.736 35.578C315.902 35.668 316.109 35.607 316.199 35.441C316.288 35.275 316.227 35.068 316.061 34.978C315.292 34.561 314.519 34.144 313.743 33.731ZM314.565 24.51C314.185 24.283 313.837 24.884 314.224 25.101C315.008 25.344 316.326 26.816 316.998 26.338C317.107 25.518 315.163 25.059 314.565 24.51ZM315.428 47.7C314.635 47.37 313.842 47.047 313.05 46.733C312.875 46.663 312.676 46.749 312.607 46.924C312.537 47.099 312.623 47.297 312.798 47.367C313.587 47.679 314.376 48.001 315.167 48.33C315.573 48.506 315.84 47.864 315.428 47.7ZM318.371 36.241C317.987 36.023 317.651 36.632 318.043 36.839C318.813 37.262 319.58 37.685 320.345 38.108C320.51 38.199 320.717 38.139 320.808 37.974C320.899 37.809 320.839 37.602 320.675 37.51C319.91 37.088 319.142 36.664 318.371 36.241ZM309.899 21.907C309.513 21.692 309.183 22.304 309.576 22.508C310.366 22.932 311.144 23.359 311.912 23.788C312.076 23.88 312.284 23.821 312.376 23.656C312.468 23.492 312.409 23.284 312.244 23.192C311.474 22.762 310.692 22.333 309.899 21.907ZM324.865 51.681C324.071 51.358 323.284 51.031 322.503 50.702C322.329 50.629 322.129 50.71 322.056 50.884C321.983 51.058 322.065 51.258 322.239 51.331C323.021 51.66 323.81 51.988 324.608 52.313C325.015 52.486 325.279 51.842 324.865 51.681ZM319.161 27.249C318.787 27.013 318.423 27.606 318.805 27.831C319.581 28.093 320.866 29.594 321.548 29.129C321.673 28.312 319.744 27.814 319.161 27.249ZM311.414 32.507C310.637 32.103 309.856 31.703 309.07 31.308C308.902 31.223 308.697 31.291 308.612 31.459C308.528 31.627 308.595 31.832 308.764 31.917C309.546 32.311 310.325 32.71 311.1 33.112C311.489 33.321 311.812 32.705 311.414 32.507ZM305.763 44.2C305.009 44.153 303.328 43.13 302.859 43.8C302.816 43.984 302.929 44.167 303.113 44.211C303.94 44.406 304.76 44.622 305.575 44.857C305.998 44.985 306.191 44.317 305.763 44.201V44.2ZM302.708 18.295C301.913 17.924 301.108 17.557 300.29 17.195C300.117 17.119 299.916 17.196 299.84 17.369C299.763 17.541 299.84 17.743 300.013 17.819C300.827 18.179 301.629 18.544 302.419 18.913C302.817 19.106 303.112 18.477 302.708 18.295ZM301.924 27.928C301.121 27.576 300.313 27.231 299.499 26.896C299.325 26.824 299.125 26.907 299.053 27.081C298.982 27.255 299.065 27.455 299.239 27.526C300.048 27.859 300.851 28.202 301.65 28.552C302.052 28.735 302.332 28.099 301.924 27.927V27.928ZM300.744 43.02C300 43.05 298.205 42.217 297.814 42.937C297.791 43.124 297.925 43.294 298.112 43.316C298.959 43.417 299.796 43.543 300.623 43.691C301.057 43.776 301.181 43.091 300.744 43.019V43.02ZM298 16.576C298.072 16.402 297.99 16.202 297.817 16.13C297.006 15.791 296.184 15.457 295.35 15.128C295.175 15.059 294.976 15.145 294.907 15.32C294.838 15.495 294.924 15.693 295.1 15.763C295.929 16.09 296.747 16.423 297.553 16.76C297.727 16.833 297.927 16.751 298 16.577V16.576ZM310.65 45.813C309.844 45.516 309.035 45.231 308.222 44.962C308.044 44.903 307.851 45 307.791 45.178C307.732 45.357 307.829 45.55 308.008 45.609C308.813 45.876 309.614 46.158 310.414 46.453C310.826 46.612 311.068 45.96 310.65 45.813ZM306.709 30.139C305.919 29.757 305.125 29.38 304.326 29.01C304.155 28.931 303.953 29.005 303.873 29.176C303.794 29.347 303.869 29.55 304.04 29.629C304.835 29.997 305.625 30.372 306.411 30.753C306.806 30.951 307.11 30.327 306.709 30.139ZM307.521 20.656C306.739 20.254 305.946 19.855 305.141 19.46C304.971 19.377 304.767 19.447 304.684 19.616C304.601 19.785 304.671 19.99 304.84 20.073C305.641 20.466 306.43 20.863 307.209 21.264C307.599 21.472 307.917 20.854 307.521 20.657V20.656Z" fill="#647A93"/>
</svg>
