<svg width="40" height="42" viewBox="0 0 40 42" fill="none" xmlns="http://www.w3.org/2000/svg"><g clip-path="url(#clip0)"><path d="M3.422 20.824c-1.11 6.509 1.58 13.017 5.639 16.604 4.058 3.586 9.27 4.605 14.31 4.56 2.947 0 5.98-.354 8.8-1.815 2.819-1.417 5.467-4.074 6.749-7.616 2.136-5.711.427-12.309-2.307-17.09-1.666-2.878-3.716-5.358-6.023-7.35-3.716-3.188-20.846-9.963-26.356 7.88" fill="#1A2E44"/><path d="M1.543 18.211C.475 24.72 3.123 31.23 7.182 34.771c4.058 3.542 9.27 4.605 14.31 4.56 2.947 0 5.98-.354 8.8-1.815 2.819-1.417 5.467-4.073 6.748-7.616 2.136-5.711.428-12.308-2.306-17.09-1.666-2.878-3.717-5.358-6.023-7.35-3.674-3.188-20.803-9.918-26.356 7.925" fill="#fff"/><path d="M1.156 18.123C-.21 27.51 5.044 36.365 13.93 38.933c8.5 2.435 19.692.886 23.408-8.5 3.546-8.856-1.495-19.793-8.33-25.416-3.331-2.7-8.116-4.029-12.302-4.029-7.475.045-12.43 5.18-14.694 12.22-.214.576.512 1.063.726.355 1.922-5.889 5.81-10.627 12.046-11.38 4.015-.486 8.33.576 11.875 2.524 6.023 3.321 10.38 11.291 10.935 18.198.385 5.092-1.495 10.05-5.595 13.017-3.802 2.745-8.715 3.144-13.2 2.79-4.698-.399-9.397-1.993-12.644-5.668C2.652 29.06 1.2 23.525 1.968 18.256c.086-.708-.726-.797-.812-.133z" fill="#1A2E44"/></g><path d="M23.29 21.488l.443-2.895h-2.778v-1.88c0-.792.388-1.564 1.633-1.564h1.263v-2.465s-1.147-.196-2.243-.196c-2.288 0-3.783 1.387-3.783 3.898v2.207H15.28v2.895h2.544v7h3.13v-7h2.334z" fill="#1A2E44"/><defs><clipPath id="clip0"><path fill="#fff" transform="translate(.945 .988)" d="M0 0h39v41H0z"/></clipPath></defs></svg>