<svg width="40" height="42" viewBox="0 0 40 42" fill="none" xmlns="http://www.w3.org/2000/svg"><g clip-path="url(#clip0)"><path d="M3.422 20.824c-1.11 6.509 1.58 13.017 5.639 16.604 4.058 3.586 9.27 4.605 14.31 4.56 2.947 0 5.98-.354 8.8-1.815 2.819-1.417 5.467-4.074 6.749-7.616 2.136-5.711.427-12.309-2.307-17.09-1.666-2.878-3.716-5.358-6.023-7.35-3.716-3.188-20.846-9.963-26.356 7.88" fill="#1A2E44"/><path d="M1.543 18.211C.475 24.72 3.123 31.23 7.182 34.771c4.058 3.542 9.27 4.605 14.31 4.56 2.947 0 5.98-.354 8.8-1.815 2.819-1.417 5.467-4.073 6.748-7.616 2.136-5.711.428-12.308-2.306-17.09-1.666-2.878-3.717-5.358-6.023-7.35-3.674-3.188-20.803-9.918-26.356 7.925" fill="#fff"/><path d="M1.156 18.123C-.21 27.51 5.044 36.365 13.93 38.933c8.5 2.435 19.692.886 23.408-8.5 3.546-8.856-1.495-19.793-8.33-25.416-3.331-2.7-8.116-4.029-12.302-4.029-7.475.045-12.43 5.18-14.694 12.22-.214.576.512 1.063.726.355 1.922-5.889 5.81-10.627 12.046-11.38 4.015-.486 8.33.576 11.875 2.524 6.023 3.321 10.38 11.291 10.935 18.198.385 5.092-1.495 10.05-5.595 13.017-3.802 2.745-8.715 3.144-13.2 2.79-4.698-.399-9.397-1.993-12.644-5.668C2.652 29.06 1.2 23.525 1.968 18.256c.086-.708-.726-.797-.812-.133z" fill="#1A2E44"/></g><path d="M26.382 16.769a6.01 6.01 0 01-1.726.464 2.99 2.99 0 001.318-1.652 5.92 5.92 0 01-1.902.724 2.991 2.991 0 00-2.19-.948 2.997 2.997 0 00-2.997 3c0 .231.028.463.074.687a8.518 8.518 0 01-6.18-3.138c-.27.459-.41.981-.408 1.513a3 3 0 001.335 2.498 3.022 3.022 0 01-1.355-.381v.037a2.998 2.998 0 002.403 2.942 3.17 3.17 0 01-.79.102c-.194 0-.379-.02-.565-.046a3.003 3.003 0 002.802 2.08 6.008 6.008 0 01-3.721 1.281c-.252 0-.484-.008-.725-.037a8.487 8.487 0 004.604 1.345c5.513 0 8.529-4.567 8.529-8.53 0-.13 0-.26-.009-.39a6.455 6.455 0 001.503-1.551z" fill="#1A2E44"/><defs><clipPath id="clip0"><path fill="#fff" transform="translate(.945 .988)" d="M0 0h39v41H0z"/></clipPath></defs></svg>