<svg fill="none" height="67" viewBox="0 0 134 67" width="134" xmlns="http://www.w3.org/2000/svg"><g fill="#1a2e44"><path d="m44.3488 18.168h11.8071v28.2387zm-8.1667 0h-11.8071v28.2387zm4.0342 10.4296 7.3794 17.8091h-5.018l-2.1647-5.6084h-5.4116z"/><path d="m71.4071 24.5625 5.8052 15.0541h-2.755l-1.3775-3.6405-6.002-.0984-1.3775 3.6405h-2.755l5.7068-14.9557zm-3.4438 9.1505h4.3293l-2.263-6.0019z"/><path d="m84.2955 29.875v-5.2148h2.3614l-.0984 15.0541h-4.1325c-1.4759 0-2.5582-.492-3.4438-1.3775-.8855-.8856-1.2791-2.1647-1.2791-3.8374 0-.9839.1968-1.771.5904-2.5582.3936-.7871.9839-1.3775 1.6727-1.771.6887-.3936 1.4759-.6888 2.263-.6888.6888 0 1.3775.0984 2.0663.3936zm-1.2792 7.773h1.2792l.0983-5.8052c-.4919-.2951-.9839-.3935-1.4758-.3935-.7872 0-1.3775.2951-1.8695.7871-.492.5904-.6888 1.2791-.6888 2.1646-.2951 2.1647.6888 3.247 2.6566 3.247z"/><path d="m93.0525 29.5811c.9839 0 1.771.1968 2.5582.6888.7871.492 1.3775 1.0823 1.771 1.8695.3936.7871.5904 1.6726.5904 2.6566 0 1.0823-.1968 1.9678-.5904 2.755-.3935.7871-.9839 1.3775-1.771 1.8694-.7872.492-1.6727.6888-2.5582.6888-.984 0-1.7711-.1968-2.5583-.6888-.7871-.4919-1.3775-1.0823-1.771-1.8694-.3936-.7872-.5904-1.6727-.5904-2.755 0-.984.1968-1.8695.6888-2.6566.3935-.7872.9839-1.3775 1.771-1.7711.6888-.5904 1.5743-.8855 2.4599-.7872zm-2.4599 5.1165c0 .9839.1968 1.771.5904 2.3614s.9839.8855 1.7711.8855c.7871 0 1.3775-.2951 1.8694-.8855.492-.5904.6888-1.3775.6888-2.4598 0-.9839-.1968-1.7711-.6888-2.3614-.3935-.5904-1.0823-.8856-1.771-.8856-.6888 0-1.2792.2952-1.7711.8856-.492.6887-.6888 1.4758-.6888 2.4598z"/><path d="m101.91 24.8594v5.6084c.689-.5904 1.476-.7872 2.361-.7872.787 0 1.476.1968 2.165.6888.689.3935 1.181 1.0823 1.476 1.8694.393.7872.492 1.6727.492 2.6566 0 1.6727-.492 2.9518-1.378 3.9358-.885.9839-2.066 1.3775-3.64 1.3775-1.378 0-2.657-.2952-4.0344-.8856l.0984-14.3653zm-.099 12.8894c.492.1968 1.083.2952 1.771.2952.689 0 1.28-.2952 1.772-.8855.393-.5904.688-1.3775.688-2.4598 0-.984-.197-1.6727-.59-2.2631-.394-.5903-.984-.8855-1.673-.8855-.295 0-.59.0984-.885.1968s-.591.2952-.886.5903z"/><path d="m114.01 29.6797c1.279 0 2.361.492 3.148 1.4759s1.181 2.263 1.083 3.9357v.3936l-6.396-.0984c.098.8855.394 1.5743.886 2.0662.492.492 1.18.6888 2.066.7872.59 0 1.082-.0984 1.673-.2952.491-.1968 1.082-.5904 1.672-.9839v1.9678c-1.082.7872-2.361 1.1807-3.837 1.1807-1.378 0-2.558-.4919-3.444-1.4759-.885-.9839-1.279-2.263-1.279-3.8373s.394-2.755 1.279-3.7389c.689-.8855 1.771-1.3775 3.149-1.3775zm1.968 4.2309c-.099-.6888-.296-1.2791-.591-1.6727s-.787-.5904-1.377-.5904c-.591 0-1.083.1968-1.476.5904-.394.3936-.591.9839-.689 1.7711z"/></g></svg>