<svg fill="none" height="66" viewBox="0 0 131 66" width="131" xmlns="http://www.w3.org/2000/svg" xmlns:xlink="http://www.w3.org/1999/xlink"><clipPath id="a"><path d="m4.70703 25.668h122v20h-122z"/></clipPath><g clip-path="url(#a)" fill="#1a2e44"><path d="m80.5413 36.8855c0-2.1269-1.1424-3.1344-4.3251-3.8284-1.7705-.3806-2.196-.7835-2.196-1.3432 0-.6941.6276-1.0075 1.7925-1.0075 1.4121 0 2.8016.4254 4.1236 1.0298v-2.7985c-.9184-.4701-2.353-.8283-4.0335-.8283-3.1601 0-4.7962 1.3656-4.7962 3.6268 0 1.7911.829 3.2239 4.1011 3.8508 1.9495.403 2.353.7164 2.353 1.3656 0 .6269-.4035 1.0299-1.7924 1.0299-1.5916 0-3.4961-.5373-4.7292-1.2761v2.9328c.9866.4926 2.2861 1.0299 4.7067 1.0299 3.451 0 4.7955-1.5224 4.7955-3.7836z"/><path d="m115.031 28.2891v12.2014h2.6v-9.3134l1.098 2.4851 3.675 6.8283h3.273v-12.2014h-2.601v7.8806l-.986-2.2836-2.958-5.597z"/><path d="m98.4945 28.2891h-2.8461v12.1791h2.8461z"/><path d="m92.3733 36.8855c0-2.1269-1.143-3.1344-4.3256-3.8284-1.77-.3806-2.1961-.7835-2.1961-1.3432 0-.6941.6276-1.0075 1.7931-1.0075 1.4115 0 2.801.4254 4.1236 1.0298v-2.7985c-.919-.4701-2.353-.8283-4.0341-.8283-3.1601 0-4.7962 1.3656-4.7962 3.6268 0 1.7911.8296 3.2239 4.1011 3.8508 1.9501.403 2.3537.7164 2.3537 1.3656 0 .6269-.4036 1.0299-1.7931 1.0299-1.591 0-3.4961-.5373-4.7286-1.2761v2.9328c.986.4926 2.2861 1.0299 4.7061 1.0299 3.4516 0 4.7961-1.5224 4.7961-3.7836z"/><path d="m49.0547 28.2891v12.2014h5.8492l.9189-2.6417h-3.8995v-9.5597z"/><path d="m37.5352 28.2891v2.6418h3.1375v9.5596h2.8686v-9.5596h3.3841v-2.6418z"/><path d="m33.3875 28.2891h-3.7427l-4.2581 12.1791h3.2497l.605-2.0597c.7172.2015 1.4792.3358 2.2859.3358.7845 0 1.5464-.112 2.286-.3358l.605 2.0597h3.2497zm-1.8826 7.9477c-.5378 0-1.0757-.0895-1.5687-.2239l1.5687-5.3283 1.5688 5.3283c-.493.1344-1.0309.2239-1.5688.2239z"/><path d="m64.9655 28.2891h-3.7426l-4.2581 12.1791h3.2496l.6051-2.0597c.7172.2015 1.4791.3358 2.2859.3358.7844 0 1.5464-.112 2.286-.3358l.6051 2.0597h3.2497zm-1.8601 7.9477c-.5378 0-1.0757-.0895-1.5687-.2239l1.5687-5.3283 1.5688 5.3283c-.5154.1344-1.0309.2239-1.5688.2239z"/><path d="m108.735 28.2891h-3.743l-4.258 12.1791h3.25l.605-2.0597c.718.2015 1.479.3358 2.286.3358.785 0 1.547-.112 2.286-.3358l.605 2.0597h3.25zm-1.882 7.9477c-.539 0-1.076-.0895-1.569-.2239l1.569-5.3283 1.569 5.3283c-.493.1344-1.009.2239-1.569.2239z"/><path d="m92.3733 36.8829c0-2.1269-1.1205-3.1344-4.3256-3.8284-1.77-.3806-2.1961-.7835-2.1961-1.3433 0-.694.6276-1.0074 1.7931-1.0074 1.4115 0 2.801.4253 4.1236 1.0298v-2.7985c-1.255-.5821-2.6446-.8507-4.0341-.8283-3.1601 0-4.7962 1.3656-4.7962 3.6268 0 1.7911.8296 3.2239 4.1011 3.8507 1.9501.403 2.3537.7165 2.3537 1.3657 0 .6493-.4036 1.0299-1.7931 1.0299-1.6586-.0224-3.2946-.4702-4.7286-1.2761v2.9328c.986.4926 2.2861 1.0299 4.7061 1.0299 3.4291 0 4.7736-1.5224 4.7961-3.7836z"/><path d="m8.98287 32.5875c-.06724-.0896-.2017-.1344-.31376-.1344-.08964.0225-.17928.0896-.22411.1792l-3.69782 7.388c-.08964.1567-.02241.3582.13447.4254.04482.0224.08964.0447.13447.0447h5.15448c.1121 0 .2466-.0671.2914-.179 1.0981-2.2388.4258-5.709-1.47913-7.7239z"/><path d="m19.5379 40.0187c-.0896-.1343-6.925-13.8358-7.1043-14.1716-.0448-.112-.1345-.1791-.2465-.1791h-.0224c-.1121 0-.2241.0671-.2914.1791-1.8601 2.9328-2.06177 6.4925-.5602 9.4925l2.4876 4.9477c.0448.112.1569.1792.2913.1792h5.1546c.1793 0 .3137-.1343.3137-.3135 0-.0447 0-.0895-.0224-.1343z"/></g></svg>