<svg fill="none" height="66" viewBox="0 0 132 66" width="132" xmlns="http://www.w3.org/2000/svg" xmlns:xlink="http://www.w3.org/1999/xlink"><clipPath id="a"><path d="m20.3164 20.6484h99.9375v26h-99.9375z"/></clipPath><g clip-path="url(#a)"><path d="m63.7687 37.9262c0 2.2222-1.7797 4-3.9428 4h-4.2439l1.3964 4.75-6.9819-4.75h-25.7374c-2.163-.0278-3.9427-1.8333-3.9427-4v-13.2778c0-2.1944 1.7797-4 3.9427-4h35.5395c2.1904 0 3.9427 1.8056 3.9427 4v13.2778z" fill="#1a2e44"/><path d="m24.1485 26.0378c0-.9167.575-1.4167 1.3416-1.4167s1.3416.5 1.3416 1.4167v6.3333c0 1.6944 1.0405 3.0278 2.7654 3.0278 1.6154 0 2.738-1.4167 2.738-3.0278v-6.3333c0-.9167.575-1.4167 1.3417-1.4167.7666 0 1.3416.5 1.3416 1.4167v6.5c0 3.0555-2.4642 5.3611-5.4487 5.3611-3.0118 0-5.4486-2.2778-5.4486-5.3611v-6.5z" fill="#fff"/><path d="m42.0822 30.8715c-.4928 0-1.4785-.7777-2.3273-.7777-.4654 0-.9035.2222-.9035.75 0 1.2222 4.4629 1.0555 4.4629 4.0277 0 1.7778-1.4785 3.0834-3.6689 3.0834-1.4785 0-3.5868-.8334-3.5868-2.0278 0-.3889.3833-1.1667 1.1226-1.1667 1.013 0 1.4785.9167 2.6559.9167.7666 0 1.013-.2778 1.013-.75 0-1.2222-4.4629-1.0278-4.4629-4.0278 0-1.8055 1.4785-3.0555 3.5046-3.0555 1.2869 0 3.2309.5833 3.2309 1.8888.0274.5556-.4107 1.1389-1.0405 1.1389z" fill="#fff"/><path d="m46.8199 33.7335c.1917 1.3056 1.2321 1.8889 2.4369 1.8889 1.3142 0 2.2451-1.0556 2.9296-1.0556.5477 0 1.0405.5556 1.0405 1.1389 0 1.1389-2.3273 2.2222-4.2165 2.2222-2.9023 0-4.8463-2.1666-4.8463-5.0555 0-2.6667 1.8892-5.0833 4.6272-5.0833 2.8202 0 4.6273 2.5833 4.6273 4.7777 0 .7778-.356 1.1667-1.1226 1.1667zm4.0523-1.7222c-.1643-1.1389-.8488-2-2.0535-2-1.15 0-1.9166.9167-2.0535 2z" fill="#fff"/><path d="m54.7891 29.2313c0-.8611.6845-1.3055 1.3142-1.3055.6845 0 1.2869.2778 1.2869 1.0833h.0547c.4929-.75 1.0131-1.0833 1.8071-1.0833.6298 0 1.2869.4722 1.2869 1.4166 0 .8612-.7667.9167-1.5333 1.3056-.7666.3611-1.5333.6944-1.5333 1.7778v4.0278c0 .8611-.5476 1.4444-1.2869 1.4444-.7666 0-1.2868-.5833-1.2868-1.4444v-7.2223z" fill="#fff"/><g fill="#1a2e44"><path d="m68.641 27.2578h-1.9714c-.8488 0-1.2321-.6389-1.2321-1.25 0-.6389.4655-1.25 1.2321-1.25h6.5986c.7667 0 1.2321.6389 1.2321 1.25 0 .6389-.3559 1.25-1.2321 1.25h-1.9713v9.1111c0 .9167-.575 1.4167-1.3417 1.4167-.7666 0-1.3416-.5-1.3416-1.4167v-9.1111z"/><path d="m75.5426 33.7335c.1916 1.3056 1.2321 1.8889 2.4368 1.8889 1.3143 0 2.2452-1.0556 2.9297-1.0556.5476 0 1.0404.5556 1.0404 1.1389 0 1.1389-2.3273 2.2222-4.2165 2.2222-2.9023 0-4.8463-2.1666-4.8463-5.0555 0-2.6667 1.8892-5.0833 4.6273-5.0833 2.8201 0 4.6272 2.5833 4.6272 4.7777 0 .7778-.3559 1.1667-1.1226 1.1667zm4.0522-1.7222c-.1642-1.1389-.8487-2-2.0535-2-1.1499 0-1.9166.9167-2.0535 2z"/><path d="m88.9572 30.8715c-.4928 0-1.4785-.7777-2.3273-.7777-.4655 0-.9035.2222-.9035.75 0 1.2222 4.4629 1.0555 4.4629 4.0277 0 1.7778-1.4785 3.0834-3.6689 3.0834-1.4785 0-3.5868-.8334-3.5868-2.0278 0-.3889.3833-1.1667 1.1226-1.1667 1.013 0 1.4785.9167 2.6559.9167.7666 0 1.013-.2778 1.013-.75 0-1.2222-4.4629-1.0278-4.4629-4.0278 0-1.8055 1.4785-3.0555 3.5046-3.0555 1.2869 0 3.2309.5833 3.2309 1.8888.0547.5556-.4107 1.1389-1.0405 1.1389z"/><path d="m92.2718 30.3168h-.575c-.6845 0-1.1226-.4444-1.1226-1.1388 0-.6667.4929-1.1389 1.1226-1.1389h.575v-1.5556c0-.8611.5476-1.4444 1.2869-1.4444.7666 0 1.2868.5833 1.2868 1.4444v1.5556h.7393c.6571 0 1.2321.3055 1.2321 1.1389 0 .8333-.575 1.1388-1.2321 1.1388h-.7393v6.0278c0 .8611-.5476 1.4445-1.2868 1.4445-.7667 0-1.2869-.5834-1.2869-1.4445z"/><path d="m100.375 25.4249c0 .8333-.6571 1.5278-1.4785 1.5278-.7666 0-1.4785-.6945-1.4785-1.5278 0-.75.6845-1.4444 1.4785-1.4444s1.4785.6666 1.4785 1.4444zm-2.738 3.9445c0-.8612.5476-1.4445 1.2869-1.4445.7666 0 1.2871.5833 1.2871 1.4445v7c0 .8611-.5479 1.4444-1.2871 1.4444-.7667 0-1.2869-.5833-1.2869-1.4444z"/><path d="m101.527 29.3715c0-.8611.548-1.4444 1.287-1.4444.657 0 1.068.3611 1.205.9722.493-.6944 1.287-1.0555 2.519-1.0555 2.053 0 3.559 1.3055 3.559 3.5277v5.0278c0 .8611-.547 1.4445-1.287 1.4445-.766 0-1.286-.5834-1.286-1.4445v-4.6389c0-1.2222-.767-1.8055-1.698-1.8055-1.04 0-1.67.7777-1.67 1.8055v4.5834c0 .8611-.548 1.4444-1.287 1.4444-.767 0-1.287-.5833-1.287-1.4444v-6.9723z"/><path d="m120.254 36.9266c0 3.1389-2.053 4.75-4.983 4.75-1.04 0-4.079-.5-4.079-1.9444 0-.5.547-1.1389 1.04-1.1389.821 0 1.752.8333 3.231.8333 1.287 0 2.19-.75 2.19-2.0833v-.6389h-.054c-.548.7778-1.424 1.25-2.602 1.25-2.71 0-3.97-2.4166-3.97-5 0-2.6389 1.671-5.0833 4.244-5.0833.904 0 1.889.3889 2.355 1.2222.164-.6944.575-1.0833 1.287-1.0833.766 0 1.287.5833 1.287 1.4444v7.5278zm-4.627-6.7222c-1.341 0-1.999 1.4167-1.999 2.6389 0 1.4167.658 2.6667 1.999 2.6667 1.397 0 2.054-1.3056 2.054-2.5834 0-1.2777-.63-2.7222-2.054-2.7222z"/></g></g></svg>