<svg fill="none" height="66" viewBox="0 0 131 66" width="131" xmlns="http://www.w3.org/2000/svg"><g fill="#1a2e44"><path d="m33.1455 39.8294h.0546l2.4404-8.7365c.2744-.9763.8509-1.9608 1.9185-1.7149 1.4111.3241 1.4111.8746 1.4111 1.3493 0 .3176-.1099.7125-.3029 1.2141l-3.9867 13.0359c-.9609 2.6383-2.0569 4.012-4.5796 4.012-1.7816 0-2.5218-.8444-2.5218-1.7686 0-1.0301 1.1913-1.5464 2.2588-1.5464h.412c.5212 0 1.1636-.2768 1.4649-1.4657l-5.5143-11.2469c-.329-.9234-.4935-1.346-.4935-1.7947 0-1.0569.1523-1.3053 1.3143-1.7458.8118-.307 1.8101.5806 2.0561 1.4527z"/><path d="m64.9141 31.193c0-1.219.5301-1.8688 1.6692-1.8688 1.0879 0 1.6701.6506 1.6701 1.8688v.6246h.0505c.6067-1.6791 2.0984-2.4934 3.8948-2.4934 3.0853 0 5.792 2.4127 5.792 7.5289 0 3.7921-1.7963 7.3408-5.6911 7.3408-1.6945 0-2.9591-.7321-3.6415-2.0048h-.0504v5.2798c0 1.3021-.7329 1.9779-1.8477 1.9779-1.1123 0-1.8459-.6758-1.8459-1.9779zm8.0923.8558c-2.2311 0-3.0706 2.2898-3.0706 4.7905 0 2.2588.7353 4.9109 3.0706 4.8808 2.4388 0 3.0422-2.8321 3.0422-4.8808.0016-2.5919-.9975-4.7302-3.0422-4.7905z"/><path d="m56.9805 26.487c0-1.3224.7279-2.0104 1.8321-2.0104 1.1034 0 1.8297.688 1.8297 2.0104v16.5227c0 1.3208-.7272 2.0105-1.8297 2.0105-1.1033 0-1.8321-.6897-1.8321-2.0105z"/><path d="m44.2442 38.0633c0 2.1448 1.1791 3.705 3.1814 3.705 2.5927 0 2.5927-2.0073 3.9843-2.0073.8249 0 1.4137.8363 1.4137 1.5895 0 2.4527-3.3223 3.5951-5.398 3.5951-4.8067 0-6.6209-3.8451-6.6209-7.3839 0-4.7359 2.4257-7.9133 6.5037-7.9133 3.9599 0 6.2219 3.3166 6.2219 6.6593 0 1.3924-.3542 1.7547-1.5088 1.7547zm5.6666-2.1945c-.2011-2.0773-1.4665-3.5984-3.1089-3.5984-1.8468 0-2.9583 1.3965-3.3638 3.5984z"/><path d="m108.79 21.8386c-.136.3233-.321.6018-.56.8363-.237.2337-.514.4193-.831.5561-.318.136-.659.2044-1.023.2044s-.704-.0684-1.022-.2044c-.317-.1368-.593-.3224-.832-.5561-.239-.2329-.425-.513-.565-.8363-.138-.3241-.207-.6718-.207-1.0472 0-.3648.069-.7084.207-1.0284.14-.32.326-.5969.565-.8306.239-.2353.516-.421.832-.5561.318-.1368.658-.2044 1.022-.2044.365 0 .705.0676 1.023.2044.317.1351.593.3208.831.5561.239.2329.424.5106.56.8306.135.32.202.6628.202 1.0284 0 .3746-.067.7239-.202 1.0472zm-.386-1.9356c-.116-.2809-.27-.5252-.465-.7312-.193-.206-.424-.3697-.688-.4902-.265-.1213-.554-.1824-.864-.1824-.309 0-.595.0603-.862.1824-.265.1189-.497.2842-.695.4902-.198.2068-.354.4519-.47.7312-.115.2818-.173.5766-.173.8884 0 .3201.058.6213.173.9015.116.2801.271.526.47.7369.198.2101.432.3754.701.4959s.559.1824.868.1824c.301 0 .584-.0611.849-.1824.266-.1213.495-.2858.69-.4918.194-.2061.349-.4487.463-.7296.117-.281.173-.5814.173-.9006 0-.3193-.055-.6205-.17-.9007zm-1.277 2.4201c-.08-.101-.155-.3509-.227-.7491-.039-.2012-.113-.3437-.22-.4259-.108-.0822-.263-.1221-.47-.1221h-.357v1.2979h-.381v-2.9355c.135-.0163.26-.0309.376-.0464.114-.0155.247-.0228.397-.0228.206 0 .383.022.529.0627.146.044.263.0969.352.1596.181.1319.273.3314.273.5952 0 .2028-.058.3632-.172.4805-.116.1164-.253.1978-.411.2451v.0236c.269.0456.439.2842.51.7125.04.2264.076.3925.108.4967.032.1059.063.1824.095.228zm-.305-2.5202c-.115-.1197-.322-.18-.624-.18-.079 0-.148.0017-.201.0057-.057.0033-.104.0098-.144.0163v1.1017h.368c.206 0 .387-.0423.541-.1229.153-.0823.23-.2239.23-.4267.002-.1417-.055-.2728-.17-.3941z"/><path d="m95.2816 33.1217c-.4885.4919-.0757 1.3876-.0757 1.3876l3.6765 6.1389s.605.8102 1.1286.8102c.525 0 1.045-.4316 1.045-.4316l2.906-4.1553s.292-.5244.299-.9836c.01-.6531-.973-.8322-.973-.8322l-6.8835-2.2084c0 .0008-.6742-.1799-1.1229.2744z"/><path d="m94.9327 30.0256c.3526.5969 1.3232.4234 1.3232.4234l6.8681-2.0072s.935-.3803 1.07-.8884c.131-.5073-.155-1.1196-.155-1.1196l-3.281-3.8662s-.284-.4894-.8745-.5375c-.6514-.0553-1.0512.7313-1.0512.7313l-3.8809 6.1063s-.3436.6091-.0187 1.1579z"/><path d="m91.6879 27.6459c.8086-.1987.9364-1.3737.9364-1.3737l-.0554-9.7779s-.1205-1.2052-.6628-1.5325c-.8493-.5163-1.1025-.2476-1.3452-.2109l-5.7008 2.1196s-.5586.184-.8501.6498c-.4153.6603.4234 1.6269.4234 1.6269l5.9256 8.0785c-.0009-.0008.5838.605 1.3289.4202z"/><path d="m90.2789 31.6058c.0203-.754-.9047-1.2067-.9047-1.2067l-6.1291-3.9127s-.9079-.3737-1.3485-.1123c-.3371.1986-.6376.5602-.6661.8794l-.399 4.9134s-.0594.8517.1605 1.2393c.3135.5472 1.3411.167 1.3411.167l7.1543-.7671c.2777-.1873.7646-.2044.7915-1.2003z"/><path d="m92.0598 34.2538c-.6148-.3151-1.3493.3388-1.3493.3388l-4.7912 5.2725s-.5969.8069-.4455 1.3028c.1434.4634.3803.6946.7158.8567l4.8108 1.5186s.583.1205 1.0252-.0073c.6278-.1824.5114-1.1636.5114-1.1636l.1091-7.1397s-.0236-.6873-.5863-.9788z"/></g></svg>