<svg width="348" height="308" viewBox="0 0 348 308" fill="none" xmlns="http://www.w3.org/2000/svg"><path d="M214.671 283.544c-73.508 10.592-174.194-42.261-184.814-115.96C19.237 93.885 81.934 30.25 155.441 19.657 228.949 9.065 297.152 60.22 307.772 133.918c10.62 73.699-19.593 139.033-93.101 149.626z" fill="#B4CDFF"/><path d="M187.156 73.727c-.682 3.819.954 7.569 3.409 9.614 2.454 2.045 5.591 2.659 8.659 2.659 1.772 0 3.613-.204 5.318-1.023 1.704-.818 3.273-2.386 4.091-4.431 1.295-3.341.272-7.16-1.432-9.955a17.263 17.263 0 00-3.614-4.295c-2.25-1.841-12.545-5.796-15.886 4.568" fill="#1A2E44"/><path d="M194.19 78.073l-1.158.686c-.157.103-.085.28 0 .316l4.498 2.519a.88.88 0 00.858 0l4.557-2.552c.138-.082.116-.248 0-.304l-1.224-.661c-.104-.068-.334-.045-.416.01l-2.917 1.633a.88.88 0 01-.858 0l-2.943-1.647a.426.426 0 00-.397 0z" fill="#F8F8F8"/><path d="M197.528 68.18a.883.883 0 01.859 0l3.622 2.028c.144.073.157.27 0 .358a2.713 2.713 0 01-2.647-.003l-.975-.546a.883.883 0 00-.859 0l-.949.532c-.839.47-1.862.47-2.703.002-.134-.057-.162-.228 0-.326l3.652-2.045z" fill="#F8F8F8"/><path d="M203.626 71.232a.828.828 0 01.429.721v5.867c0 .29-.182.344-.376.243l-1.341-.723v-3.945l-3.951 2.213a.88.88 0 01-.858 0l-3.951-2.213v3.944l-1.219.723c-.145.092-.499.121-.499-.242v-5.867c0-.297.164-.572.43-.72.427-.225.869 0 .869 0l4.799 2.692 4.791-2.693s.426-.256.877 0z" fill="#22D172"/><g clip-path="url(#clip0)"><path d="M274.7 258.4c0 3.9-34.5 7.1-77 7.1-20.3 0-44.8 1.2-58.6 0-15.1-1.3-16.5-5-16.5-7.1 0-3.9 64-6.5 106.5-6.5s45.6 2.6 45.6 6.5z" fill="#1A2E44"/><path d="M240.4 254.1c0 5.7-25 10.3-55.8 10.3-30.8 0-55.8-4.6-55.8-10.3 0-1.1-1.3-7.6.2-8.6 7-4.2 30.4-1.8 55.5-1.8 25.3 0 48.5-2.3 55.4 2 1.6.9.5 7.3.5 8.4z" fill="#fff"/><path d="M239.2 254.2c-.4 4-11.7 5.6-14.5 6.1-8.2 1.6-16.6 2.3-25 2.8-19.1 1-39.4.9-58.2-3.5-3.8-.9-10.2-1.9-11.5-6.1-.6-2-1.2-6.3.5-7.7 1.9-1.5 6.3-1.4 8.6-1.6 19.1-1.4 38.4.7 57.6.3 10-.2 20-.8 29.9-.4 3.2.1 7.1.1 10.1 1.3 4 1.7 2.7 5.3 2.5 8.8-.1 1.3 2.4.9 2.4-.3.1-2.3 1.2-6.2-.1-8.3-1.1-1.7-4.1-2.2-5.9-2.5-9-1.8-18.6-1-27.7-.7-13.9.4-27.8.5-41.7.1-9.9-.3-20-1.1-29.8.1-5.6.7-9.7 1.5-9.2 7.9.4 4.7 1.1 6.7 5.6 8.7 7.5 3.3 16.3 4.2 24.4 5 12.3 1.3 24.7 1.5 37 1.1 11.8-.4 24-1.2 35.5-4.1 3.5-.9 11.5-2.5 11.9-7.2.2-1.4-2.3-1-2.4.2z" fill="#1A2E44"/><path d="M184.601 256.2c30.817 0 55.8-4.612 55.8-10.3 0-5.689-24.983-10.3-55.8-10.3-30.818 0-55.8 4.611-55.8 10.3 0 5.688 24.982 10.3 55.8 10.3z" fill="#fff"/><path d="M239.2 245.9c-.4 3.8-9.7 5.2-12.3 5.8-8.3 1.8-16.8 2.6-25.3 3.1-18.7 1.1-38.2.9-56.7-2.6-3.4-.6-12.6-1.7-14.4-5.3-1.9-3.8 7.5-5.7 9.7-6.2 17.4-4.4 36.2-4.6 54.1-4 9.9.3 19.8 1 29.5 2.8 3 .6 15 2 15.4 6.4.1 1.2 2.6 1.3 2.5.1-.4-3.8-5.8-5.3-8.8-6.3-8.6-2.7-17.9-3.6-26.9-4.3-21.9-1.7-46-2-67.5 3.7-3 .8-9.8 2.2-10.7 6-.9 3.5 4.1 5.4 6.6 6.3 7.8 2.9 16.5 3.8 24.8 4.6 12.3 1.2 24.6 1.4 36.9.9 11.2-.4 22.7-1.2 33.7-4 3.4-.9 11.5-2.4 11.9-7 .1-1.1-2.4-1.2-2.5 0z" fill="#1A2E44"/><path d="M299.9 66.2c2.6 9 8.1 107.2 2.3 124.5-4.8 14.5-154.7 12.5-210.5 11.3-10.5-.2-8.7-4.4-10-6.8-4.2-7.3 1.4-63.1 3.3-72.9 2.8-14.5 151-63.1 200.5-69.2 9.7-1.2 14 11.6 14.4 13.1z" fill="#1A2E44"/><path d="M276.2 50.2c11.3-.1 20 6.8 19.9 12.2-1.3 56.5 3.3 90.5 2.1 122.2-.2 6-8.8 11.2-19.9 12-34.8 2.5-143.8 3-181.4 4.8-16.7.8-29.2-6.3-29.7-15.4-2.7-54-2.6-85.6-2.7-118.5 0-5.8 8.2-13.5 18.9-14.3 27.9-1.8 156.6-2.7 192.8-3z" fill="#fff"/><path d="M276 51.5c6.5.1 17.6 2.7 19.1 10.5.8 4.1-.1 9.1-.1 13.2v13.6c.1 14.7.6 29.5 1.2 44.2.5 12 1.1 23.9 1.2 35.9.1 5.3 1.2 12.7-.7 17.6-2.7 7-13.3 8.6-19.8 9-44.7 3.2-89.8 2.5-134.6 3.4-10.1.2-20.2.4-30.3.7-11 .3-23 2.2-33.4-2.3-2.8-1.2-5.5-2.8-7.5-5-2.9-3.1-3-6.4-3.2-10.4-.4-8.4-.8-16.9-1.1-25.3-.5-14.5-.9-28.9-1.1-43.4-.2-11.9-.2-23.8-.3-35.7 0-6.9-1-13.2 5-18.1 4.7-3.8 10.3-4.9 16.1-5.2 17.1-.9 34.2-1.1 51.4-1.4 42.8-.7 85.7-1.1 128.5-1.4 3.2.1 6.4.1 9.6.1 1.3 0 1.6-2.5.4-2.5-44.3.4-88.6.7-132.9 1.4-18.6.3-37.3.5-56 1.4-9 .5-21.2 3.5-23.7 13.7-1.3 5.1-.3 11.4-.2 16.7 0 6.6.1 13.2.1 19.8.1 14.6.4 29.1.9 43.6.3 8.8.6 17.6 1 26.4.3 6.3-.9 14.6 2.6 20.2 6.3 10.2 21.1 10.8 31.7 10.4 10.1-.4 20.3-.7 30.4-.9 48.2-1.1 96.6-.6 144.7-3.5 9.9-.6 23.8-3.2 24.2-15.3.4-12.3-.1-24.6-.6-36.9-.6-15-1.3-30-1.6-44.9-.2-9.1-.2-18.2-.2-27.2.1-6 1.8-13-2.6-17.9-4.5-4.9-11.4-6.8-17.9-7-1.2 0-1.5 2.4-.3 2.5z" fill="#1A2E44"/><path d="M167.8 211.1c0-5.2.7-9.4 1.6-9.5 9.7-.7 27.1-1 32.5-1.2 1 0 1.9 3.9 2.1 9 .5 16.2.7 12.6 1.6 30.1.2 4.3-8.7 6.2-17.8 6.7-9.6.5-18.7-2.6-18.7-5.2-.4-13.1-1.2-13.1-1.3-29.9z" fill="#fff"/><path d="M169 211.1c.1-4.3-.8-8.6 4.3-8.9 3.1-.2 6.3-.3 9.5-.4 5.6-.2 11.5-.9 17-.5.9.1 1.4-.2 2 .3.9.8.9 4.6 1 5.7.2 3.2.2 6.4.4 9.6.2 3.8.4 7.5.7 11.3.2 3 .6 6.2.5 9.2-.2 4.5-3 5.6-7.2 6.5-4.2.9-8.7 1.3-12.9 1.2-3.5-.1-9.2-.4-12.1-2.6-3.1-2.4-2.2-10.2-2.5-14.2-.5-5.7-.7-11.4-.7-17.2 0-1.2-2.5-1.5-2.5-.2 0 6 .2 12.1.7 18.1.2 2.2.3 4.4.4 6.6.1 2-.4 4.6.7 6.4 2.2 3.8 9.7 4.5 13.5 4.9 6.5.6 14.2.3 20.3-2.2 5.7-2.3 4.7-6.1 4.4-11.7-.2-4.4-.6-8.9-.8-13.3-.3-5.5 1-13.5-1.6-18.4-1.7-3.1-6-1.8-9-1.7-7.1.2-14.1.4-21.2.7-1.7.1-4.4-.3-5.8.9-1.9 1.7-1.4 7.7-1.4 9.8-.2 1.2 2.3 1.5 2.3.1z" fill="#1A2E44"/><path d="M166.4 202.8s37.8 11.9 37.8 11.1V199l-37.8 3.8z" fill="#1A2E44"/><path d="M244 200.6c.2 11.6 3.1 24.1 13.8 30.2 6.3 3.5 13.6 5 20.6 6.3 3 .6 6 .9 8.9 1.8 2.5.8 4.9 2.4 1.2 3.7-2.3.8-23.4 0-20 5.6 1.7 2.8 7.2 3.3 10 3.6 6.3.8 12.8.8 19.2.7 8.7-.1 17.5-.4 26.2-.4 7.1 0 14.6-.2 21.6 1.4 1.3.3 2.5-1.5.9-1.8-12.1-2.8-25.4-1.5-37.7-1.3-7.1.1-14.1.3-21.2 0-4.7-.2-11.3.2-15.5-2.4-2.4-1.5-.9-1.9 1.2-2.2 2.9-.4 6-.4 8.9-.6 2.9-.2 8.3-.1 10.3-2.9 4.4-6.2-18.4-8.2-20.9-8.8-8.4-2.1-17.2-5.5-21.1-13.8-2.8-5.8-3.9-12.9-4-19.3 0-1.2-2.4-1-2.4.2z" fill="#1A2E44"/><path d="M161 264.2c0 2.8-36.4 1.7-80.8 1.7-21.1 0-46.7.9-61 0-15.7-1-17.2-3.7-17.2-5.2 0-2.8 66.7-4.7 111-4.7 41 1.7 48 5.4 48 8.2z" fill="#1A2E44"/><path d="M124.7 186.1c-19.9-14.5-28.6-34.5-48.5-49-1.2-.9-2.5-1.8-3.9-2.1-2.1-.4-4.2.5-6.2 1.5-18.6 9.2-44.6 29-57 45.6l-1.7 56.7 115.2-9.3 2.1-43.4z" fill="#fff"/><path d="M125.4 185.1c-16.5-12.2-26.8-30.2-42-43.7-2.9-2.6-6.7-6.6-10.7-7.4-3.6-.7-7.3 1.7-10.3 3.3-8.3 4.5-16.1 9.7-23.6 15.4-7.5 5.6-14.7 11.7-21.3 18.4-3 3.1-8.5 7.6-9.4 12-.6 3.2-.2 7-.3 10.2-.2 5.9-.4 11.7-.5 17.6-.3 9.4-.6 18.9-.9 28.3 0 .4.3 1 .7.9 33.6-2.7 67.2-5.4 100.8-8.2l14.4-1.2c.8-.1 1.2-.7 1.2-1.5.7-14.5 1.4-28.9 2.1-43.4.1-1.6-1.9-.7-2 .5-.7 14.5-1.4 28.9-2.1 43.4l1.2-1.5c-34 2.8-68.1 5.5-102.1 8.3-4.3.4-8.7.7-13 1.1 1.7-.1.1 1.7.7-.1.4-1.1.1-2.9.1-4.1.1-4.5.3-9 .4-13.5.3-10.3.6-20.6.9-31 .1-2-.5-5.1.2-7 .2-.6 2.3-2.4 2.8-3.1 1.5-1.7 3-3.4 4.6-5 2.9-3.1 6-6 9.2-8.8 7.9-7 16.4-13.4 25.3-19.1 3.7-2.4 7.6-4.7 11.5-6.8 3-1.6 6.1-3.4 9.6-2.4 2.6.7 5.6 3.9 7.6 5.6 15.9 13.6 26.3 32.2 43.3 44.8 1.3.8 2.6-1.3 1.6-2z" fill="#1A2E44"/><path d="M120.3 188.4c2.8-1.6 12.5.2 11.9 5.9-.5 5.7-.1 69.6-2.3 71.6-2.2 2-112.6-2.4-114.7-7.1-.6-1.3-9.4-13.2 6.3-14.2 48.5-3.2 105.3-41.8 98.8-56.2z" fill="#1A2E44"/><path d="M9.1 183.899c17.4 12.5 44.7 48.7 56 47.5 11.5-1.2 41.3-34.9 54.3-46.7 1.9 0 4 .2 5.3 1.4 1.6 1.5 1.6 3.9 1.6 6-.2 28-.4 43.3-.6 71.3-37.6-3.1-75.5-3.7-113.2-1.9-1.9.1-4 0-5.1-1.4-.6-.9-.7-2-.8-3.1-1.7-27.3-.8-46 2.5-73.1z" fill="#fff"/><path d="M8.4 184.899c11.9 8.7 21.6 20.3 32.1 30.7 4.8 4.8 9.7 9.6 15.3 13.5 2.9 2 6.3 4 9.9 3.4 4.2-.7 8.2-3.8 11.5-6.4 5.8-4.4 11.2-9.5 16.5-14.6 5.4-5.2 10.7-10.6 16.1-16 2.1-2.2 4.3-4.3 6.5-6.4.8-.8 2.2-2.7 3.2-3.1 5.4-2.2 6 5.2 5.9 8.4-.1 23.1-.4 46.2-.6 69.3.4-.5.9-1 1.3-1.5-33-2.7-66.2-3.6-99.3-2.5-4 .1-7.9.3-11.9.5-3.1.1-5.5-.4-7.1-3.6-.7-1.3-.2-4.1-.3-5.7-.4-7.5-.6-15.1-.5-22.7.2-14.9 1.5-29.7 3.3-44.4.2-1.6-1.9-1.3-2.1 0-1.9 15.5-3.3 31-3.4 46.7 0 8.3.1 16.6.7 24.8.5 7.1 3 7.5 9.8 7.2 36.7-1.7 73.5-.9 110.2 2 .7.1 1.3-.8 1.3-1.5.2-20.9.4-41.8.5-62.7 0-3.9.9-9-.4-12.7-.9-2.7-4.4-5.1-7.3-4.1-1.8.6-3.3 2.7-4.6 3.9-2.5 2.4-4.9 4.8-7.3 7.3-10.7 10.8-21.2 22.6-33.8 31.3-3.7 2.6-7.7 5.3-12.2 3.5-5.7-2.2-10.6-7.2-14.9-11.3-12.3-11.6-23.2-25.3-36.9-35.4-1-.7-2.5 1.3-1.5 2.1z" fill="#1A2E44"/><path d="M124.7 186.101c-19.9-14.5-28.6-34.5-48.5-49-1.2-.9-2.5-1.8-3.9-2.1-2.1-.4-4.2.5-6.2 1.5-18.6 9.2-44.6 29-57 45.6" fill="#fff"/><path d="M125 185c-11.6-8.6-20.2-20-29.6-30.9-4.5-5.3-9.3-10.4-14.7-14.8-4.2-3.5-8-6.8-13.6-4.6-11.6 4.7-22.5 13.1-32.3 20.7-9.6 7.6-18.9 15.9-26.4 25.7-.7.9.4 3.1 1.3 2 14.1-18.6 34.9-34.4 55.6-44.9 2-1 4.4-2.4 6.8-2 2.2.4 4.6 2.6 6.2 3.9 2.6 2 5 4.2 7.4 6.5 4.5 4.4 8.6 9.2 12.7 14.1 8 9.6 15.9 19 26 26.5 1.1.9 1.5-1.5.6-2.2z" fill="#1A2E44"/><path d="M30.3 201.2c-.4-13.4.1-34.6 0-44.3-.1-4.6 1.4-8.2 3.2-8.1 19.6.7 54.7 2.7 65.7 3.2 2.1.1 3.9 3.6 4.2 8.2.7 10.1 1 23.9 1.4 36.5" fill="#fff"/><path d="M31.5 201.1c-.3-13.4 0-26.8 0-40.1 0-2.6-.8-7.6.8-9.7 1.9-2.6 6.8-1.4 9.6-1.3 6.5.3 13.1.6 19.6.9 11.6.6 23.1 1.2 34.7 1.8 4.4.2 5.4 3.2 5.9 7.4.4 3.7.4 7.5.6 11.2.4 8.5.6 16.9.9 25.4 0 1.2 2.5 1.2 2.5 0-.2-7.9-.5-15.8-.8-23.6-.2-5.8.7-13.6-2.2-18.9-1.6-3.1-3.8-3.1-6.9-3.2-4.6-.2-9.2-.5-13.8-.7-12.2-.7-24.3-1.3-36.5-1.8-2.8-.1-5.6-.2-8.4-.4-1.7-.1-3.9-.6-5.5.2-3.6 1.8-3 8-3 11.2.1 13.9-.4 27.9 0 41.8.1 1.1 2.6 1.1 2.5-.2z" fill="#1A2E44"/><path d="M43.6 198.1h13.8c1.4 0 2-1.9.3-1.9H43.9c-1.4 0-2 1.9-.3 1.9z" fill="#1A2E44"/><path d="M43 204.1c10.6.7 21.3.9 31.9.5l-31.9-.5z" fill="#fff"/><path d="M43.2 205.399c10.6.7 21.3.8 31.9.5 1.2 0 1-2.5-.3-2.5-10.6.3-21.3.2-31.9-.5-1.2-.1-1 2.4.3 2.5z" fill="#1A2E44"/><path d="M124.7 263.399c-2.2-9.3-31.8-32.6-40.3-44.2l40.3 44.2z" fill="#fff"/><path d="M125.6 263.1c-2.3-8.2-11.3-15.2-17.1-20.9-7.9-7.7-16.8-15-23.5-23.9-.9-1.2-2 .9-1.3 1.8 6 7.9 13.8 14.6 20.9 21.4 4.2 4 8.3 8 12.2 12.3 2.6 2.9 5.9 6.2 7 10 .4 1.6 2.2.6 1.8-.7z" fill="#1A2E44"/><path d="M7.4 257.101c17.2-18.7 24.2-20 39.8-36.5l-39.8 36.5z" fill="#fff"/><path d="M8.4 257.5C20.8 244.2 35.7 234 48.2 221c1.1-1.1-1.2-1.6-2.1-.8-12.5 13.1-27.4 23.2-39.8 36.5-1 1.1 1.3 1.6 2.1.8z" fill="#1A2E44"/><path d="M39.4 159.9c.1-1.7 1.4-3 2.8-3 14.6.3 40.7 1.2 48.9 1.5 1.6 0 2.8 1.4 2.8 3 .1 5.3-.5 13.1-.6 18.8 0 2.5-2.1 4.6-4.4 4.4-13.7-.7-39.5-.9-48-1-1.5 0-2.7-1.3-2.7-2.9-.1-4.1.8-15.3 1.2-20.8z" fill="#22D172"/><path d="M40.5 159.8c.9-3.5 16.9-1.4 19.7-1.3 6 .2 12 .4 17.9.6 3.4.1 13-1.3 14.6 2.7 1 2.6-.2 8.2-.3 10.9-.2 4.1.5 9.9-5 10.8-2.4.4-5.6-.2-8.1-.3-3.3-.1-6.5-.2-9.8-.2l-17.8-.3c-4.2 0-12 1.5-12.5-4-.4-6.1.8-12.8 1.3-18.9.1-1.6-2.1-1-2.2.2-.5 5.9-1 11.9-1.2 17.8-.2 4.4.2 6.8 5 7 12.5.5 25 .2 37.5.6 3.9.1 10.1 1.8 13.2-1.5 1.5-1.6 1.5-3.4 1.7-5.5.2-4.1.4-8.1.5-12.2.2-4.9.6-8.6-5-8.9-5.5-.3-11-.4-16.5-.5-7.5-.2-15-.5-22.4-.7-4.7-.1-11.2-2-12.7 3.9-.4 1.5 1.8 1 2.1-.2z" fill="#1A2E44"/><path d="M43.9 181.2c3.4-2.5 10.4-9 14.7-7.2 2.7 1.2 5.4 4.8 8.6 4.2 3.9-.7 8.4-4.6 11.9-6.3 1.6-.8 4.3-2.7 6.1-2.8 2.6-.1 4.8 3.4 6.4 5.1 1 1.1 2.3-1 1.5-1.8l-5.7-6c-.3-.3-.5-.4-.9-.3-5 1.8-9.6 4.3-14.2 6.8-2.6 1.5-4.7 3.3-7.7 1.9-2.4-1.1-4.7-3-6.9-4.5-.2-.1-.5-.2-.7-.1-4.9 2.6-9.5 5.5-13.9 8.8-1 .9-.5 3.2.8 2.2z" fill="#1A2E44"/><path d="M52.7 161.2c-.4 0-.8.1-1 .4-.2.2-.3.5-.3.7-.1.5-.2 1.1.3 1.5.3.2.7.3 1.1.4.9.2 1.9.3 2.8.3.3 0 .6 0 .9-.1.4-.1.6-.4.7-.7.2-.7-.3-1.4-1-2-.4-.4-1-.7-1.7-.9-.7-.2-1.5-.2-2.1.1" fill="#fff"/><path d="M52.7 160c-1.8.2-2.9 2.4-2.3 4 .7 1.8 4.1 2 5.7 1.7 1.9-.3 2.7-2.4 1.8-4-1-1.7-3.4-2.8-5.3-2-.6.2-1 .8-1 1.4 0 .5.4 1.2 1 .9.8-.3 1.6-.2 2.3.2.4.2.7.4 1 .7.2.1.3.3.4.5.1.3.2.3.1-.1-.7-.2-1.6 0-2.4-.2-.4-.1-.8-.1-1.1-.3-.4-.2-.7-.5-.1-.6 1 .1 1.4-2.3-.1-2.2z" fill="#1A2E44"/><path d="M146.2 195.8c-.5-32.3-1.1-64.6-1.6-96.9 0-1.7 0-3.6 1.1-4.9 1.3-1.5 3.5-1.7 5.4-1.7 25.2-.8 50.3-1.6 75.5-2.5.8 0 1.5.7 1.5 1.5-1.3 32.2 2 74.4 2 106.1" fill="#fff"/><path d="M147.4 195.7c-.3-19.8-.6-39.6-1-59.3-.2-9.9-.3-19.8-.5-29.7-.1-5.4-1.5-11.9 5.3-13.5 4.5-1.1 10.3-.3 14.9-.5 9.9-.3 19.9-.6 29.8-1 4.6-.2 9.3-.3 13.9-.5 3.7-.1 13.4-2 15.9.6 2.1 2.2.9 8.2.8 11.2v12.3c.1 8.6.3 17.2.6 25.7.6 18.8 1.6 37.5 1.6 56.3 0 1.2 2.5 1.1 2.5-.2 0-18.8-1-37.5-1.6-56.3-.3-9.4-.6-18.8-.7-28.2 0-4.6 0-9.2.1-13.8 0-2.3 1.3-7.6-.5-9.4-1.9-1.8-6.9-.6-9-.5-5.6.2-11.3.4-16.9.6-11.3.4-22.5.7-33.8 1.1-5.3.2-10.6.3-15.9.5-2.8.1-6.5-.1-8.5 2.3s-1.2 6.5-1.2 9.4l.3 17.8 1.2 75.2c.2 1.3 2.7 1.1 2.7-.1z" fill="#1A2E44"/><path d="M160.2 140.6c10.1.3 20.1.2 30.2-.5 1.2-.1 1.801-2.5.401-2.4-10.1.7-20.1.9-30.2.5-1.1 0-1.701 2.4-.401 2.4z" fill="#1A2E44"/><path d="M160.901 148.201c6.8.1 13.7.1 20.5.2 1.2 0 2.3-2.1.7-2.1-6.8-.1-13.7-.1-20.5-.2-1.2 0-2.2 2.1-.7 2.1z" fill="#1A2E44"/><path d="M162.3 157.9c10.2.3 20.3.2 30.5-.5 1.2-.1.8-2.5-.4-2.5-10 .7-20 .9-29.9.5-1.5 0-1.4 2.4-.2 2.5z" fill="#1A2E44"/><path d="M163.399 165.401c6.8.1 13.7.1 20.5.2 1.6 0 .6-1.9-.6-1.9-6.8-.1-13.7-.1-20.5-.2-1.6-.1-.6 1.9.6 1.9z" fill="#1A2E44"/><path d="M160.2 177.2c10.1.3 20.1.2 30.2-.5 1.2-.1 1.801-2.5.401-2.4-10.1.7-20.1.9-30.2.5-1.1 0-1.701 2.4-.401 2.4z" fill="#1A2E44"/><path d="M160.901 184.8c6.8.1 13.7.1 20.5.2 1.2 0 2.3-2.1.7-2.1-6.8-.1-13.7-.1-20.5-.2-1.2 0-2.2 2.1-.7 2.1z" fill="#1A2E44"/><path d="M159.501 106c.1-1.7 1.2-3.1 2.6-3.1 14.6-.5 40.7-1 48.9-1.2 1.6 0 2.8 1.2 3 2.9.4 5.2.2 13.1.4 18.8.1 2.5-1.8 4.7-4.2 4.7-13.7 0-39.5 1.2-48 1.6-1.5.1-2.8-1.1-2.9-2.7-.2-4.3 0-15.6.2-21z" fill="#22D172"/><path d="M160.5 106c.7-3.7 16.8-2.4 19.7-2.5 6-.1 12-.3 18-.4 2.6-.1 5.2-.1 7.9-.2 2.6-.1 4.4-.7 6 1.5 2.1 3 1.3 7.6 1.4 11.2 0 4.7 1.5 10.2-5 11.1-5.6.7-11.7.2-17.3.4-6.3.2-12.7.5-19 .8l-6.3.3c-.8 0-2.4.4-3.1.1-2.4-.8-2.2-2.8-2.2-4.6-.1-6 .1-12.1.2-18.1 0-1.6-1.9-.8-2 .5-.2 6.2-.4 12.5-.2 18.7.1 4.5 1.4 6.1 6 5.8 12.4-.6 24.9-1.1 37.3-1.4 3.9-.1 10 1.2 12.7-2.5 1.3-1.8 1.1-3.8 1.1-6-.1-4.1 0-8.2-.1-12.2-.1-4.8-.2-8.1-5.7-8.1-5.4 0-10.8.2-16.2.4-7.5.2-15 .3-22.4.5-4.7.1-11.2-1.4-12.4 4.5-.7 1.7 1.3 1.6 1.6.2z" fill="#1A2E44"/><path d="M165.3 126.7c3.2-2.7 9.5-9.5 13.8-7.9 2.9 1.1 5.7 4.4 8.9 3.7 3.5-.8 7.4-4.5 10.4-6.3 1.8-1.1 3.8-2.6 5.8-3.2 3.7-1.2 5.5 1.9 7.9 4.2.9.9 2.8-.8 1.9-1.7l-6-5.7c-.3-.2-.7-.3-1-.2-4.5 1.9-8.6 4.3-12.8 6.9-2.6 1.6-5.3 4-8.6 3.1-2.5-.7-5-2.8-7.1-4.2-.3-.2-.8-.1-1.1.1-4.7 2.9-9.2 6.1-13.4 9.6-1.2 1.2.1 2.6 1.3 1.6z" fill="#1A2E44"/><path d="M172.8 106.5c-.4 0-.8.2-.9.4-.2.2-.2.5-.3.7-.1.5-.2 1.1.4 1.5.3.2.7.3 1.1.4.9.2 1.9.2 2.8.2.3 0 .6 0 .9-.1.4-.2.6-.5.7-.7.1-.7-.4-1.4-1.1-2-.5-.4-1-.7-1.7-.8-.7-.1-1.5-.1-2.1.2" fill="#fff"/><path d="M172.7 105.3c-1.9.3-2.6 2.6-1.8 4.2.9 1.7 4.2 1.8 5.9 1.5 2-.4 2.1-2.7 1.1-4.1-1.2-1.7-3.6-2.6-5.6-1.7-1.1.5-.4 2.9.8 2.3.7-.3 1.5-.2 2.2.1.3.1.7.3.9.6.3.5.4.2 0 .4-.5.2-1.6 0-2.1 0-.3 0-.9-.1-1.2-.2-.3-.1-.7-.4.1-.5 1.2-.3.9-2.8-.3-2.6z" fill="#1A2E44"/></g><defs><clipPath id="clip0"><path fill="#fff" transform="translate(0 49)" d="M0 0h347.2v219.5H0z"/></clipPath></defs></svg>