<svg width="31" height="22" viewBox="0 0 31 22" fill="none" xmlns="http://www.w3.org/2000/svg"><g clip-path="url(#clip0)"><path d="M28.445.814s1.297 1.242 1.945 2.678c.496 1.164.534 11.213.572 15.132 0 .892-.648 2.25-1.487 2.29-5.415.426-23.984 1.124-24.29.736C4.844 21.185 28.56 4.151 28.56 4.151" fill="#1A2E44"/><path d="M.458 4.074c0-1.241.534-2.289 1.296-2.328C9.457 1.281 23.222.66 27.531.427c.838-.039 1.525.854 1.64 2.095.342 3.88.457 9.7.724 13.89.114 1.863-.84 3.454-2.098 3.493-7.244.155-20.78 1.28-25.28 1.63-.8.077-1.487-.815-1.601-1.98C.649 16.453.496 8.11.458 4.076z" fill="#fff"/><path d="M.915 4.035c.115-2.25 2.326-2.018 3.966-2.095l4.69-.233 8.884-.466L25.7.892c1.716-.078 2.822.194 3.05 2.25.23 1.785.23 3.609.305 5.394.077 1.707.115 3.414.191 5.122.076 1.862.877 5.393-1.601 5.897-1.03.233-2.326.078-3.394.117l-4.652.232c-5.3.31-10.6.738-15.9 1.164-1.182.117-2.135-.271-2.326-1.63-.076-.504-.076-1.047-.115-1.551a177.355 177.355 0 01-.152-4.501C.992 10.243.953 7.1.916 3.957.876 3.414 0 3.724 0 4.19c.038 3.492.115 6.984.229 10.476.076 1.746-.534 6.558 1.716 7.217.877.272 2.135-.077 3.05-.155 1.64-.116 3.28-.272 4.88-.388 3.738-.272 7.474-.543 11.211-.776l4.92-.233c1.181-.039 2.363.117 3.24-.776 1.03-1.009 1.068-2.483 1.03-3.841-.077-2.29-.19-4.579-.305-6.829-.077-1.979-.115-3.996-.343-6.014C29.475 1.55 29.132.194 27.645 0c-.915-.117-2.021.077-2.936.116-1.564.116-3.203.194-4.843.272-4.118.194-8.198.388-12.316.62-1.83.117-3.966-.077-5.758.35C.496 1.668.076 2.832 0 4.112c-.038.544.877.388.915-.077z" fill="#1A2E44"/><path d="M30.604 4.164L.46 5.228l.166 4.847L30.769 9.01l-.165-4.847z" fill="#1A2E44"/><path d="M4.538 14.666c3.47-.155 6.978-.194 10.448-.194.495 0 .838-.776.228-.776-3.47 0-6.977.078-10.447.194-.496.04-.84.776-.23.776z" fill="#1A2E44"/><path d="M5.072 16.956c1.715 0 3.47-.039 5.185-.194.61-.039.42-.776-.152-.737-1.716.155-3.432.194-5.186.194-.61 0-.381.737.153.737z" fill="#1A2E44"/></g><defs><clipPath id="clip0"><path fill="#fff" d="M0 0h31v22H0z"/></clipPath></defs></svg>