<svg width="37" height="37" viewBox="0 0 37 37" fill="none" xmlns="http://www.w3.org/2000/svg"><g clip-path="url(#clip0)"><path d="M33.97 11.123s.535 1.09.832 1.66c.244.49-2.471 17.989-3.236 22.193-.107.52-.566.898-1.11.854-3.334-.25-15.181-1.783-15.895-3.013-.62-1.008 19.034-20.047 19.034-20.047" fill="#1A2E44"/><path d="M16.262 12.37c.373-.465 1.888-1.944 2.38-2.316.165-.135.331-.27.464-.411.22-.226 1.48-.81 1.812-.742 5.156 1.302 9.652 1.621 12.124 2.03.537.078.9.49.887.894-.07 1.338-3.445 20.358-3.6 21.78-.061.63-.805 1.052-1.607.92-4.594-.847-12.027-1.165-14.895-2.332-.477-.2-.766-1.478-.72-1.874.05-.903 2.102-12.35 3.089-17.794.194-1.11 3.077-.345 3.296-.232.496.271.777-.753.779-1.429.014-.403.049-1.41.368-1.784" fill="#fff"/><path d="M16.613 12.51c.864-1.006 1.928-2.139 3.11-2.842.982-.575 1.943-.207 3.004.012 1.358.28 2.724.529 4.096.745 1.677.244 3.368.425 5.078.676 1.512.211 1.65.713 1.448 1.855-.68 4.628-1.524 9.223-2.303 13.83-.35 2.025-.692 4.017-1.008 6.049-.201 1.311-1.21 1.34-2.449 1.151-1.942-.3-3.871-.495-5.827-.73-1.724-.187-3.408-.4-5.105-.716-1.67-.277-3.235-.567-3.137-2.542.117-2.242.765-4.543 1.148-6.73.315-1.862.657-3.686 1.006-5.541.161-.948.355-1.889.516-2.836.128-.616.11-1.533.37-2.122.706-1.41 2.287.134 3.29-.2 1.187-.397.72-2.658 1.167-3.479.226-.427-.603-.429-.809-.1-.393.731-.301 1.46-.429 2.245-.141 1.02-.565.56-1.407.454-.835-.139-2.029-.216-2.54.591-.307.478-.262 1.265-.37 1.784-.167.98-.368 1.953-.536 2.933-.362 1.92-.691 3.848-1.046 5.736-.216 1.715-.532 3.408-.82 5.14-.141.851-.395 1.746-.397 2.59.05 1.6.851 2.07 2.263 2.43 1.81.441 3.699.662 5.548.909 2.26.264 4.561.502 6.809.831 1.306.202 2.857.556 3.377-.96.547-1.645.618-3.66.9-5.36.53-3.07 1.067-6.172 1.564-9.248.396-2.252.938-4.541 1.095-6.809.149-1.051-.315-1.485-1.375-1.704-2.36-.454-4.82-.59-7.186-1.01-2.075-.328-4.394-1.483-6.345-.398-1.295.747-2.452 1.996-3.402 3.085-.359.4.436.564.702.28z" fill="#1A2E44"/><path d="M19.37 16.393c2.996.552 5.946 1.16 8.909 1.874.397.082.565-.729.134-.817a166.797 166.797 0 00-8.908-1.874c-.405-.05-.572.76-.135.817z" fill="#1A2E44"/><path d="M19.18 18.992c1.444.366 2.942.642 4.427.813.504.07.665-.54.128-.616a34.027 34.027 0 01-4.428-.813c-.497-.103-.618.48-.128.616z" fill="#1A2E44"/><path d="M18.776 21.445c3.282.509 6.543 1.115 9.784 1.818.43.089.89-.459.36-.568a173.05 173.05 0 00-9.983-1.86c-.504-.07-.698.533-.16.61z" fill="#1A2E44"/><path d="M18.55 24.544c1.274.195 2.553.357 3.826.553.404.05.797-.681.36-.738-1.273-.195-2.553-.358-3.826-.553-.404-.05-.764.688-.36.738z" fill="#1A2E44"/><path d="M18.114 27.329a73.245 73.245 0 008.816 1.482c.438.057.473-.781.062-.799-2.977-.31-5.92-.783-8.817-1.482-.424-.122-.452.684-.061.799z" fill="#1A2E44"/></g><g clip-path="url(#clip1)"><path d="M18.057 1.546s.85.869 1.31 1.315c.386.39 3.293 17.857 3.885 22.09.061.526-.255 1.03-.785 1.158-3.245.809-14.976 3.067-16.039 2.123-.905-.762 11.79-25.004 11.79-25.004" fill="#1A2E44"/><path d="M1.633 8.282c.208-.558 1.182-2.438 1.533-2.945.115-.18.23-.36.312-.536.138-.283 1.152-1.234 1.488-1.273 5.305-.38 9.673-1.486 12.15-1.873.534-.095 1.009.183 1.122.57.354 1.293 3.112 20.412 3.41 21.812.14.617-.434 1.25-1.238 1.377-4.627.635-11.785 2.664-14.875 2.455-.516-.04-1.19-1.163-1.27-1.554-.237-.873-1.876-12.386-2.647-17.865-.163-1.115 2.814-1.292 3.057-1.254.557.102.503-.958.292-1.6-.113-.388-.395-1.355-.21-1.81" fill="#fff"/><path d="M2.01 8.305c.505-1.226 1.16-2.635 2.062-3.673.753-.854 1.78-.806 2.856-.93a87.285 87.285 0 004.123-.578c1.67-.293 3.331-.652 5.034-.95 1.502-.273 1.79.16 1.957 1.308.806 4.608 1.444 9.235 2.149 13.855.303 2.032.603 4.031.94 6.06.22 1.308-.729 1.65-1.965 1.86-1.939.325-3.832.744-5.763 1.134-1.695.363-3.36.69-5.071.92-1.673.261-3.25.477-3.777-1.43-.591-2.165-.697-4.553-1.02-6.75a312.515 312.515 0 01-.781-5.577c-.144-.95-.255-1.905-.399-2.855-.072-.625-.377-1.49-.315-2.13.229-1.561 2.215-.59 3.061-1.222 1.004-.75-.148-2.75.018-3.67.082-.476-.706-.218-.799.16-.144.816.172 1.48.297 2.266.185 1.012-.361.708-1.194.871-.837.13-1.994.431-2.227 1.358-.141.55.148 1.284.209 1.81.148.983.262 1.97.41 2.953.258 1.938.55 3.871.805 5.775.332 1.696.564 3.403.833 5.139.132.851.172 1.78.435 2.583.549 1.504 1.457 1.699 2.91 1.597 1.857-.148 3.72-.53 5.554-.876 2.23-.458 4.489-.953 6.726-1.345 1.303-.218 2.887-.367 2.906-1.97.003-1.734-.561-3.67-.826-5.373-.46-3.08-.922-6.195-1.414-9.272-.33-2.262-.533-4.606-1.095-6.808-.189-1.045-.765-1.312-1.84-1.188-2.384.31-4.762.952-7.141 1.294-2.073.34-4.637-.03-6.15 1.612-.995 1.115-1.702 2.664-2.263 3.996-.215.492.591.398.755.046z" fill="#1A2E44"/><path d="M5.846 11.129c3.018-.416 6.01-.762 9.046-1.014.404-.047.309-.87-.128-.819a166.87 166.87 0 00-9.047 1.014c-.4.08-.305.902.129.819z" fill="#1A2E44"/><path d="M6.479 13.656a34.043 34.043 0 004.46-.616c.5-.091.461-.72-.073-.625-1.464.302-2.973.51-4.46.616-.504.058-.435.65.073.625z" fill="#1A2E44"/><path d="M6.866 16.113c3.275-.546 6.562-.993 9.86-1.342.437-.05.7-.714.163-.652-3.365.356-6.72.811-10.062 1.364-.5.092-.495.725.039.63z" fill="#1A2E44"/><path d="M7.623 19.125c1.27-.213 2.535-.46 3.805-.674.4-.08.544-.896.11-.813-1.27.214-2.535.46-3.805.674-.4.08-.51.893-.11.813z" fill="#1A2E44"/><path d="M8.081 21.907a73.245 73.245 0 008.837-1.357c.433-.083.203-.89-.192-.778-2.924.639-5.867 1.113-8.837 1.357-.44.017-.215.791.192.777z" fill="#1A2E44"/></g><defs><clipPath id="clip0"><path fill="#fff" transform="rotate(11.67 -27.035 86)" d="M0 0h20v26H0z"/></clipPath><clipPath id="clip1"><path fill="#fff" transform="rotate(-6.602 28.341 -3.339)" d="M0 0h20v26H0z"/></clipPath></defs></svg>