<svg width="324" height="308" viewBox="0 0 324 308" fill="none" xmlns="http://www.w3.org/2000/svg"><path d="M210.464 283.544C136.956 294.136 36.27 241.283 25.65 167.584 15.03 93.885 77.727 30.25 151.234 19.657 224.742 9.065 292.945 60.22 303.565 133.918c10.62 73.699-19.594 139.033-93.101 149.626z" fill="#F9C273"/><path d="M21 129.047c-23.558 16.774-2.364 48.648 10.776 40.682 19.67-11.925-65.484-25.327-6.974 43.753" stroke="#1A2E44" stroke-width="1.6" stroke-dasharray="6 3"/><g clip-path="url(#clip0)"><path d="M228.4 262.8c0 3.1-22.5 5.7-50.2 5.7-13.2 0-29.2.9-38.2 0-9.8-1-10.7-4-10.7-5.7 0-3.1 41.7-5.2 69.4-5.2 27.7 0 29.7 2 29.7 5.2z" fill="#1A2E44"/><path d="M262.8 34.4c.8-1.1 4.7-2.2 5.6.2.9 2.4 15 32 14.5 33.2-.5 1.1-42.7 19.3-44.4 17.8-.5-.4-5.7-2.2-3-8.1 7-15 27.3-43.1 27.3-43.1z" fill="#1A2E44"/><path d="M221.7 51c13.2-5.9 26.3-11.7 39.5-17.6.7-.3 1.5-.6 2.2-.4.8.3 1.3 1.1 1.7 1.9 4.8 10.4 9.7 20.8 14.5 31.2-14.5 5.5-28.6 11.9-42.3 19.2-.7.4-1.5.7-2.2.4-.4-.2-.6-.6-.8-1-5.4-9.8-9.9-20.1-13.4-30.7" fill="#fff"/><path d="M222.1 51.8c6-2.7 12-5.3 18-8 5.9-2.6 11.8-6 18-8 1.7-.6 4.2-1.4 5.9-.3.7.4 2.1 4.4 2.4 5.2l3.6 7.8c2.8 6.1 5.6 12.1 8.5 18.2.3-.5.6-1 1-1.5-12.2 4.6-24.3 9.9-35.9 15.8-1.4.7-2.8 1.4-4.1 2.1-2.3 1.2-3 1.5-4.8-.7-2.1-2.7-3.6-6.9-5-10-2.9-6.2-5.4-12.6-7.5-19.1-.4-1.1-2.6 0-2.2 1.2 2.6 7.7 5.6 15.2 9.1 22.5 1.5 3 3.3 10.4 7.6 9.7 3-.5 6.8-3.4 9.5-4.8 3.3-1.7 6.7-3.3 10-4.8 7.8-3.6 15.6-6.9 23.6-9.9.6-.2 1.3-.8 1-1.5-3.4-7.2-6.7-14.4-10.1-21.7-1.8-3.6-3.4-12-8.3-12-2.2 0-5.1 2.1-7.1 3l-10.8 4.8c-7.8 3.5-15.6 6.9-23.3 10.4-1.4.6-.5 2.3.9 1.6z" fill="#1A2E44"/><path d="M220.4 54c6.2 1.2 12.4 2.3 18.5 3.5 3.8.7 10.8 3.5 14.4 1.6 3.4-1.8 5.8-7.2 7.5-10.4 2.4-4.7 4.1-9.6 5.2-14.7.3-1.4-2.1-.8-2.3.4-.9 4.3-2.3 8.6-4.2 12.6-1.1 2.3-2.5 5-4.1 7.1-2.3 2.8-3.9 3.7-7.3 3.1-9-1.7-17.9-3.4-26.9-5.1-1.2-.4-2.3 1.6-.8 1.9z" fill="#1A2E44"/><path d="M265.4 36.4s-5.8 18.7-7.1 20.8c-1.3 2.1-6 1.4-6 1.4s5.5-6.5 6.6-8.5c1.1-2 5.6-14.4 5.6-14.4l.9.7z" fill="#1A2E44"/><path d="M262.5 120.7s3.9-2.1 5.2.4c1.2 2.5-15.2 95.4-16.1 98.1-.9 2.7-7.3 2.4-8.1 1.5-.8-.9 18.9-99.6 18.9-99.6" fill="#1A2E44"/><path d="M189.2 121.6c1.7-2.1 8.3-8.6 10.5-10.1.7-.5 1.4-1.2 2.1-1.8 1-.9 6.5-3.6 7.9-3.2 22.1 5.7 41.6 7.2 52.2 9 2.3.4 3.9 2.1 3.7 4-.4 5.9-16.1 89.7-16.9 96-.4 2.8-3.6 4.6-7 4-19.8-3.8-52-5.4-64.3-10.6-2-.9-3.2-6.5-3-8.3.3-3.9 10-54.4 14.6-78.4.9-4.9 13.3-1.4 14.2-.9 2.2 1.2 3.4-3.3 3.4-6.4 0-1.8.4-6.2 1.7-7.8" fill="#fff"/><path d="M190.1 122.1c3.8-4.5 8.7-9.7 13.9-12.7 4.7-2.7 8.6-.9 13.5.2s9.9 2 14.8 2.8c8.1 1.3 16.3 2.3 24.5 3.5 3.1.4 7.2.4 7.5 4.5.1 1-.3 2.2-.5 3.2-3.2 20.4-7.2 40.7-10.8 61.1-1.6 9-3.3 17.9-4.8 26.9-.2 1-.2 2.2-.5 3.1-1.4 3.7-5.8 3.9-9.2 3.3-8.1-1.4-16.3-2.3-24.5-3.3-8-1-16-1.9-23.9-3.4-3.1-.6-6.4-1.1-9.4-2.3-3.8-1.4-5.2-4.5-5-8.6.1-3 1-6.1 1.5-9.1 1-5.9 2.1-11.7 3.2-17.5 2.9-15.6 5.9-31.1 8.9-46.7.4-1.9.5-5.1 2.4-6.2 1.5-.8 4.4-.2 6 .1 1.8.3 4.2 1.6 6 1.5 5.7-.4 3.7-11.8 5.8-15.2.8-1.3-1.6-1.4-2.2-.3-1.8 3.1-1.4 6.6-1.9 9.9-.8 4.9-3.2 2.7-6.7 2.1-3.8-.6-9.2-1.1-10.7 3.3-2.4 6.7-2.8 14.8-4.2 21.8-1.6 8.3-3.2 16.6-4.7 24.9-1.3 6.9-2.6 13.8-3.8 20.7-.6 3.6-1.7 7.3-1.8 11-.1 2.4.4 5.6 1.9 7.6 1.4 2 4 2.5 6.2 3.1 8.1 2.3 16.6 3.3 25 4.3 9.5 1.2 19.1 2.2 28.5 3.7 5.4.8 13.1 3.1 15-4 2-7.4 2.7-15.4 4-23 4.2-23.2 8.8-46.4 12.4-69.7.6-3.9.7-6.9-4-8.3-3.9-1.1-8.5-1.2-12.5-1.8-5.5-.7-11.1-1.5-16.6-2.4-6.5-1.1-13-2.3-19.5-3.9-4-1-6-1.1-9.8.8-6 2.9-11.5 8.9-15.8 14-1.1 1.4 1 1.9 1.8 1z" fill="#1A2E44"/><path d="M206.3 145.001c10.6 2 21.2 4.3 31.6 6.9 1.2.3 2-2.1.8-2.4-10.5-2.6-21-4.9-31.6-6.9-1.2-.2-2 2.2-.8 2.4z" fill="#1A2E44"/><path d="M205.6 154.501c5.2 1.4 10.4 2.4 15.8 3.1 1.4.2 2.3-1.6.7-1.8-5.3-.7-10.6-1.7-15.8-3.1-1.4-.4-2.3 1.4-.7 1.8z" fill="#1A2E44"/><path d="M203.8 163.601c11.8 2 23.5 4.2 35.1 6.9 1.2.3 2.3-1.9 1.1-2.2-11.6-2.6-23.3-4.9-35.1-6.9-1.2-.2-2.4 2-1.1 2.2z" fill="#1A2E44"/><path d="M203.5 174.5c4.5.7 9.1 1.4 13.6 2.1 1.3.2 2.4-1.7.8-1.9-4.5-.7-9.1-1.4-13.6-2.1-1.4-.2-2.4 1.6-.8 1.9z" fill="#1A2E44"/><path d="M201.4 184.701c10.4 2.6 21 4.4 31.6 5.5 1.2.1 1.3-2.4.1-2.5-10.5-1.1-20.9-2.9-31.1-5.4-1.4-.4-1.8 2.1-.6 2.4z" fill="#1A2E44"/><path d="M101.1 159.5s-1.2-4.3 1.5-5c2.7-.6 89.8 35.6 92.2 37.1 2.5 1.4.7 7.7-.3 8.2-1 .6-93.1-40.2-93.1-40.2" fill="#1A2E44"/><path d="M86 231.3c-1.7-2.1-6.6-10-7.6-12.4-.3-.8-.8-1.6-1.3-2.4-.7-1.1-2.1-7.1-1.4-8.4 10.4-20.3 16.1-39 20.2-49 .9-2.1 2.9-3.3 4.7-2.8 5.7 1.7 84 35.2 90 37.4 2.7 1 3.8 4.5 2.4 7.7-8 18.5-16.7 49.6-24.4 60.5-1.3 1.8-7 1.7-8.8 1.1-3.8-1.2-50.9-21.6-73.3-31.3-4.6-2 1.5-13.3 2.2-14.1 1.6-1.9-2.5-4-5.5-4.7-1.7-.4-6-1.7-7.3-3.4" fill="#fff"/><path d="M87.1 230.7c-3.5-4.6-7-10-9.1-15.3-.6-1.5-1.1-3.4-1.1-5-.1-2.5 1-4.2 2.1-6.5 2.4-4.9 4.6-9.9 6.7-14.9 3.2-7.7 6-15.5 8.9-23.3.9-2.6 2.2-8.4 5.7-8.3.7 0 1.8.7 2.5.9 19.1 7.4 37.8 15.7 56.7 23.6 8.6 3.6 17.1 7.2 25.7 10.8 4.3 1.8 8.7 2.7 6.6 9.1-2.4 7.6-5.8 15-8.5 22.6-2.8 7.8-5.4 15.6-8.6 23.2-1.3 3.1-2.6 6.3-4.2 9.3-2.1 4.1-4.5 6.4-9.4 5.3-2.8-.6-5.6-2.2-8.3-3.3-5.4-2.2-10.7-4.5-16.1-6.8-14.6-6.2-29.2-12.6-43.7-18.9-3.7-1.6-7.5-2.4-6.5-7.2.6-2.9 2.2-5.2 3.3-7.9 2.5-6.2-9.4-6.3-12.7-9.4-.9-.8-2.9.6-1.9 1.6 2.7 2.5 6.3 2.8 9.5 4.2 4.9 2.1 2.1 4.2.7 7.7-1.9 4.7-2.8 8.9 2.3 11.2 14.6 6.6 29.4 12.8 44.2 19.1 6.2 2.7 12.4 5.3 18.7 7.9 2.9 1.2 5.9 2.8 9 3.6 5.6 1.4 9.5-.2 12.2-5 4-7 6.7-14.7 9.4-22.2 3.3-9.1 6.4-18.2 9.8-27.2 2-5.1 7.2-13.2.3-16.8-6.9-3.6-14.6-6-21.8-9.1-21.6-9.1-43.2-18.7-65.1-27.2-3.2-1.2-6.3-2.2-8.8 1.1-2.1 2.9-3.1 7.3-4.3 10.6-1.8 5-3.7 10-5.6 15-2.4 6-4.9 11.9-7.6 17.8-2 4.2-4.2 7-3.3 11.7 1.3 6.8 6.1 13.8 10.2 19.2.7.9 2.9-.3 2.1-1.2z" fill="#1A2E44"/><path d="M112.6 219.199c4.3-9.9 8.8-19.7 13.6-29.4.7-1.4-1.6-1.5-2.2-.4-4.8 9.7-9.4 19.4-13.6 29.4-.6 1.4 1.7 1.5 2.2.4z" fill="#1A2E44"/><path d="M121.801 222.1c2.5-4.8 4.6-9.701 6.4-14.7.6-1.5-1.4-1.9-1.9-.5-1.8 4.999-4 9.9-6.4 14.7-.7 1.5 1.3 1.8 1.9.5z" fill="#1A2E44"/><path d="M130.4 225.599c4.5-11.1 9.3-22 14.4-32.8.6-1.2-1.9-1.5-2.4-.4-5.1 10.8-9.9 21.7-14.4 32.8-.5 1.2 2 1.5 2.4.4z" fill="#1A2E44"/><path d="M140.6 228.9c1.7-4.3 3.3-8.5 5-12.8.5-1.2-1-2.8-1.6-1.3-1.7 4.3-3.3 8.5-5 12.8-.4 1.2 1 2.8 1.6 1.3z" fill="#1A2E44"/><path d="M149.9 233.199c4.7-9.5 8.8-19.3 12.2-29.4.4-1.2-1.1-2.8-1.6-1.3-3.4 10.1-7.5 19.9-12.2 29.4-.6 1.2.9 2.8 1.6 1.3z" fill="#1A2E44"/><path d="M92.3 210.2c1.7-.7 6.7 1.2 5.9 4.3-.8 3.2-7.5 45.7-8.8 46.6-1.3.9-60.5-10.7-61.2-13.6-.2-.8-4.6-6.6 2.8-11 18.6-11 61.3-26.3 61.3-26.3z" fill="#1A2E44"/><path d="M35.5 197.7l55.8 10.2c1 .2 2.1.4 2.7 1.2.7.9.5 2.2.4 3.3-2.5 14.8-4.9 29.6-7.4 44.4-19.7-4.8-39.7-8.3-59.8-10.5-1-.1-2.1-.3-2.6-1.2-.3-.5-.2-1.1-.2-1.7 1.4-14.6 4.1-29.1 8.2-43.2" fill="#fff"/><path d="M35.1 198.7c17 3.1 34 6.2 50.9 9.3 3.2.6 6.3.2 7.2 4.5.3 1.6-.7 4.3-1 5.8l-2.1 12.6c-1.4 8.7-2.9 17.4-4.3 26.1.5-.4 1.1-.7 1.6-1.1-17.2-4.2-34.7-7.4-52.3-9.6-1.8-.2-3.9-.2-5.7-.7-3.9-1.1-4-2.2-3.6-6 .5-4.4 1.1-8.9 1.9-13.3 1.5-8.8 3.5-17.5 5.9-26.1.4-1.4-2-.9-2.4.2-2.8 9.8-5 19.8-6.5 29.9-.6 4.1-2.5 10.1-1.7 14.2.3 1.9 1.1 2.4 3 2.9 4.7 1.1 9.9 1.2 14.6 1.8 5 .7 10 1.5 15 2.4 10.3 1.8 20.5 3.9 30.7 6.4.7.2 1.5-.4 1.6-1.1L93 226c.8-4.6 2.6-10.1 2.4-14.7-.1-2-.5-2.8-2.2-3.8-2.9-1.7-8.1-1.6-11.3-2.2-5.1-.9-10.3-1.9-15.4-2.8-10.3-1.9-20.5-3.7-30.8-5.6-.9-.4-2.2 1.5-.6 1.8z" fill="#1A2E44"/><path d="M32.7 200.2L49.5 217l8.4 8.4c1.5 1.5 3.1 3.8 5.2 4.4 2.6.8 6.1-1.1 8.3-2 3.1-1.2 6.1-2.7 9-4.3 5.4-3.1 10.3-6.8 14.9-11.1.8-.8.1-3.1-1-2.1-4 3.8-8.4 7.3-13.2 10.1-4.2 2.5-14.4 8.9-19.1 6.1-2.5-1.5-4.7-4.7-6.7-6.7l-7-7-14.7-14.7c-.9-1-1.7 1.3-.9 2.1z" fill="#1A2E44"/><path d="M93.7 214.199s-20.1 15.9-23.1 17.3c-3 1.3-7.5-2.9-7.5-2.9s10.8-2.9 13.5-4.3c2.7-1.4 16.7-11.4 16.7-11.4l.4 1.3z" fill="#1A2E44"/><path d="M302.6 169s4.6 2.5 7.4 6c2.3 2.8 9.8 30.6 12.8 41.4.7 2.5-.2 6.7-2.5 7.5-14.9 5.2-66.8 21.1-67.9 20.2-1.3-1 52.9-65.9 52.9-65.9" fill="#1A2E44"/><path d="M226.1 198.901c-1-3.5-.1-6.7 1.9-7.4 21.3-7.1 59.6-19.1 71.7-23 2.3-.7 5 1.2 6.2 4.6 3.9 10.4 8.4 26.6 12.3 38 1.7 5.1.2 10.2-3.3 11.2-20.3 5.8-57.7 19.1-70 23.5-2.2.8-4.8-1.1-5.9-4.3-3.2-8.4-9.8-31.4-12.9-42.6z" fill="#fff"/><path d="M227.3 198.6c-1.4-6.4 4-7.2 8.8-8.7l12.9-4.2c8.4-2.7 16.7-5.4 25.1-8 6.9-2.2 13.7-4.4 20.6-6.5 4.2-1.3 7.8-2.3 10.1 2.6 2.1 4.5 3.4 9.8 4.9 14.5 1.5 4.6 2.9 9.3 4.3 13.9 1.4 4.5 4.3 10.2 3.6 14.9-.8 5-7.7 5.7-11.7 7-4.3 1.3-8.5 2.7-12.8 4.1-15 4.9-29.8 10.1-44.7 15.4-2 .7-4.2 1.9-6.3.4-1.6-1.2-2.2-3.7-2.8-5.5-1.5-4.5-2.9-9-4.2-13.6-2.8-8.7-5.4-17.5-7.8-26.3-.4-1.3-2.7-.4-2.4.7 2.9 10.1 5.7 20.2 8.8 30.3 1.5 4.8 3.2 17.5 10 17.4 2.7 0 5.9-1.9 8.4-2.8 4.4-1.6 8.8-3.1 13.3-4.7 10.2-3.5 20.3-7 30.6-10.4 4.5-1.5 9.1-2.9 13.7-4.3 3.2-1 6.9-1.4 8.9-4.3 2.4-3.5 1.5-7.7.3-11.4-2-6.4-4.1-12.9-6.1-19.3-1.5-5-3.1-9.9-4.8-14.8-1.2-3.5-3.1-7.9-7.5-7.6-2.9.2-5.9 1.8-8.7 2.6-4.5 1.4-8.9 2.8-13.4 4.2-11.6 3.7-23.3 7.4-34.9 11.2-5 1.6-10.2 2.9-15 4.9-3.8 1.6-4.3 5-3.5 8.9.2 1.4 2.5.6 2.3-.6z" fill="#1A2E44"/><path d="M311.076 176.623l-84.199 25.572 4.04 13.3 84.198-25.573-4.039-13.299z" fill="#1A2E44"/><path d="M245.8 224.9c9.6-3 19.3-5.699 29-8.299 1.3-.4 1.6-2.301 0-1.901-9.9 2.6-19.8 5.4-29.6 8.5-1.6.4-.9 2.2.6 1.7z" fill="#1A2E44"/><path d="M248.7 231.001c4.9-1.2 9.7-2.7 14.5-4.4 1.5-.5.2-2.2-1-1.8-4.8 1.7-9.6 3.2-14.5 4.4-1.6.4-.3 2.2 1 1.8z" fill="#1A2E44"/><path d="M164.3 119.4s-1 5.1-3.5 8.8c-2 3-26.4 18.3-35.9 24.3-2.2 1.4-6.4 1.7-7.9-.2-9.4-12.8-39.6-57.8-39.1-59.1.6-1.6 78.5 31.5 78.5 31.5" fill="#1A2E44"/><path d="M113.3 54.9c3-1.9 6.4-2.1 7.7-.3 13 18.3 35.6 51.5 42.8 61.9 1.4 2 .3 5.1-2.6 7.2-8.9 6.7-23 15.8-32.8 22.8-4.4 3.1-9.7 3.2-11.7.1C105.3 128.9 81.8 97 74 86.5c-1.4-1.9-.3-4.9 2.4-6.9 7.1-5.4 27.2-18.4 36.9-24.7z" fill="#fff"/><path d="M113.8 55.7c6.3-3.4 9.7 4.5 12.4 8.4l7.5 10.8c5 7.2 10 14.4 14.9 21.6 3.9 5.7 7.9 11.5 11.8 17.2 2.7 3.9 3.6 6.4-.9 10.1-3.8 3.2-8.2 5.9-12.3 8.7-3.8 2.6-7.6 5.2-11.4 7.7-4.3 2.9-12.1 10.6-17.4 6.3-2.6-2.1-4.5-6.7-6.4-9.4-2.4-3.5-4.9-7.1-7.4-10.6-8.9-12.7-18.1-25.2-27.3-37.7-1.2-1.6-2.2-2.6-2.3-4.6-.1-2.9 2.4-4.4 4.5-5.9 3.7-2.6 7.5-5.2 11.3-7.7 7.6-5 15.3-9.9 23-14.9 1.3-.8.4-2.5-.9-1.7-8.5 5.5-17 11-25.4 16.6-4.1 2.7-16.3 8.4-15.2 14.8.5 2.7 3.5 5.5 5.1 7.6 2.8 3.8 5.5 7.5 8.3 11.3 6.3 8.7 12.6 17.4 18.8 26.2 2.7 3.9 5.5 7.8 8.1 11.8 2 3 3.5 6.7 7.4 7.3 3.9.6 7.3-1.4 10.3-3.5 5.2-3.6 10.4-7.1 15.6-10.7 4.7-3.2 9.3-6.3 13.9-9.7 2.7-2 6.6-4.9 5.6-8.9-.7-2.5-3.2-5.1-4.6-7.1-2.6-3.8-5.2-7.6-7.8-11.3-6.9-10-13.8-20.1-20.8-30.1-3.1-4.5-6.1-9.3-9.5-13.6-2.7-3.5-6.2-2.8-9.8-.8-1.4.9-.5 2.6.9 1.8z" fill="#1A2E44"/><path d="M159.465 129.768l-48.946-73.137-11.552 7.731 48.945 73.137 11.553-7.731z" fill="#1A2E44"/><path d="M93.9 81.4c5.7 8.4 11.2 16.9 16.5 25.6.6 1 2.8-.2 2.1-1.3-5.3-8.7-10.8-17.2-16.5-25.6-.7-1-2.9.2-2.1 1.3z" fill="#1A2E44"/><path d="M88.8 85.4c2.6 4.3 5.4 8.5 8.4 12.6.7.9 3.1.5 2.3-.6-3-4.1-5.8-8.2-8.4-12.6-.7-1-3.1-.6-2.3.6z" fill="#1A2E44"/></g><defs><clipPath id="clip0"><path fill="#fff" transform="translate(23 32)" d="M0 0h300.1v236.9H0z"/></clipPath></defs></svg>